<?xml version="1.0" encoding="UTF-8" standalone="no"?>
<!DOCTYPE svg PUBLIC "-//W3C//DTD SVG 1.1//EN" "http://www.w3.org/Graphics/SVG/1.1/DTD/svg11.dtd">
<svg width="100%" height="100%" viewBox="0 0 241 163" version="1.1" xmlns="http://www.w3.org/2000/svg" xmlns:xlink="http://www.w3.org/1999/xlink" xml:space="preserve" style="fill-rule:evenodd;clip-rule:evenodd;stroke-miterlimit:10;">
    <g id="back-of-head.2c.-ear-protecting.2c.-mask-holder-thing" transform="matrix(0.0957256,-0.0448686,0.0448686,0.0957256,124.844,83.4276)">
        <g transform="matrix(1,0,0,1,-864,-432)">
            <g transform="matrix(1.42222,0,0,1.42222,-11.5123,142.381)">
                <path d="M1176,76.6L1174.6,71.2L1174.6,71.1L1174.6,71L1171.8,66.2L1171.8,66.1L1167.9,62.2L1167.8,62.2L1163,59.4L1162.9,59.4L1162.8,59.4L1157.4,58L1157.3,58L1157.2,58L1151.6,58L1151.5,58L1151.4,58L1146,59.4L1145.9,59.4L1145.8,59.4L1141,62.2L1140.9,62.2L1137,66.1L1137,66.2L1134.2,71L1134.2,71.1C1134.2,71.2 1134.2,71.1 1134.2,71.1L1132.8,76.5L1132.8,82.5L1134.2,87.9L1134.2,88L1137,92.8L1137,92.9L1140.9,96.8L1141,96.8L1141,96.9L1145.8,99.7L1146,99.7L1151.4,101.1L1156.6,101.1L1156.9,103.5C1157.4,107.4 1154.7,111 1150.8,111.5L1095.5,118.8L1091.4,87.8L1090,82.4L1090,82.3L1090,82.2L1087.2,77.4L1087.2,77.3L1083.3,73.4L1083.2,73.4L1083.2,73.3L1078.4,70.5L1078.3,70.5L1078.2,70.5L1072.8,69.1L1072.7,69.1L1072.6,69.1L1067,69.1L1066.9,69.1L1066.8,69.1L1061.4,70.5L1061.3,70.5L1061.2,70.5L1056.4,73.3L1056.4,73.4L1052.5,77.3L1052.5,77.4L1049.7,82.2L1049.7,82.4L1048.3,87.8L1048.3,93.8L1049.7,99.2L1049.7,99.3L1052.5,104.1L1052.5,104.2L1056.4,108.1L1061.2,110.9L1061.3,110.9L1066.6,112.3L1071.9,112.3L1072.2,114.7C1072.7,118.6 1070,122.2 1066.1,122.7L1010.8,130L1006.7,99L1005.2,93.6L1005.2,93.5L1005.2,93.4L1002.4,88.6L1002.4,88.5L998.5,84.6L998.4,84.6L998.3,84.6L993.5,81.8L993.4,81.8L993.3,81.8L987.9,80.4L987.8,80.4L987.7,80.4L982.1,80.4L982,80.4L981.9,80.4L976.5,81.8L976.4,81.8L976.3,81.8L971.5,84.6L971.4,84.6L971.3,84.6L967.4,88.5L967.4,88.6L964.6,93.4L964.6,93.6L963.2,99L963.2,105L964.6,110.4L964.6,110.5L967.4,115.3C967.4,115.3 967.4,115.4 967.5,115.4L971.4,119.3L971.6,119.3L976.4,122.1L976.5,122.1L981.9,123.5L987.1,123.5L987.4,125.9C987.9,129.8 985.2,133.4 981.3,133.9L926,141.2L921.9,110.3L920.5,104.9L920.5,104.8L920.5,104.7L917.7,99.9L917.7,99.8L913.8,95.9L913.7,95.9L913.6,95.9L908.8,93.1L908.7,93.1L908.6,93.1L903.2,91.7L903.1,91.7L903,91.7L897.4,91.7L897.3,91.7L897.2,91.7L891.8,93.1L891.7,93.1L891.6,93.1L886.8,95.9L886.7,95.9L886.6,95.9L882.7,99.8L882.7,99.9L879.9,104.7L879.9,104.8L879.9,104.9L878.5,110.3L878.5,116.3L879.9,121.7L879.9,121.8L882.7,126.6L886.7,130.6L886.9,130.6L891.7,133.4L891.8,133.4L897.2,134.8L902.4,134.8L902.7,137.1C903.2,141 900.5,144.6 896.6,145.1L794.8,158.5L794.8,157.7L794.7,156.5L794.5,155.3L794.2,154.2L793.8,153.2L793.4,152.2L792.9,151.3L792.3,150.5L791.6,149.7L790.8,149L789.9,148.4L789,147.8L788,147.3L786.9,146.9L785.7,146.5L784.4,146.2L783,146L781.5,145.8L780,145.7L778.4,145.7L454.4,145.7L452.8,145.7L451.3,145.8L449.8,146L448.4,146.2L447.1,146.5L445.9,146.9L444.8,147.3L443.8,147.8L442.8,148.4L441.9,149L441.1,149.7L440.4,150.5L439.8,151.3L439.3,152.2L438.8,153.2L438.4,154.2L438.1,155.3L437.9,156.5L437.8,157.7L437.8,158.5L336,145.1C332.1,144.6 329.3,141 329.9,137.1L330.2,134.8L335.5,134.8L340.9,133.4L341,133.4L345.8,130.6L345.9,130.6L349.8,126.7L349.8,126.6L352.6,121.8L352.6,121.7L354,116.3L354,116.2L354,116.1L354,110L354,109.9L354,109.8L352.6,104.4L352.6,104.3L352.6,104.2L349.8,99.4L349.8,99.3L345.9,95.4L345.8,95.4L341,92.6L340.9,92.6L340.8,92.6L335.4,91.2L335.3,91.2L335.2,91.2L329.6,91.2L329.5,91.2L329.4,91.2L324,92.6L323.9,92.6L323.8,92.6L319,95.4L318.9,95.4L315,99.3L315,99.4L312.2,104.2L312.2,104.4L310.8,109.8L306.7,140.7L251.4,133.4C247.5,132.9 244.7,129.3 245.3,125.4L245.6,123L250.9,123L256.3,121.6L256.4,121.6L261.2,118.8L261.3,118.8L265.2,114.9L265.2,114.8L268,110L268,109.9L269.4,104.5L269.4,104.4L269.4,104.3L269.4,98.7L269.4,98.6L269.4,98.5L268,93.1L268,93L268,92.9L265.2,88.1L265.2,88L261.3,84.1L261.2,84.1L256.4,81.3L256.3,81.3L256.2,81.3L250.8,79.9L250.7,79.9L250.6,79.9L245,79.9L244.9,79.9L244.8,79.9L239.4,81.3L239.3,81.3L239.2,81.3L234.4,84.1L230.5,88L230.5,88.1L227.7,92.9L227.7,93.1L226.3,98.5L222.2,129.5L166.9,122.2C163,121.7 160.2,118.1 160.8,114.2L161.1,111.8L166.4,111.8L171.7,110.4L171.8,110.4C171.9,110.4 171.8,110.4 171.8,110.4L176.6,107.6L176.7,107.6L180.6,103.7L180.6,103.6L183.4,98.8L183.4,98.7L184.8,93.3L184.8,93.2L184.8,93.1L184.8,87.5L184.8,87.4L184.8,87.3L183.4,81.9L183.4,81.8L183.4,81.7L180.6,76.9L180.6,76.8L176.7,72.9L176.6,72.8L171.8,70L171.7,70L166.3,68.6L166.2,68.6L166.1,68.6L160.6,68.6L160.5,68.6L160.4,68.6L155,70L154.9,70L154.8,70L150,72.8L150,72.9L146.1,76.8L146.1,76.9L143.3,81.7L143.3,81.8L143.3,81.9L141.9,87.3L137.8,118.3L82.5,111C78.6,110.5 75.8,106.9 76.4,103L76.7,100.6L82,100.6L87.4,99.2L87.5,99.2L92.3,96.4L92.4,96.3L96.3,92.4L96.3,92.3L99.1,87.5L99.1,87.4L100.5,82L100.5,81.9L100.5,81.8L100.5,76.2L100.5,76.1L100.5,76L99.1,70.6L99.1,70.5L96,66.3L95.9,66.2L92,62.2L91.9,62.2L87.1,59.4L87,59.4L86.9,59.4L81.5,58L81.4,58L81.3,58L75.8,58L75.7,58L75.6,58L70.2,59.4L70.1,59.4L65.3,62.2L61.4,66.1L61.4,66.2L58.6,71L58.6,71.2L57.2,76.6L37.7,224.6L37.7,230.4L39.1,235.8L39.1,235.9L41.9,240.7C41.9,240.7 41.9,240.8 42,240.8L45.9,244.7L46,244.7L50.8,247.5L50.9,247.5L56.3,248.9L62.1,248.9L67.5,247.5L67.6,247.5L72.4,244.7L72.5,244.7L76.4,240.8L76.4,240.7L79.2,235.9L79.2,235.8L80.6,230.4L80.6,230.3L80.6,230.2L80.6,224.6L80.6,224.5L80.6,224.4L79.2,219L79.2,218.9L79.2,218.8L76.4,214L76.4,213.9L72.5,210L72.4,210L67.6,207.2L67.5,207.2L67.4,207.2L62.4,205.9C62.9,202 66.5,199.2 70.4,199.8L125.7,207.1L121.9,235.7L121.9,241.5L123.3,246.9L123.3,247L126.1,251.8L126.1,251.9L130,255.8L130.1,255.8L134.9,258.6L135,258.6L140.4,260L146.2,260L151.6,258.6L151.7,258.6L156.5,255.8L160.4,251.9L160.4,251.8L163.2,247L163.2,246.9L164.6,241.5L164.6,241.4L164.6,241.3L164.6,235.7L164.6,235.6L164.6,235.5L163.2,230.1L163.2,230L163.2,229.9L160.4,225.1L160.4,225L160.4,224.9L156.5,221L156.5,220.9L151.7,218.1L151.6,218.1L151.5,218.1L146.6,216.8C147.1,212.9 150.7,210.2 154.6,210.7L209.9,218L206.1,246.7L206.1,252.4L206.1,252.5L207.5,257.9L207.5,258L210.3,262.8L210.3,262.9L214.2,266.8L214.3,266.8L214.3,266.9L219.1,269.7L219.2,269.7L224.6,271.1L230.4,271.1L235.8,269.7L235.9,269.7L240.7,266.9L240.7,266.8L240.8,266.8L244.7,262.9L244.8,262.8L247.6,258L247.6,257.9L249.1,252.5L249.1,252.4L249.1,252.3L249.1,246.7L249.1,246.6L249.1,246.5L247.6,241.1L247.6,241L247.6,240.9L244.8,236.1L244.8,236L240.9,232.1L240.8,232.1L236,229.3L235.9,229.3L235.8,229.3L230.8,228L230.8,227.9C231.3,224 234.9,221.2 238.8,221.8L294.1,229.1L291,258L291,263.8L292.4,269.2L292.4,269.3L295.2,274.1L295.2,274.2L299.1,278.1L299.2,278.1L304,280.9L304.1,280.9L309.4,282.3L315.3,282.3L320.7,280.9L320.8,280.9L325.6,278.1L325.7,278.1L329.6,274.2L329.6,274.1L332.4,269.3L332.4,269.2L333.8,263.8L333.8,263.7L333.8,263.6L333.8,258L333.8,257.9L333.8,257.8L332.4,252.4L332.4,252.3L332.4,252.2L329.6,247.4L329.6,247.3L329.6,247.2L325.7,243.3L325.6,243.3L320.8,240.5L320.7,240.5L320.6,240.5L315.7,239.2L315.7,239.1C316.2,235.2 319.8,232.4 323.7,233L455,250.3L463.9,271.8L463.9,271.9L467.3,276.3L467.4,276.4L471.8,279.8L471.9,279.8L477,281.9L477.2,281.9L482.7,282.6L750.2,282.6L755.7,281.9L755.9,281.9L761,279.8L761.1,279.8L765.5,276.4L765.5,276.3L768.9,271.9L768.9,271.8L777.8,250.3L908.9,233.1C912.8,232.6 916.4,235.3 916.9,239.2L916.9,239.3L912,240.6L911.9,240.6L911.8,240.6L907,243.4L906.9,243.4L906.8,243.4L902.9,247.3L902.9,247.5L900.1,252.3L900.1,252.4L900.1,252.5L898.7,257.9L898.7,263.9L900.1,269.3L900.1,269.4L902.9,274.2C902.9,274.2 902.9,274.3 903,274.3L906.9,278.2L907.1,278.2L911.9,281L912.1,281L917.4,282.4L923.3,282.4L928.7,281L928.9,281L933.7,278.2L933.9,278.2L937.8,274.3L937.8,274.2C937.8,274.1 937.8,274.2 937.8,274.2L940.6,269.4L940.6,269.3L942,263.9L942,263.8L942,263.7L942,258L938.2,229.3L993.5,222C997.4,221.5 1001,224.2 1001.5,228.1L1001.5,228.2L996.5,229.5L996.4,229.5L991.6,232.3L991.5,232.3C991.4,232.3 991.5,232.3 991.5,232.3L987.6,236.2L987.6,236.3L984.8,241.1L984.8,241.3L983.4,246.7L983.4,252.7L984.8,258.1L984.8,258.2L987.6,263L987.6,263.1L991.6,267.1L996.4,269.9L996.6,269.9L1002,271.3L1007.8,271.3L1013.2,269.9L1013.4,269.9L1018.2,267.1L1018.3,267L1018.4,267L1022.3,263.1L1022.3,263L1025.1,258.2L1025.1,258.1L1026.5,252.7L1026.5,252.6L1026.5,252.5L1026.5,246.9L1022.7,218.2L1078,210.9C1081.9,210.4 1085.5,213.1 1086,217L1081.1,218.3L1081,218.3L1080.9,218.3L1076.1,221.1L1076.1,221.2L1076,221.2L1072.1,225.1L1072.1,225.3L1069.3,230.1L1069.3,230.2L1069.3,230.3L1067.9,235.7L1067.9,241.7L1069.3,247.1L1069.3,247.2L1072.1,252L1072.1,252.1L1076,256L1076.1,256L1080.9,258.8L1081,258.8L1086.3,260.2L1092.3,260.2L1097.6,258.8L1097.8,258.8L1102.6,256L1102.7,256L1106.6,252.1L1106.6,252L1109.4,247.2L1109.4,247.1L1110.8,241.7L1110.8,241.6L1110.8,241.5L1110.8,235.9L1107,207.3L1162.3,200C1166.2,199.5 1169.8,202.2 1170.3,206.1L1165.4,207.4L1165.3,207.4L1165.2,207.4L1160.4,210.2L1160.3,210.2L1156.4,214.1L1156.3,214.2L1153.5,219L1153.5,219.2L1152.1,224.6L1152.1,230.6L1153.5,236L1153.5,236.1L1156.3,240.9C1156.3,240.9 1156.3,241 1156.4,241L1160.3,244.9L1160.4,244.9L1165.2,247.7L1165.3,247.7L1170.7,249.1L1176.5,249.1L1181.9,247.7L1182,247.7L1186.8,244.9L1186.9,244.9L1190.8,241L1190.8,240.9L1193.6,236.1L1193.6,236L1195,230.6L1195,230.5L1195,230.4L1195,224.8L1176,76.6ZM748.9,184.5L748.8,185.4L748.6,186.3L748.4,187L728.4,242.9L728.3,243.1L728,244L727.6,244.8L727.1,245.6L726.5,246.3L725.8,246.9L725,247.4L724.2,247.8L723.3,248.1L722.4,248.3L722.3,248.3L721.4,248.4L721,248.4L720.7,248.4L515.2,248.4L514.4,248.4L514.3,248.4L513.4,248.3L512.5,248.1L511.6,247.8L510.8,247.4L510,246.9L509.3,246.3L508.7,245.6L508,245L507.6,244.2L507.3,243.4L487.4,187.6L487.4,187.5L487.1,186.6L486.9,185.7L486.8,184.8L486.8,183.9L487,183L487.3,182.1L487.7,181.3L488.2,180.5L488.8,179.8L489.4,179.2L490.1,178.7L490.9,178.3L491.7,178L492.6,177.8L493.5,177.7L494.4,177.7L495,177.8L741.4,177.8L742.3,177.9L743.2,178.1L744.1,178.4L744.9,178.9L745.6,179.4L746.3,180L746.9,180.7L747.4,181.5L747.8,182.3L748.1,183.2L748.2,184.1L748.9,184.5C748.9,184.4 748.8,184.4 748.9,184.5C748.8,184.5 748.9,184.5 748.9,184.5Z" style="fill:none;stroke:rgb(34,19,19);stroke-width:2.92px;"/>
            </g>
        </g>
    </g>
</svg>
