<?xml version="1.0" encoding="UTF-8" standalone="no"?><!DOCTYPE svg PUBLIC "-//W3C//DTD SVG 1.1//EN" "http://www.w3.org/Graphics/SVG/1.1/DTD/svg11.dtd"><svg width="100%" height="100%" viewBox="0 0 94 38" version="1.1" xmlns="http://www.w3.org/2000/svg" xmlns:xlink="http://www.w3.org/1999/xlink" xml:space="preserve" style="fill-rule:evenodd;clip-rule:evenodd;stroke-miterlimit:10;"><path d="M89.282,11.734l-0.108,-0.415l0,-0.008l0,-0.008l-0.215,-0.369l0,-0.007l-0.3,-0.3l-0.008,0l-0.369,-0.215l-0.007,0l-0.008,0l-0.415,-0.108l-0.008,0l-0.007,0l-0.431,0l-0.007,0l-0.008,0l-0.415,0.108l-0.008,0l-0.008,0l-0.368,0.215l-0.008,0l-0.3,0.3l0,0.007l-0.215,0.369l0,0.008c0,0.008 0,0 0,0l-0.108,0.415l0,0.461l0.108,0.415l0,0.008l0.215,0.369l0,0.008l0.3,0.299l0.008,0l0,0.008l0.368,0.215l0.016,0l0.415,0.108l0.4,0l0.023,0.184c0.038,0.3 -0.17,0.577 -0.469,0.615l-4.251,0.561l-0.315,-2.382l-0.107,-0.415l0,-0.008l0,-0.008l-0.216,-0.369l0,-0.007l-0.299,-0.3l-0.008,0l0,-0.008l-0.369,-0.215l-0.008,0l-0.007,0l-0.415,-0.108l-0.008,0l-0.008,0l-0.43,0l-0.008,0l-0.008,0l-0.415,0.108l-0.007,0l-0.008,0l-0.369,0.215l0,0.008l-0.3,0.3l0,0.007l-0.215,0.369l0,0.016l-0.107,0.415l0,0.461l0.107,0.415l0,0.007l0.215,0.369l0,0.008l0.3,0.3l0.369,0.215l0.008,0l0.407,0.108l0.407,0l0.024,0.184c0.038,0.3 -0.17,0.577 -0.469,0.615l-4.251,0.561l-0.315,-2.383l-0.115,-0.415l0,-0.007l0,-0.008l-0.215,-0.369l0,-0.008l-0.3,-0.299l-0.008,0l-0.007,0l-0.369,-0.216l-0.008,0l-0.008,0l-0.415,-0.107l-0.007,0l-0.008,0l-0.431,0l-0.007,0l-0.008,0l-0.415,0.107l-0.008,0l-0.007,0l-0.369,0.216l-0.008,0l-0.008,0l-0.299,0.299l0,0.008l-0.216,0.369l0,0.015l-0.107,0.415l0,0.462l0.107,0.415l0,0.007l0.216,0.369c0,0 0,0.008 0.007,0.008l0.3,0.3l0.015,0l0.369,0.215l0.008,0l0.415,0.108l0.4,0l0.023,0.184c0.038,0.3 -0.169,0.576 -0.469,0.615l-4.25,0.561l-0.316,-2.375l-0.107,-0.415l0,-0.008l0,-0.007l-0.215,-0.369l0,-0.008l-0.3,-0.3l-0.008,0l-0.008,0l-0.368,-0.215l-0.008,0l-0.008,0l-0.415,-0.108l-0.008,0l-0.007,0l-0.431,0l-0.007,0l-0.008,0l-0.415,0.108l-0.008,0l-0.007,0l-0.369,0.215l-0.008,0l-0.008,0l-0.3,0.3l0,0.008l-0.215,0.369l0,0.007l0,0.008l-0.107,0.415l0,0.461l0.107,0.415l0,0.008l0.215,0.369l0.308,0.307l0.015,0l0.369,0.215l0.008,0l0.415,0.108l0.4,0l0.023,0.177c0.038,0.3 -0.169,0.576 -0.469,0.615l-7.825,1.03l0,-0.062l-0.007,-0.092l-0.016,-0.092l-0.023,-0.085l-0.03,-0.077l-0.031,-0.077l-0.039,-0.069l-0.046,-0.061l-0.053,-0.062l-0.062,-0.054l-0.069,-0.046l-0.069,-0.046l-0.077,-0.038l-0.085,-0.031l-0.092,-0.031l-0.1,-0.023l-0.107,-0.015l-0.116,-0.016l-0.115,-0.007l-0.123,0l-24.903,0l-0.123,0l-0.115,0.007l-0.115,0.016l-0.108,0.015l-0.1,0.023l-0.092,0.031l-0.085,0.031l-0.076,0.038l-0.077,0.046l-0.07,0.046l-0.061,0.054l-0.054,0.062l-0.046,0.061l-0.038,0.069l-0.039,0.077l-0.031,0.077l-0.023,0.085l-0.015,0.092l-0.008,0.092l0,0.062l-7.824,-1.03c-0.3,-0.039 -0.515,-0.315 -0.469,-0.615l0.023,-0.177l0.408,0l0.415,-0.108l0.007,0l0.369,-0.215l0.008,0l0.3,-0.3l0,-0.007l0.215,-0.369l0,-0.008l0.107,-0.415l0,-0.008l0,-0.007l0,-0.469l0,-0.008l0,-0.007l-0.107,-0.416l0,-0.007l0,-0.008l-0.215,-0.369l0,-0.008l-0.3,-0.299l-0.008,0l-0.369,-0.215l-0.007,0l-0.008,0l-0.415,-0.108l-0.008,0l-0.008,0l-0.43,0l-0.008,0l-0.007,0l-0.415,0.108l-0.008,0l-0.008,0l-0.369,0.215l-0.007,0l-0.3,0.299l0,0.008l-0.215,0.369l0,0.015l-0.108,0.416l-0.315,2.374l-4.25,-0.561c-0.3,-0.038 -0.515,-0.315 -0.469,-0.614l0.023,-0.185l0.407,0l0.415,-0.108l0.008,0l0.369,-0.215l0.008,0l0.299,-0.299l0,-0.008l0.215,-0.369l0,-0.008l0.108,-0.415l0,-0.008l0,-0.007l0,-0.431l0,-0.007l0,-0.008l-0.108,-0.415l0,-0.008l0,-0.007l-0.215,-0.369l0,-0.008l-0.299,-0.3l-0.008,0l-0.369,-0.215l-0.008,0l-0.007,0l-0.416,-0.108l-0.007,0l-0.008,0l-0.43,0l-0.008,0l-0.008,0l-0.415,0.108l-0.007,0l-0.008,0l-0.369,0.215l-0.3,0.3l0,0.008l-0.215,0.369l0,0.015l-0.108,0.415l-0.315,2.383l-4.25,-0.561c-0.3,-0.039 -0.515,-0.316 -0.469,-0.615l0.023,-0.185l0.407,0l0.408,-0.107l0.008,0c0.007,0 0,0 0,0l0.368,-0.216l0.008,0l0.3,-0.299l0,-0.008l0.215,-0.369l0,-0.008l0.108,-0.415l0,-0.007l0,-0.008l0,-0.43l0,-0.008l0,-0.008l-0.108,-0.415l0,-0.008l0,-0.007l-0.215,-0.369l0,-0.008l-0.3,-0.3l-0.008,-0.007l-0.368,-0.216l-0.008,0l-0.415,-0.107l-0.008,0l-0.008,0l-0.422,0l-0.008,0l-0.008,0l-0.415,0.107l-0.007,0l-0.008,0l-0.369,0.216l0,0.007l-0.3,0.3l0,0.008l-0.215,0.369l0,0.007l0,0.008l-0.108,0.415l-0.315,2.383l-4.25,-0.561c-0.3,-0.039 -0.515,-0.315 -0.469,-0.615l0.023,-0.185l0.407,0l0.416,-0.107l0.007,0l0.369,-0.215l0.008,-0.008l0.3,-0.3l0,-0.008l0.215,-0.368l0,-0.008l0.107,-0.415l0,-0.008l0,-0.008l0,-0.43l0,-0.008l0,-0.007l-0.107,-0.415l0,-0.008l-0.238,-0.323l-0.008,-0.008l-0.3,-0.307l-0.008,0l-0.369,-0.215l-0.007,0l-0.008,0l-0.415,-0.108l-0.008,0l-0.007,0l-0.423,0l-0.008,0l-0.007,0l-0.415,0.108l-0.008,0l-0.369,0.215l-0.3,0.3l0,0.007l-0.215,0.369l0,0.016l-0.108,0.415l-1.498,11.375l0,0.446l0.107,0.415l0,0.008l0.215,0.369c0,0 0,0.007 0.008,0.007l0.3,0.3l0.007,0l0.369,0.215l0.008,0l0.415,0.108l0.446,0l0.415,-0.108l0.008,0l0.369,-0.215l0.007,0l0.3,-0.3l0,-0.007l0.215,-0.369l0,-0.008l0.108,-0.415l0,-0.008l0,-0.008l0,-0.43l0,-0.008l0,-0.007l-0.108,-0.415l0,-0.008l0,-0.008l-0.215,-0.369l0,-0.007l-0.3,-0.3l-0.007,0l-0.369,-0.215l-0.008,0l-0.008,0l-0.384,-0.1c0.038,-0.3 0.315,-0.515 0.615,-0.469l4.25,0.561l-0.292,2.198l0,0.446l0.108,0.415l0,0.008l0.215,0.369l0,0.007l0.3,0.3l0.007,0l0.369,0.215l0.008,0l0.415,0.108l0.446,0l0.415,-0.108l0.008,0l0.369,-0.215l0.299,-0.3l0,-0.007l0.216,-0.369l0,-0.008l0.107,-0.415l0,-0.008l0,-0.007l0,-0.431l0,-0.007l0,-0.008l-0.107,-0.415l0,-0.008l0,-0.008l-0.216,-0.368l0,-0.008l0,-0.008l-0.299,-0.3l0,-0.007l-0.369,-0.216l-0.008,0l-0.008,0l-0.376,-0.099c0.038,-0.3 0.315,-0.508 0.615,-0.469l4.25,0.561l-0.292,2.206l0,0.438l0,0.007l0.107,0.416l0,0.007l0.216,0.369l0,0.008l0.299,0.3l0.008,0l0,0.007l0.369,0.215l0.008,0l0.415,0.108l0.446,0l0.415,-0.108l0.007,0l0.369,-0.215l0,-0.007l0.008,0l0.3,-0.3l0.007,-0.008l0.216,-0.369l0,-0.007l0.115,-0.416l0,-0.007l0,-0.008l0,-0.43l0,-0.008l0,-0.008l-0.115,-0.415l0,-0.007l0,-0.008l-0.216,-0.369l0,-0.008l-0.299,-0.299l-0.008,0l-0.369,-0.216l-0.008,0l-0.007,0l-0.385,-0.1l0,-0.007c0.039,-0.3 0.315,-0.515 0.615,-0.469l4.251,0.561l-0.239,2.221l0,0.446l0.108,0.415l0,0.008l0.215,0.369l0,0.007l0.3,0.3l0.008,0l0.368,0.215l0.008,0l0.407,0.108l0.454,0l0.415,-0.108l0.008,0l0.369,-0.215l0.007,0l0.3,-0.3l0,-0.007l0.215,-0.369l0,-0.008l0.108,-0.415l0,-0.008l0,-0.007l0,-0.431l0,-0.007l0,-0.008l-0.108,-0.415l0,-0.008l0,-0.008l-0.215,-0.369l0,-0.007l0,-0.008l-0.3,-0.3l-0.007,0l-0.369,-0.215l-0.008,0l-0.008,0l-0.376,-0.1l0,-0.007c0.038,-0.3 0.315,-0.515 0.615,-0.469l10.091,1.329l0.684,1.653l0,0.008l0.262,0.338l0.007,0.007l0.339,0.262l0.007,0l0.392,0.161l0.016,0l0.422,0.054l20.561,0l0.422,-0.054l0.016,0l0.392,-0.161l0.007,0l0.338,-0.262l0,-0.007l0.262,-0.338l0,-0.008l0.684,-1.653l10.076,-1.322c0.3,-0.038 0.577,0.169 0.615,0.469l0,0.008l-0.376,0.1l-0.008,0l-0.008,0l-0.369,0.215l-0.007,0l-0.008,0l-0.3,0.3l0,0.015l-0.215,0.369l0,0.008l0,0.007l-0.108,0.416l0,0.461l0.108,0.415l0,0.007l0.215,0.369c0,0 0,0.008 0.008,0.008l0.3,0.3l0.015,0l0.369,0.215l0.015,0l0.408,0.108l0.453,0l0.415,-0.108l0.015,0l0.369,-0.215l0.016,0l0.299,-0.3l0,-0.008c0,-0.007 0,0 0,0l0.216,-0.369l0,-0.007l0.107,-0.415l0,-0.008l0,-0.008l0,-0.438l-0.292,-2.206l4.251,-0.561c0.299,-0.038 0.576,0.169 0.614,0.469l0,0.008l-0.384,0.1l-0.007,0l-0.369,0.215l-0.008,0c-0.008,0 0,0 0,0l-0.3,0.3l0,0.007l-0.215,0.369l0,0.016l-0.108,0.415l0,0.461l0.108,0.415l0,0.008l0.215,0.369l0,0.007l0.308,0.308l0.369,0.215l0.015,0l0.415,0.107l0.446,0l0.415,-0.107l0.015,0l0.369,-0.215l0.008,-0.008l0.007,0l0.3,-0.3l0,-0.007l0.215,-0.369l0,-0.008l0.108,-0.415l0,-0.008l0,-0.008l0,-0.43l-0.292,-2.206l4.25,-0.561c0.3,-0.038 0.577,0.169 0.615,0.469l-0.376,0.1l-0.008,0l-0.008,0l-0.369,0.215l0,0.008l-0.007,0l-0.3,0.3l0,0.015l-0.215,0.369l0,0.007l0,0.008l-0.108,0.415l0,0.461l0.108,0.415l0,0.008l0.215,0.369l0,0.008l0.3,0.299l0.007,0l0.369,0.216l0.008,0l0.407,0.107l0.461,0l0.408,-0.107l0.015,0l0.369,-0.216l0.008,0l0.3,-0.299l0,-0.008l0.215,-0.369l0,-0.008l0.107,-0.415l0,-0.007l0,-0.008l0,-0.43l-0.292,-2.199l4.251,-0.561c0.299,-0.038 0.576,0.169 0.615,0.469l-0.377,0.1l-0.008,0l-0.007,0l-0.369,0.215l-0.008,0l-0.3,0.3l-0.008,0.008l-0.215,0.369l0,0.015l-0.107,0.415l0,0.461l0.107,0.415l0,0.008l0.215,0.369c0,0 0,0.008 0.008,0.008l0.3,0.299l0.008,0l0.369,0.216l0.007,0l0.415,0.107l0.446,0l0.415,-0.107l0.008,0l0.369,-0.216l0.007,0l0.3,-0.299l0,-0.008l0.215,-0.369l0,-0.008l0.108,-0.415l0,-0.007l0,-0.008l0,-0.431l-1.46,-11.39Zm-32.827,8.293l-0.008,0.069l-0.015,0.069l-0.016,0.054l-1.537,4.297l-0.008,0.015l-0.023,0.069l-0.031,0.062l-0.038,0.061l-0.046,0.054l-0.054,0.046l-0.061,0.038l-0.062,0.031l-0.069,0.023l-0.069,0.016l-0.008,0l-0.069,0.007l-0.031,0l-0.023,0l-15.795,0l-0.061,0l-0.008,0l-0.069,-0.007l-0.069,-0.016l-0.069,-0.023l-0.062,-0.031l-0.061,-0.038l-0.054,-0.046l-0.046,-0.054l-0.054,-0.046l-0.031,-0.061l-0.023,-0.062l-1.529,-4.289l0,-0.007l-0.023,-0.07l-0.016,-0.069l-0.007,-0.069l0,-0.069l0.015,-0.069l0.023,-0.069l0.031,-0.062l0.038,-0.061l0.046,-0.054l0.046,-0.046l0.054,-0.039l0.062,-0.031l0.061,-0.023l0.069,-0.015l0.069,-0.008l0.07,0l0.046,0.008l18.938,0l0.069,0.008l0.069,0.015l0.07,0.023l0.061,0.039l0.054,0.038l0.054,0.046l0.046,0.054l0.038,0.061l0.031,0.062l0.023,0.069l0.008,0.069l0.054,0.031c0,-0.008 -0.008,-0.008 0,0c-0.008,0 0,0 0,0Z" style="fill:none;stroke:#221313;stroke-width:0.48px;"/></svg>