<svg xmlns="http://www.w3.org/2000/svg" width="101.83" height="120.408" viewBox="0 0 101.83 120.408">
  <g id="Group_8" data-name="Group 8" transform="translate(-84.41 -287.658)">
    <path id="Path_464" data-name="Path 464" d="M111.111,317.221a.121.121,0,0,0,.054.1" fill="none" stroke="#040405" stroke-linecap="round" stroke-linejoin="round" stroke-width="0.75"/>
    <path id="Path_465" data-name="Path 465" d="M118.391,289.074c0,.014.026.02.035.023a.292.292,0,0,0,.043.009.49.49,0,0,0,.086.005.51.51,0,0,0,.087-.007.323.323,0,0,0,.042-.011c.008,0,.033-.012.03-.026" fill="none" stroke="#040405" stroke-linecap="round" stroke-linejoin="round" stroke-width="0.75"/>
    <path id="Path_466" data-name="Path 466" d="M89.433,295.922c-.524-.02-1.1-.054-1.617-.12a4.261,4.261,0,0,1-1.551-.43" fill="none" stroke="#040405" stroke-linecap="round" stroke-linejoin="round" stroke-width="0.75"/>
    <path id="Path_467" data-name="Path 467" d="M170.568,296.444a.448.448,0,0,1,.126.062" fill="none" stroke="#040405" stroke-linecap="round" stroke-linejoin="round" stroke-width="0.75"/>
    <path id="Path_468" data-name="Path 468" d="M118.714,289.067a.734.734,0,0,0-.322-.425" fill="none" stroke="#040405" stroke-linecap="round" stroke-linejoin="round" stroke-width="0.75"/>
    <path id="Path_469" data-name="Path 469" d="M117.622,289.966a.067.067,0,0,0,.009.021" fill="none" stroke="#040405" stroke-linecap="round" stroke-linejoin="round" stroke-width="0.75"/>
    <line id="Line_152" data-name="Line 152" x1="0.101" y2="0.032" transform="translate(171.523 296.661)" fill="none" stroke="#040405" stroke-linecap="round" stroke-linejoin="round" stroke-width="0.75"/>
    <path id="Path_470" data-name="Path 470" d="M171.475,296.261l.136.325" fill="none" stroke="#040405" stroke-linecap="round" stroke-linejoin="round" stroke-width="0.75"/>
    <path id="Path_471" data-name="Path 471" d="M169.086,295.614l.008-.009" fill="none" stroke="#040405" stroke-linecap="round" stroke-linejoin="round" stroke-width="0.75"/>
    <path id="Path_472" data-name="Path 472" d="M168.3,291.345a3.477,3.477,0,0,0-1.808.045" fill="none" stroke="#040405" stroke-linecap="round" stroke-linejoin="round" stroke-width="0.75"/>
    <path id="Path_473" data-name="Path 473" d="M171.623,296.661a.162.162,0,0,0-.012-.075" fill="none" stroke="#040405" stroke-linecap="round" stroke-linejoin="round" stroke-width="0.75"/>
    <path id="Path_474" data-name="Path 474" d="M169.093,295.6a.09.09,0,0,0-.043,0" fill="none" stroke="#040405" stroke-linecap="round" stroke-linejoin="round" stroke-width="0.75"/>
    <path id="Path_475" data-name="Path 475" d="M171.475,296.261a.126.126,0,0,0-.08-.076" fill="none" stroke="#040405" stroke-linecap="round" stroke-linejoin="round" stroke-width="0.75"/>
    <path id="Path_476" data-name="Path 476" d="M112.446,317.042a.064.064,0,0,1-.057,0" fill="none" stroke="#040405" stroke-linecap="round" stroke-linejoin="round" stroke-width="0.75"/>
    <path id="Path_477" data-name="Path 477" d="M112.545,314.756a.241.241,0,0,0-.02-.088" fill="none" stroke="#040405" stroke-linecap="round" stroke-linejoin="round" stroke-width="0.75"/>
    <path id="Path_478" data-name="Path 478" d="M112.554,316.94a.12.12,0,0,0,.043-.1" fill="none" stroke="#040405" stroke-linecap="round" stroke-linejoin="round" stroke-width="0.75"/>
    <path id="Path_479" data-name="Path 479" d="M109.975,313.34a.061.061,0,0,0-.04,0" fill="none" stroke="#040405" stroke-linecap="round" stroke-linejoin="round" stroke-width="0.75"/>
    <path id="Path_480" data-name="Path 480" d="M112.36,314.277a.172.172,0,0,0-.087-.1" fill="none" stroke="#040405" stroke-linecap="round" stroke-linejoin="round" stroke-width="0.75"/>
    <path id="Path_481" data-name="Path 481" d="M118.34,402.716a18,18,0,0,1-4.461-3.879,25.567,25.567,0,0,1-1.782-2.374,29.127,29.127,0,0,1-1.514-2.552c-.462-.878-.879-1.773-1.254-2.692s-.7-1.85-.983-2.8a26.235,26.235,0,0,1-.683-2.889,21.433,21.433,0,0,1-.322-2.948" fill="none" stroke="#040405" stroke-linecap="round" stroke-linejoin="round" stroke-width="0.75"/>
    <path id="Path_482" data-name="Path 482" d="M163.033,396.008a101.383,101.383,0,0,1-10.622,5.674q-1.374.645-2.762,1.259-.687.3-1.378.6t-1.37.576q-1.419.585-2.854,1.122-.7.261-1.4.505t-1.39.462a32.21,32.21,0,0,1-5.864,1.339,19.58,19.58,0,0,1-6-.177,25.527,25.527,0,0,1-5.72-1.852c-.86-.383-1.7-.8-2.534-1.234-.947-.5-1.877-1.022-2.8-1.565" fill="none" stroke="#040405" stroke-linecap="round" stroke-linejoin="round" stroke-width="0.75"/>
    <path id="Path_483" data-name="Path 483" d="M167.236,311.867a.475.475,0,0,0-.233.222.773.773,0,0,0-.092.312" fill="none" stroke="#040405" stroke-linecap="round" stroke-linejoin="round" stroke-width="0.75"/>
    <path id="Path_484" data-name="Path 484" d="M168.456,311.446q-.609.216-1.22.421" fill="none" stroke="#040405" stroke-linecap="round" stroke-linejoin="round" stroke-width="0.75"/>
    <path id="Path_485" data-name="Path 485" d="M104.755,313.109c-.007-.179-.009-.358,0-.536" fill="none" stroke="#040405" stroke-linecap="round" stroke-linejoin="round" stroke-width="0.75"/>
    <line id="Line_153" data-name="Line 153" y1="0.033" x2="0.118" transform="translate(104.755 313.076)" fill="none" stroke="#040405" stroke-linecap="round" stroke-linejoin="round" stroke-width="0.75"/>
    <path id="Path_486" data-name="Path 486" d="M111.165,317.326a.118.118,0,0,1-.055-.1" fill="none" stroke="#040405" stroke-linecap="round" stroke-linejoin="round" stroke-width="0.75"/>
    <path id="Path_487" data-name="Path 487" d="M111.053,315.135a.2.2,0,0,1,.018-.089" fill="none" stroke="#040405" stroke-linecap="round" stroke-linejoin="round" stroke-width="0.75"/>
    <path id="Path_488" data-name="Path 488" d="M109.419,313.241a.186.186,0,0,0-.074.008" fill="none" stroke="#040405" stroke-linecap="round" stroke-linejoin="round" stroke-width="0.75"/>
    <path id="Path_489" data-name="Path 489" d="M111.11,317.221h0" fill="none" stroke="#040405" stroke-linecap="round" stroke-linejoin="round" stroke-width="0.75"/>
    <path id="Path_490" data-name="Path 490" d="M111.054,315.135h0" fill="none" stroke="#040405" stroke-linecap="round" stroke-linejoin="round" stroke-width="0.75"/>
    <path id="Path_491" data-name="Path 491" d="M111.071,315.046h0" fill="none" stroke="#040405" stroke-linecap="round" stroke-linejoin="round" stroke-width="0.75"/>
    <path id="Path_492" data-name="Path 492" d="M111.215,317.38l.008,0" fill="none" stroke="#040405" stroke-linecap="round" stroke-linejoin="round" stroke-width="0.75"/>
    <path id="Path_493" data-name="Path 493" d="M112.525,314.668l-.165-.391" fill="none" stroke="#040405" stroke-linecap="round" stroke-linejoin="round" stroke-width="0.75"/>
    <path id="Path_494" data-name="Path 494" d="M109.419,313.241a.347.347,0,0,1,.09.021" fill="none" stroke="#040405" stroke-linecap="round" stroke-linejoin="round" stroke-width="0.75"/>
    <line id="Line_154" data-name="Line 154" y1="0.328" x2="0.322" transform="translate(108.111 313.534)" fill="none" stroke="#040405" stroke-linecap="round" stroke-linejoin="round" stroke-width="0.75"/>
    <path id="Path_495" data-name="Path 495" d="M110.222,291.005a.925.925,0,0,1-.22-.56" fill="none" stroke="#040405" stroke-linecap="round" stroke-linejoin="round" stroke-width="0.75"/>
    <line id="Line_155" data-name="Line 155" transform="translate(179.331 300.153)" fill="none" stroke="#040405" stroke-linecap="round" stroke-linejoin="round" stroke-width="0.75"/>
    <line id="Line_156" data-name="Line 156" x2="0.544" y2="0.413" transform="translate(178.309 298.796)" fill="none" stroke="#040405" stroke-linecap="round" stroke-linejoin="round" stroke-width="0.75"/>
    <path id="Path_496" data-name="Path 496" d="M178.309,298.8a1.781,1.781,0,0,0-.334-.191,4.78,4.78,0,0,0-.448-.176c-.228-.078-.6-.189-.827-.26q-.829-.254-1.662-.5-1.665-.487-3.342-.932" fill="none" stroke="#040405" stroke-linecap="round" stroke-linejoin="round" stroke-width="0.75"/>
    <path id="Path_497" data-name="Path 497" d="M178.956,301.388c-.17.184-.34.367-.509.551" fill="none" stroke="#040405" stroke-linecap="round" stroke-linejoin="round" stroke-width="0.75"/>
    <path id="Path_498" data-name="Path 498" d="M178.854,299.209a1.3,1.3,0,0,1,.364.41.961.961,0,0,1,.113.533" fill="none" stroke="#040405" stroke-linecap="round" stroke-linejoin="round" stroke-width="0.75"/>
    <path id="Path_499" data-name="Path 499" d="M179.288,300.693a1.156,1.156,0,0,1-.332.7" fill="none" stroke="#040405" stroke-linecap="round" stroke-linejoin="round" stroke-width="0.75"/>
    <path id="Path_500" data-name="Path 500" d="M90.476,296.87c.01.174.021.349.031.524" fill="none" stroke="#040405" stroke-linecap="round" stroke-linejoin="round" stroke-width="0.75"/>
    <line id="Line_157" data-name="Line 157" x2="0.026" y2="0.518" transform="translate(95.089 295.612)" fill="none" stroke="#040405" stroke-linecap="round" stroke-linejoin="round" stroke-width="0.75"/>
    <line id="Line_158" data-name="Line 158" x1="0.035" y1="0.52" transform="translate(84.809 295.959)" fill="none" stroke="#040405" stroke-linecap="round" stroke-linejoin="round" stroke-width="0.75"/>
    <path id="Path_501" data-name="Path 501" d="M85.3,295.006l.526-.4" fill="none" stroke="#040405" stroke-linecap="round" stroke-linejoin="round" stroke-width="0.75"/>
    <path id="Path_502" data-name="Path 502" d="M93.926,294.331a2.122,2.122,0,0,0-.417-.19,5.444,5.444,0,0,0-.557-.162,9.375,9.375,0,0,0-1.023-.185,11.823,11.823,0,0,0-2.077-.086,14.754,14.754,0,0,0-2.064.245,9.994,9.994,0,0,0-1.012.242,4.709,4.709,0,0,0-.553.2,1.886,1.886,0,0,0-.4.218" fill="none" stroke="#040405" stroke-linecap="round" stroke-linejoin="round" stroke-width="0.75"/>
    <path id="Path_503" data-name="Path 503" d="M89.551,295.946a.287.287,0,0,0-.118-.024" fill="none" stroke="#040405" stroke-linecap="round" stroke-linejoin="round" stroke-width="0.75"/>
    <path id="Path_504" data-name="Path 504" d="M85.677,297.742l-.54-.6" fill="none" stroke="#040405" stroke-linecap="round" stroke-linejoin="round" stroke-width="0.75"/>
    <path id="Path_505" data-name="Path 505" d="M85.677,297.742a2.014,2.014,0,0,0,.853.462,6.542,6.542,0,0,0,.958.208,18.517,18.517,0,0,0,1.954.163" fill="none" stroke="#040405" stroke-linecap="round" stroke-linejoin="round" stroke-width="0.75"/>
    <line id="Line_159" data-name="Line 159" x1="0.464" y2="0.648" transform="translate(89.917 297.828)" fill="none" stroke="#040405" stroke-linecap="round" stroke-linejoin="round" stroke-width="0.75"/>
    <path id="Path_506" data-name="Path 506" d="M96.182,307.239a19.682,19.682,0,0,0,4,3.343c.365.239.735.468,1.11.691s.753.439,1.135.649.767.415,1.155.614.778.393,1.17.583" fill="none" stroke="#040405" stroke-linecap="round" stroke-linejoin="round" stroke-width="0.75"/>
    <path id="Path_507" data-name="Path 507" d="M92.3,298.675a4.84,4.84,0,0,1,.3-2.155" fill="none" stroke="#040405" stroke-linecap="round" stroke-linejoin="round" stroke-width="0.75"/>
    <path id="Path_508" data-name="Path 508" d="M84.809,295.959a.975.975,0,0,1,.121-.539,1.315,1.315,0,0,1,.371-.414" fill="none" stroke="#040405" stroke-linecap="round" stroke-linejoin="round" stroke-width="0.75"/>
    <path id="Path_509" data-name="Path 509" d="M94.493,294.688a1.16,1.16,0,0,1,.6.924" fill="none" stroke="#040405" stroke-linecap="round" stroke-linejoin="round" stroke-width="0.75"/>
    <path id="Path_510" data-name="Path 510" d="M95.6,306.586a13.729,13.729,0,0,1-2.246-3.422,12.107,12.107,0,0,1-.7-1.93,10.048,10.048,0,0,1-.331-2.024" fill="none" stroke="#040405" stroke-linecap="round" stroke-linejoin="round" stroke-width="0.75"/>
    <path id="Path_511" data-name="Path 511" d="M90.507,297.394a.673.673,0,0,1-.126.434" fill="none" stroke="#040405" stroke-linecap="round" stroke-linejoin="round" stroke-width="0.75"/>
    <line id="Line_160" data-name="Line 160" x1="0.014" y1="0.489" transform="translate(109.989 289.957)" fill="none" stroke="#040405" stroke-linecap="round" stroke-linejoin="round" stroke-width="0.75"/>
    <path id="Path_512" data-name="Path 512" d="M118.392,288.642l.518.355" fill="none" stroke="#040405" stroke-linecap="round" stroke-linejoin="round" stroke-width="0.75"/>
    <path id="Path_513" data-name="Path 513" d="M118.392,288.642a1.8,1.8,0,0,0-.366-.186,3.987,3.987,0,0,0-.523-.158,8.893,8.893,0,0,0-.943-.163,13.9,13.9,0,0,0-1.913-.1,12.055,12.055,0,0,0-1.906.18,9.083,9.083,0,0,0-.934.214,4.784,4.784,0,0,0-.509.176,1.922,1.922,0,0,0-.369.2" fill="none" stroke="#040405" stroke-linecap="round" stroke-linejoin="round" stroke-width="0.75"/>
    <path id="Path_514" data-name="Path 514" d="M111.3,289.36a.659.659,0,0,1-.187-.174.209.209,0,0,1-.037-.181.39.39,0,0,1,.15-.178,1.616,1.616,0,0,1,.3-.166,4.024,4.024,0,0,1,.443-.16c.178-.055.359-.1.541-.141a10.265,10.265,0,0,1,1.016-.171c.342-.041.684-.064,1.028-.072a12.529,12.529,0,0,1,2.057.118c.183.026.364.057.545.1a4.6,4.6,0,0,1,.461.123,2.082,2.082,0,0,1,.335.14,1.128,1.128,0,0,1,.228.154.624.624,0,0,1,.2.326" fill="none" stroke="#040405" stroke-linecap="round" stroke-linejoin="round" stroke-width="0.75"/>
    <path id="Path_515" data-name="Path 515" d="M110.7,291.59l-.479-.585" fill="none" stroke="#040405" stroke-linecap="round" stroke-linejoin="round" stroke-width="0.75"/>
    <path id="Path_516" data-name="Path 516" d="M110.7,291.59a1.124,1.124,0,0,0,.326.248,3.112,3.112,0,0,0,.521.224,5.77,5.77,0,0,0,.692.19,7.969,7.969,0,0,0,.867.134c.653.069,1.356.082,2.011.084.345,0,.689,0,1.033,0s.687,0,1.031,0q1.668.01,3.335.062c1.105.033,2.21.078,3.315.128s2.221.107,3.331.167,2.208.126,3.312.2q3.319.211,6.635.485t6.625.629q1.657.18,3.313.388.825.1,1.65.215t1.636.229q1.667.241,3.326.518.816.136,1.629.28t1.607.294q1.647.311,3.287.654,1.615.339,3.225.708" fill="none" stroke="#040405" stroke-linecap="round" stroke-linejoin="round" stroke-width="0.75"/>
    <path id="Path_517" data-name="Path 517" d="M118.91,289a1.361,1.361,0,0,1,.581.793" fill="none" stroke="#040405" stroke-linecap="round" stroke-linejoin="round" stroke-width="0.75"/>
    <path id="Path_518" data-name="Path 518" d="M175.3,301.7a1.369,1.369,0,0,1,.582-.953" fill="none" stroke="#040405" stroke-linecap="round" stroke-linejoin="round" stroke-width="0.75"/>
    <path id="Path_519" data-name="Path 519" d="M168.207,295.858a.062.062,0,0,1,.033,0" fill="none" stroke="#040405" stroke-linecap="round" stroke-linejoin="round" stroke-width="0.75"/>
    <path id="Path_520" data-name="Path 520" d="M169.05,295.605a.08.08,0,0,0-.045.034" fill="none" stroke="#040405" stroke-linecap="round" stroke-linejoin="round" stroke-width="0.75"/>
    <line id="Line_161" data-name="Line 161" x1="7.472" y2="83.205" transform="translate(178.36 297.826)" fill="none" stroke="#040405" stroke-linecap="round" stroke-linejoin="round" stroke-width="0.75"/>
    <path id="Path_521" data-name="Path 521" d="M185.832,297.826a1.19,1.19,0,0,0-.295-.86,2.648,2.648,0,0,0-.458-.44,5.477,5.477,0,0,0-.694-.453c-.31-.174-.629-.328-.954-.472-.407-.18-.82-.344-1.238-.5-1.419-.525-3.123-1.026-4.579-1.429-1.542-.426-3.092-.822-4.644-1.207s-3.108-.756-4.666-1.122" fill="none" stroke="#040405" stroke-linecap="round" stroke-linejoin="round" stroke-width="0.75"/>
    <path id="Path_522" data-name="Path 522" d="M178.36,381.031a4.315,4.315,0,0,1-.318,1.239,7.639,7.639,0,0,1-.683,1.269,17.428,17.428,0,0,1-1.694,2.133c-.612.673-1.253,1.315-1.911,1.943s-1.33,1.238-2.015,1.837c-1.352,1.184-2.794,2.358-4.227,3.443-1.452,1.1-2.939,2.14-4.479,3.113" fill="none" stroke="#040405" stroke-linecap="round" stroke-linejoin="round" stroke-width="0.75"/>
    <line id="Line_162" data-name="Line 162" x1="0.051" y2="0.573" transform="translate(185.64 297.817)" fill="none" stroke="#040405" stroke-linecap="round" stroke-linejoin="round" stroke-width="0.75"/>
    <path id="Path_523" data-name="Path 523" d="M185.691,297.817a1.171,1.171,0,0,0-.294-.855,2.665,2.665,0,0,0-.457-.437,5.513,5.513,0,0,0-.693-.45c-.309-.173-.627-.325-.95-.468-.407-.18-.819-.342-1.235-.5-1.414-.521-3.111-1.02-4.562-1.421-2.869-.793-6.378-1.64-9.274-2.322" fill="none" stroke="#040405" stroke-linecap="round" stroke-linejoin="round" stroke-width="0.75"/>
    <path id="Path_524" data-name="Path 524" d="M108.224,316.178a.154.154,0,0,1-.091-.136" fill="none" stroke="#040405" stroke-linecap="round" stroke-linejoin="round" stroke-width="0.75"/>
    <path id="Path_525" data-name="Path 525" d="M108.067,313.975a.15.15,0,0,1,.044-.113" fill="none" stroke="#040405" stroke-linecap="round" stroke-linejoin="round" stroke-width="0.75"/>
    <path id="Path_526" data-name="Path 526" d="M108.432,313.534a.147.147,0,0,1,.067-.039" fill="none" stroke="#040405" stroke-linecap="round" stroke-linejoin="round" stroke-width="0.75"/>
    <line id="Line_163" data-name="Line 163" y1="0.246" x2="0.846" transform="translate(108.499 313.249)" fill="none" stroke="#040405" stroke-linecap="round" stroke-linejoin="round" stroke-width="0.75"/>
    <path id="Path_527" data-name="Path 527" d="M108.729,316.41l-.007,0" fill="none" stroke="#040405" stroke-linecap="round" stroke-linejoin="round" stroke-width="0.75"/>
    <path id="Path_528" data-name="Path 528" d="M109.935,313.338a.068.068,0,0,0-.04.036" fill="none" stroke="#040405" stroke-linecap="round" stroke-linejoin="round" stroke-width="0.75"/>
    <path id="Path_529" data-name="Path 529" d="M112.315,317.084l.013-.006" fill="none" stroke="#040405" stroke-linecap="round" stroke-linejoin="round" stroke-width="0.75"/>
    <path id="Path_530" data-name="Path 530" d="M111.324,317.387l.013-.006" fill="none" stroke="#040405" stroke-linecap="round" stroke-linejoin="round" stroke-width="0.75"/>
    <line id="Line_164" data-name="Line 164" x1="2.389" y2="0.873" transform="translate(168.089 314.131)" fill="none" stroke="#040405" stroke-linecap="round" stroke-linejoin="round" stroke-width="0.75"/>
    <path id="Path_531" data-name="Path 531" d="M170.782,313.729a.464.464,0,0,1-.3.4" fill="none" stroke="#040405" stroke-linecap="round" stroke-linejoin="round" stroke-width="0.75"/>
    <path id="Path_532" data-name="Path 532" d="M170.6,311.267a.446.446,0,0,1,.318.459" fill="none" stroke="#040405" stroke-linecap="round" stroke-linejoin="round" stroke-width="0.75"/>
    <path id="Path_533" data-name="Path 533" d="M168.089,315a.453.453,0,0,1-.293.008" fill="none" stroke="#040405" stroke-linecap="round" stroke-linejoin="round" stroke-width="0.75"/>
    <line id="Line_165" data-name="Line 165" x1="0.856" y1="0.265" transform="translate(166.939 314.747)" fill="none" stroke="#040405" stroke-linecap="round" stroke-linejoin="round" stroke-width="0.75"/>
    <path id="Path_534" data-name="Path 534" d="M166.939,314.747a.191.191,0,0,0,.118-.005" fill="none" stroke="#040405" stroke-linecap="round" stroke-linejoin="round" stroke-width="0.75"/>
    <path id="Path_535" data-name="Path 535" d="M107.241,308.163a2.7,2.7,0,0,1,1.623.1" fill="none" stroke="#040405" stroke-linecap="round" stroke-linejoin="round" stroke-width="0.75"/>
    <path id="Path_536" data-name="Path 536" d="M166.5,291.39l-.039.012" fill="none" stroke="#040405" stroke-linecap="round" stroke-linejoin="round" stroke-width="0.75"/>
    <path id="Path_537" data-name="Path 537" d="M111.165,317.326h0" fill="none" stroke="#040405" stroke-linecap="round" stroke-linejoin="round" stroke-width="0.75"/>
    <path id="Path_538" data-name="Path 538" d="M119.459,290.017q-.914-.021-1.828-.03" fill="none" stroke="#040405" stroke-linecap="round" stroke-linejoin="round" stroke-width="0.75"/>
    <path id="Path_539" data-name="Path 539" d="M112.49,317.015l-.044.027" fill="none" stroke="#040405" stroke-linecap="round" stroke-linejoin="round" stroke-width="0.75"/>
    <path id="Path_540" data-name="Path 540" d="M117.622,289.987v-.021" fill="none" stroke="#040405" stroke-linecap="round" stroke-linejoin="round" stroke-width="0.75"/>
    <path id="Path_541" data-name="Path 541" d="M119.508,289.951l0-.014" fill="none" stroke="#040405" stroke-linecap="round" stroke-linejoin="round" stroke-width="0.75"/>
    <path id="Path_542" data-name="Path 542" d="M119.459,290.016a.123.123,0,0,0,.049-.065" fill="none" stroke="#040405" stroke-linecap="round" stroke-linejoin="round" stroke-width="0.75"/>
    <path id="Path_543" data-name="Path 543" d="M178.317,380.131a3.236,3.236,0,0,1,.043.9" fill="none" stroke="#040405" stroke-linecap="round" stroke-linejoin="round" stroke-width="0.75"/>
    <line id="Line_166" data-name="Line 166" x1="0.004" y2="0.07" transform="translate(162.866 308.6)" fill="none" stroke="#040405" stroke-linecap="round" stroke-linejoin="round" stroke-width="0.75"/>
    <path id="Path_544" data-name="Path 544" d="M179.556,302.327c1.111-.546,2.375-1.2,3.433-1.848a14.187,14.187,0,0,0,1.6-1.109,4.931,4.931,0,0,0,.695-.683,1.663,1.663,0,0,0,.4-.87" fill="none" stroke="#040405" stroke-linecap="round" stroke-linejoin="round" stroke-width="0.75"/>
    <path id="Path_545" data-name="Path 545" d="M105.191,310.153a3.91,3.91,0,0,1,.736-1.213,2.5,2.5,0,0,1,1.194-.745" fill="none" stroke="#040405" stroke-linecap="round" stroke-linejoin="round" stroke-width="0.75"/>
    <path id="Path_546" data-name="Path 546" d="M111.311,317.389a.113.113,0,0,0,.026-.008" fill="none" stroke="#040405" stroke-linecap="round" stroke-linejoin="round" stroke-width="0.75"/>
    <path id="Path_547" data-name="Path 547" d="M111.311,317.389l.013,0" fill="none" stroke="#040405" stroke-linecap="round" stroke-linejoin="round" stroke-width="0.75"/>
    <path id="Path_548" data-name="Path 548" d="M94.413,298.928h0" fill="none" stroke="#040405" stroke-linecap="round" stroke-linejoin="round" stroke-width="0.75"/>
    <line id="Line_167" data-name="Line 167" x1="0.043" y2="0.541" transform="translate(179.288 300.153)" fill="none" stroke="#040405" stroke-linecap="round" stroke-linejoin="round" stroke-width="0.75"/>
    <path id="Path_549" data-name="Path 549" d="M177.43,301.574l-.513-.386" fill="none" stroke="#040405" stroke-linecap="round" stroke-linejoin="round" stroke-width="0.75"/>
    <path id="Path_550" data-name="Path 550" d="M178.447,301.939l-.005,0" fill="none" stroke="#040405" stroke-linecap="round" stroke-linejoin="round" stroke-width="0.75"/>
    <path id="Path_551" data-name="Path 551" d="M179.556,302.327c-.373-.12-.743-.247-1.109-.388" fill="none" stroke="#040405" stroke-linecap="round" stroke-linejoin="round" stroke-width="0.75"/>
    <path id="Path_552" data-name="Path 552" d="M179.667,302.362l-.111-.035" fill="none" stroke="#040405" stroke-linecap="round" stroke-linejoin="round" stroke-width="0.75"/>
    <path id="Path_553" data-name="Path 553" d="M171.523,296.693q-.477-.126-.955-.249" fill="none" stroke="#040405" stroke-linecap="round" stroke-linejoin="round" stroke-width="0.75"/>
    <path id="Path_554" data-name="Path 554" d="M177.322,302.585l.068-.075" fill="none" stroke="#040405" stroke-linecap="round" stroke-linejoin="round" stroke-width="0.75"/>
    <path id="Path_555" data-name="Path 555" d="M178.447,301.939l-.066.07" fill="none" stroke="#040405" stroke-linecap="round" stroke-linejoin="round" stroke-width="0.75"/>
    <path id="Path_556" data-name="Path 556" d="M179.331,300.152h0" fill="none" stroke="#040405" stroke-linecap="round" stroke-linejoin="round" stroke-width="0.75"/>
    <line id="Line_168" data-name="Line 168" y1="0.003" transform="translate(94.385 298.396)" fill="none" stroke="#040405" stroke-linecap="round" stroke-linejoin="round" stroke-width="0.75"/>
    <path id="Path_557" data-name="Path 557" d="M93.928,294.332l.066.042.068.042.067.042.068.042.067.042.067.042.067.042.067.042.027.017" fill="none" stroke="#040405" stroke-linecap="round" stroke-linejoin="round" stroke-width="0.75"/>
    <path id="Path_558" data-name="Path 558" d="M90.115,296.294a9.617,9.617,0,0,1,1.247.034,9.014,9.014,0,0,1,1.232.192" fill="none" stroke="#040405" stroke-linecap="round" stroke-linejoin="round" stroke-width="0.75"/>
    <path id="Path_559" data-name="Path 559" d="M90.13,296.3a.716.716,0,0,1,.346.567" fill="none" stroke="#040405" stroke-linecap="round" stroke-linejoin="round" stroke-width="0.75"/>
    <line id="Line_169" data-name="Line 169" y1="0.415" x2="0.031" transform="translate(175.268 301.702)" fill="none" stroke="#040405" stroke-linecap="round" stroke-linejoin="round" stroke-width="0.75"/>
    <path id="Path_560" data-name="Path 560" d="M110.425,289.17l.5-.368" fill="none" stroke="#040405" stroke-linecap="round" stroke-linejoin="round" stroke-width="0.75"/>
    <path id="Path_561" data-name="Path 561" d="M111.8,289.7l-.5-.336" fill="none" stroke="#040405" stroke-linecap="round" stroke-linejoin="round" stroke-width="0.75"/>
    <path id="Path_562" data-name="Path 562" d="M119.51,289.936l0-.014" fill="none" stroke="#040405" stroke-linecap="round" stroke-linejoin="round" stroke-width="0.75"/>
    <path id="Path_563" data-name="Path 563" d="M177.251,299.84a.289.289,0,0,0-.042.082" fill="none" stroke="#040405" stroke-linecap="round" stroke-linejoin="round" stroke-width="0.75"/>
    <path id="Path_564" data-name="Path 564" d="M114.613,289.979c.219-.006.437,0,.656,0" fill="none" stroke="#040405" stroke-linecap="round" stroke-linejoin="round" stroke-width="0.75"/>
    <line id="Line_170" data-name="Line 170" y1="0.25" x2="0.832" transform="translate(168.219 295.605)" fill="none" stroke="#040405" stroke-linecap="round" stroke-linejoin="round" stroke-width="0.75"/>
    <line id="Line_171" data-name="Line 171" x1="2.485" y1="0.97" transform="translate(108.729 316.41)" fill="none" stroke="#040405" stroke-linecap="round" stroke-linejoin="round" stroke-width="0.75"/>
    <line id="Line_172" data-name="Line 172" y1="0.042" x2="0.141" transform="translate(109.794 313.338)" fill="none" stroke="#040405" stroke-linecap="round" stroke-linejoin="round" stroke-width="0.75"/>
    <line id="Line_173" data-name="Line 173" y1="0.022" x2="0.072" transform="translate(166.424 291.39)" fill="none" stroke="#040405" stroke-linecap="round" stroke-linejoin="round" stroke-width="0.75"/>
    <path id="Path_565" data-name="Path 565" d="M168.24,295.86q-2.264-.553-4.539-1.057" fill="none" stroke="#040405" stroke-linecap="round" stroke-linejoin="round" stroke-width="0.75"/>
    <path id="Path_566" data-name="Path 566" d="M163.7,294.8q-1.35-.3-2.7-.577-1.372-.282-2.75-.542t-2.733-.492q-1.377-.235-2.76-.448t-2.742-.4q-1.387-.191-2.776-.359t-2.755-.315q-1.391-.15-2.785-.283t-2.763-.251q-1.394-.118-2.787-.226-2.778-.215-5.558-.386t-5.562-.3q-1.386-.066-2.773-.119t-2.794-.086" fill="none" stroke="#040405" stroke-linecap="round" stroke-linejoin="round" stroke-width="0.75"/>
    <path id="Path_567" data-name="Path 567" d="M117.631,289.987q-.8-.008-1.606-.005c-.535,0-1.07.005-1.605-.007a12.072,12.072,0,0,1-1.6-.121,5.816,5.816,0,0,1-.782-.177,3.908,3.908,0,0,1-.421-.151,1.924,1.924,0,0,1-.314-.166" fill="none" stroke="#040405" stroke-linecap="round" stroke-linejoin="round" stroke-width="0.75"/>
    <path id="Path_568" data-name="Path 568" d="M105.192,310.153c-.342-.161-.682-.324-1.02-.492s-.675-.338-1.009-.513c-.669-.35-1.328-.717-1.975-1.107" fill="none" stroke="#040405" stroke-linecap="round" stroke-linejoin="round" stroke-width="0.75"/>
    <path id="Path_569" data-name="Path 569" d="M89.344,296.018a.632.632,0,0,0,.13-.009.274.274,0,0,0,.062-.018c.023-.01.043-.028.015-.045" fill="none" stroke="#040405" stroke-linecap="round" stroke-linejoin="round" stroke-width="0.75"/>
    <path id="Path_570" data-name="Path 570" d="M89.442,298.575a1.366,1.366,0,0,0,.247-.013c.049-.008.191-.034.228-.086" fill="none" stroke="#040405" stroke-linecap="round" stroke-linejoin="round" stroke-width="0.75"/>
    <path id="Path_571" data-name="Path 571" d="M119.508,289.922v.1" fill="none" stroke="#040405" stroke-linecap="round" stroke-linejoin="round" stroke-width="0.75"/>
    <line id="Line_174" data-name="Line 174" y1="0.182" x2="0.012" transform="translate(171.611 296.661)" fill="none" stroke="#040405" stroke-linecap="round" stroke-linejoin="round" stroke-width="0.75"/>
    <path id="Path_572" data-name="Path 572" d="M168.75,306.865a93.665,93.665,0,0,0,9.122-3.648c1.417-.655,3.026-1.443,4.387-2.211.381-.215.758-.436,1.128-.669.324-.2.641-.415.949-.643.206-.152.4-.311.6-.482a4.328,4.328,0,0,0,.459-.469,2.327,2.327,0,0,0,.307-.461,1.3,1.3,0,0,0,.134-.456" fill="none" stroke="#040405" stroke-linecap="round" stroke-linejoin="round" stroke-width="0.75"/>
    <path id="Path_573" data-name="Path 573" d="M169.635,311.019q-.588.217-1.179.427" fill="none" stroke="#040405" stroke-linecap="round" stroke-linejoin="round" stroke-width="0.75"/>
    <path id="Path_574" data-name="Path 574" d="M169.884,311.282c0-.092-.032-.236-.144-.269" fill="none" stroke="#040405" stroke-linecap="round" stroke-linejoin="round" stroke-width="0.75"/>
    <path id="Path_575" data-name="Path 575" d="M171.4,296.185q-1.15-.294-2.3-.581" fill="none" stroke="#040405" stroke-linecap="round" stroke-linejoin="round" stroke-width="0.75"/>
    <line id="Line_175" data-name="Line 175" x1="0.618" y2="11.268" transform="translate(162.79 297.424)" fill="none" stroke="#040405" stroke-linecap="round" stroke-linejoin="round" stroke-width="0.75"/>
    <path id="Path_576" data-name="Path 576" d="M168.631,306.831q2.8-.948,5.534-2.08c1.781-.735,3.661-1.574,5.391-2.424" fill="none" stroke="#040405" stroke-linecap="round" stroke-linejoin="round" stroke-width="0.75"/>
    <path id="Path_577" data-name="Path 577" d="M168.226,291.368a3.48,3.48,0,0,0-1.809.046" fill="none" stroke="#040405" stroke-linecap="round" stroke-linejoin="round" stroke-width="0.75"/>
    <path id="Path_578" data-name="Path 578" d="M107.181,308.18l.06-.017" fill="none" stroke="#040405" stroke-linecap="round" stroke-linejoin="round" stroke-width="0.75"/>
    <path id="Path_579" data-name="Path 579" d="M108.864,308.265c2.174.78,4.354,1.539,6.551,2.252s4.411,1.378,6.647,1.939a53.713,53.713,0,0,0,6.8,1.286,42.071,42.071,0,0,0,6.9.242,61.239,61.239,0,0,0,6.878-.741c2.252-.358,4.571-.817,6.8-1.3,4.254-.92,9.245-2.159,13.433-3.345" fill="none" stroke="#040405" stroke-linecap="round" stroke-linejoin="round" stroke-width="0.75"/>
    <path id="Path_580" data-name="Path 580" d="M162.871,308.6c1.9-.537,3.891-1.137,5.76-1.769" fill="none" stroke="#040405" stroke-linecap="round" stroke-linejoin="round" stroke-width="0.75"/>
    <line id="Line_176" data-name="Line 176" x1="0.052" y1="2.08" transform="translate(112.545 314.756)" fill="none" stroke="#040405" stroke-linecap="round" stroke-linejoin="round" stroke-width="0.75"/>
    <path id="Path_581" data-name="Path 581" d="M112.272,317.082a.063.063,0,0,0,.043,0" fill="none" stroke="#040405" stroke-linecap="round" stroke-linejoin="round" stroke-width="0.75"/>
    <path id="Path_582" data-name="Path 582" d="M112.273,314.182q-1.152-.416-2.3-.842" fill="none" stroke="#040405" stroke-linecap="round" stroke-linejoin="round" stroke-width="0.75"/>
    <line id="Line_177" data-name="Line 177" x1="2.586" y1="69.472" transform="translate(104.755 313.109)" fill="none" stroke="#040405" stroke-linecap="round" stroke-linejoin="round" stroke-width="0.75"/>
    <path id="Path_583" data-name="Path 583" d="M166.787,314.415a.452.452,0,0,0,.023.193.21.21,0,0,0,.129.139" fill="none" stroke="#040405" stroke-linecap="round" stroke-linejoin="round" stroke-width="0.75"/>
    <line id="Line_178" data-name="Line 178" x1="0.124" y2="2.014" transform="translate(166.787 312.401)" fill="none" stroke="#040405" stroke-linecap="round" stroke-linejoin="round" stroke-width="0.75"/>
    <path id="Path_584" data-name="Path 584" d="M108.744,308.3c2.414.867,4.848,1.713,7.293,2.493q.511.163,1.026.322.5.154.994.3.95.285,1.9.551c1.16.323,2.324.623,3.5.89A48.013,48.013,0,0,0,131.071,314q.984.063,1.97.079.965.016,1.928-.011c1.269-.034,2.531-.122,3.794-.252s2.518-.3,3.771-.495c.637-.1,1.273-.208,1.909-.32s1.287-.235,1.929-.36q.933-.182,1.862-.376t1.879-.4q1.9-.417,3.791-.869t3.769-.93q1.854-.473,3.7-.977.977-.267,1.95-.545.946-.27,1.89-.553c1.185-.355,2.365-.726,3.538-1.123" fill="none" stroke="#040405" stroke-linecap="round" stroke-linejoin="round" stroke-width="0.75"/>
    <path id="Path_585" data-name="Path 585" d="M104.75,312.573a7.006,7.006,0,0,1,.441-2.42" fill="none" stroke="#040405" stroke-linecap="round" stroke-linejoin="round" stroke-width="0.75"/>
    <path id="Path_586" data-name="Path 586" d="M111.223,317.383a.147.147,0,0,0,.088.006" fill="none" stroke="#040405" stroke-linecap="round" stroke-linejoin="round" stroke-width="0.75"/>
    <line id="Line_179" data-name="Line 179" x2="0.305" y2="0.127" transform="translate(109.509 313.262)" fill="none" stroke="#040405" stroke-linecap="round" stroke-linejoin="round" stroke-width="0.75"/>
    <path id="Path_587" data-name="Path 587" d="M112.328,317.078l.226-.138" fill="none" stroke="#040405" stroke-linecap="round" stroke-linejoin="round" stroke-width="0.75"/>
    <path id="Path_588" data-name="Path 588" d="M85.137,297.138a1.1,1.1,0,0,1-.293-.659" fill="none" stroke="#040405" stroke-linecap="round" stroke-linejoin="round" stroke-width="0.75"/>
    <path id="Path_589" data-name="Path 589" d="M95.115,296.13a1.378,1.378,0,0,1-.175.7c-.056.108-.119.212-.176.32a3.018,3.018,0,0,0-.154.331,3.277,3.277,0,0,0-.2,1.436" fill="none" stroke="#040405" stroke-linecap="round" stroke-linejoin="round" stroke-width="0.75"/>
    <path id="Path_590" data-name="Path 590" d="M176.917,301.188c-.293-.221-.374-.439-.091-.716a2.141,2.141,0,0,1,.346-.262c.122-.079.246-.153.37-.228a6.185,6.185,0,0,0,.724-.481,1.068,1.068,0,0,0,.166-.17.391.391,0,0,0,.082-.176.273.273,0,0,0-.037-.181.637.637,0,0,0-.168-.179" fill="none" stroke="#040405" stroke-linecap="round" stroke-linejoin="round" stroke-width="0.75"/>
    <path id="Path_591" data-name="Path 591" d="M166.417,291.414a3.714,3.714,0,0,0-1.88,1.345,5.2,5.2,0,0,0-.928,2.138" fill="none" stroke="#040405" stroke-linecap="round" stroke-linejoin="round" stroke-width="0.75"/>
    <path id="Path_592" data-name="Path 592" d="M178.442,301.937c-.265-.1-.527-.211-.784-.332a4.865,4.865,0,0,1-.741-.417" fill="none" stroke="#040405" stroke-linecap="round" stroke-linejoin="round" stroke-width="0.75"/>
    <path id="Path_593" data-name="Path 593" d="M171.7,296.739l-.173-.046" fill="none" stroke="#040405" stroke-linecap="round" stroke-linejoin="round" stroke-width="0.75"/>
    <path id="Path_594" data-name="Path 594" d="M92.328,299.21l0-.044,0-.045,0-.045,0-.045,0-.045,0-.045,0-.045,0-.045,0-.045,0-.045,0-.045,0-.04" fill="none" stroke="#040405" stroke-linecap="round" stroke-linejoin="round" stroke-width="0.75"/>
    <line id="Line_180" data-name="Line 180" x1="0.025" y1="0.484" transform="translate(94.388 298.444)" fill="none" stroke="#040405" stroke-linecap="round" stroke-linejoin="round" stroke-width="0.75"/>
    <path id="Path_595" data-name="Path 595" d="M101.817,308.421l-.629-.38" fill="none" stroke="#040405" stroke-linecap="round" stroke-linejoin="round" stroke-width="0.75"/>
    <path id="Path_596" data-name="Path 596" d="M101.188,308.041c-.608-.366-1.2-.752-1.781-1.165a19.82,19.82,0,0,1-1.665-1.325,13.823,13.823,0,0,1-2.724-3.25q-.28-.471-.519-.964-.225-.467-.407-.95a10.1,10.1,0,0,1-.543-2.053,7.914,7.914,0,0,1-.09-1.065,3.988,3.988,0,0,1,.117-1.049,3.452,3.452,0,0,1,.165-.484c.035-.082.072-.162.113-.241s.086-.16.133-.239a1.4,1.4,0,0,0,.209-.476.378.378,0,0,0-.045-.233.646.646,0,0,0-.225-.216" fill="none" stroke="#040405" stroke-linecap="round" stroke-linejoin="round" stroke-width="0.75"/>
    <path id="Path_597" data-name="Path 597" d="M85.827,294.608a.624.624,0,0,0-.206.238.31.31,0,0,0,0,.241.549.549,0,0,0,.141.2,1.27,1.27,0,0,0,.264.183,3.846,3.846,0,0,0,1.073.34,16.329,16.329,0,0,0,2.249.212" fill="none" stroke="#040405" stroke-linecap="round" stroke-linejoin="round" stroke-width="0.75"/>
    <line id="Line_181" data-name="Line 181" x2="0.564" y2="0.348" transform="translate(89.551 295.946)" fill="none" stroke="#040405" stroke-linecap="round" stroke-linejoin="round" stroke-width="0.75"/>
    <line id="Line_182" data-name="Line 182" x2="0.015" y2="0.009" transform="translate(90.115 296.294)" fill="none" stroke="#040405" stroke-linecap="round" stroke-linejoin="round" stroke-width="0.75"/>
    <path id="Path_598" data-name="Path 598" d="M86.265,295.372a.885.885,0,0,1-.244-.208.336.336,0,0,1-.077-.22.368.368,0,0,1,.108-.225,1.113,1.113,0,0,1,.306-.217,3.385,3.385,0,0,1,.485-.2c.2-.066.4-.121.6-.17a12.63,12.63,0,0,1,1.445-.256c.339-.041.678-.07,1.02-.085s.68-.012,1.02.006q.473.025.94.092c.271.038.541.087.808.15.152.036.3.077.451.125a2.653,2.653,0,0,1,.364.145.911.911,0,0,1,.243.166.373.373,0,0,1,.1.179.575.575,0,0,1-.079.375c-.032.065-.069.127-.106.19s-.074.125-.109.189a3.564,3.564,0,0,0-.439,1.544,7.78,7.78,0,0,0,.152,1.828,10.423,10.423,0,0,0,.564,1.887,11.968,11.968,0,0,0,.8,1.619,12.818,12.818,0,0,0,1.148,1.643,16.219,16.219,0,0,0,2.756,2.617,36.318,36.318,0,0,0,6.59,3.8" fill="none" stroke="#040405" stroke-linecap="round" stroke-linejoin="round" stroke-width="0.75"/>
    <path id="Path_599" data-name="Path 599" d="M96.182,307.239l-.581-.653" fill="none" stroke="#040405" stroke-linecap="round" stroke-linejoin="round" stroke-width="0.75"/>
    <path id="Path_600" data-name="Path 600" d="M92.594,296.52a4.563,4.563,0,0,1,.234-.495c.044-.08.091-.159.137-.237.024-.04.047-.079.068-.12a.406.406,0,0,0,.029-.064v0l0,.012a.29.29,0,0,0,0,.051" fill="none" stroke="#040405" stroke-linecap="round" stroke-linejoin="round" stroke-width="0.75"/>
    <path id="Path_601" data-name="Path 601" d="M94.385,298.4a9.335,9.335,0,0,0,.779,3.134,12.072,12.072,0,0,0,1.677,2.767,18.614,18.614,0,0,0,4.973,4.119" fill="none" stroke="#040405" stroke-linecap="round" stroke-linejoin="round" stroke-width="0.75"/>
    <path id="Path_602" data-name="Path 602" d="M110.929,288.8c-.124.091-.238.214-.146.379a.641.641,0,0,0,.178.185,1.767,1.767,0,0,0,.3.172,3.46,3.46,0,0,0,.407.158c.166.055.334.1.5.139a8.444,8.444,0,0,0,1.3.183c.5.037,1,.046,1.5.048s1.02,0,1.53,0q1.521,0,3.041.038c1.574.036,3.147.1,4.72.17s3.118.151,4.676.241,3.139.191,4.707.3,3.118.229,4.675.36,3.133.276,4.7.435,3.107.333,4.658.526q2.356.294,4.705.651,1.159.177,2.315.37,1.14.19,2.277.4,1.172.213,2.34.443t2.31.47q2.283.482,4.554,1.018,1.16.273,2.317.558t2.3.583q1.134.3,2.263.61,1.113.311,2.221.639.8.237,1.59.483a7.35,7.35,0,0,1,.735.257,2.162,2.162,0,0,1,.284.144.8.8,0,0,1,.186.153.259.259,0,0,1,.045.311.987.987,0,0,1-.274.287c-.24.185-.591.383-.848.54a4.514,4.514,0,0,0-.41.275.94.94,0,0,0-.267.3.335.335,0,0,0,0,.318.621.621,0,0,0,.125.163,1.438,1.438,0,0,0,.2.159,4.544,4.544,0,0,0,.543.309c.213.106.43.2.649.294.505.209,1.018.387,1.538.552" fill="none" stroke="#040405" stroke-linecap="round" stroke-linejoin="round" stroke-width="0.75"/>
    <path id="Path_603" data-name="Path 603" d="M163.408,297.425q1.573.36,3.141.745t3.128.795q1.562.411,3.113.855t3.091.93" fill="none" stroke="#040405" stroke-linecap="round" stroke-linejoin="round" stroke-width="0.75"/>
    <path id="Path_604" data-name="Path 604" d="M119.491,289.791a.649.649,0,0,1,.019.146" fill="none" stroke="#040405" stroke-linecap="round" stroke-linejoin="round" stroke-width="0.75"/>
    <path id="Path_605" data-name="Path 605" d="M175.881,300.749a6.773,6.773,0,0,1,.688-.45c.118-.071.235-.141.351-.215.058-.037.115-.075.172-.114.038-.027.075-.055.11-.085a.417.417,0,0,0,.049-.045" fill="none" stroke="#040405" stroke-linecap="round" stroke-linejoin="round" stroke-width="0.75"/>
    <path id="Path_606" data-name="Path 606" d="M109.989,289.957a.827.827,0,0,1,.116-.448,1.15,1.15,0,0,1,.32-.339" fill="none" stroke="#040405" stroke-linecap="round" stroke-linejoin="round" stroke-width="0.75"/>
    <path id="Path_607" data-name="Path 607" d="M168.263,306.954A19.923,19.923,0,0,0,170.8,305.2a14.612,14.612,0,0,0,1.142-1.04,3.329,3.329,0,0,0,.279-.314,1.266,1.266,0,0,0,.159-.261,2.05,2.05,0,0,0,.091-.3,2.215,2.215,0,0,1,.17-.474,1.325,1.325,0,0,1,.417-.484,1.716,1.716,0,0,1,.841-.288,4.28,4.28,0,0,1,.784,0,7.042,7.042,0,0,1,.751.111c.411.081,1.1.245,1.506.343q.75.182,1.5.375" fill="none" stroke="#040405" stroke-linecap="round" stroke-linejoin="round" stroke-width="0.75"/>
    <line id="Line_183" data-name="Line 183" x1="0.066" y1="2.067" transform="translate(108.067 313.975)" fill="none" stroke="#040405" stroke-linecap="round" stroke-linejoin="round" stroke-width="0.75"/>
    <line id="Line_184" data-name="Line 184" x1="0.498" y1="0.228" transform="translate(108.224 316.178)" fill="none" stroke="#040405" stroke-linecap="round" stroke-linejoin="round" stroke-width="0.75"/>
    <line id="Line_185" data-name="Line 185" x1="0.991" y2="0.303" transform="translate(111.324 317.084)" fill="none" stroke="#040405" stroke-linecap="round" stroke-linejoin="round" stroke-width="0.75"/>
    <line id="Line_186" data-name="Line 186" x1="0.136" y2="2.003" transform="translate(170.782 311.726)" fill="none" stroke="#040405" stroke-linecap="round" stroke-linejoin="round" stroke-width="0.75"/>
    <line id="Line_187" data-name="Line 187" x2="0.859" y2="0.254" transform="translate(169.741 311.013)" fill="none" stroke="#040405" stroke-linecap="round" stroke-linejoin="round" stroke-width="0.75"/>
    <path id="Path_608" data-name="Path 608" d="M169.74,311.013a.164.164,0,0,0-.105.006" fill="none" stroke="#040405" stroke-linecap="round" stroke-linejoin="round" stroke-width="0.75"/>
    <line id="Line_188" data-name="Line 188" y1="0.032" x2="0.12" transform="translate(107.121 308.163)" fill="none" stroke="#040405" stroke-linecap="round" stroke-linejoin="round" stroke-width="0.75"/>
    <path id="Path_609" data-name="Path 609" d="M107.121,308.2a2.7,2.7,0,0,1,1.623.1" fill="none" stroke="#040405" stroke-linecap="round" stroke-linejoin="round" stroke-width="0.75"/>
    <path id="Path_610" data-name="Path 610" d="M111.073,315.046a.2.2,0,0,0-.019.089" fill="none" stroke="#040405" stroke-linecap="round" stroke-linejoin="round" stroke-width="0.75"/>
  </g>
</svg>
