<svg xmlns="http://www.w3.org/2000/svg" width="119.283" height="121.609" viewBox="0 0 119.283 121.609">
  <g id="Group_7" data-name="Group 7" transform="translate(-71.299 -109.77)" opacity="0.949">
    <path id="Path_335" data-name="Path 335" d="M170.934,120.266a.049.049,0,0,1,.023-.034.21.21,0,0,1,.058-.028.866.866,0,0,1,.194-.034,1.794,1.794,0,0,1,.263,0,1.986,1.986,0,0,1,.234.034q.451.083.9.169.887.171,1.772.356,1.727.361,3.437.783c1.142.281,2.277.585,3.405.917q.863.254,1.72.533.819.268,1.631.563a30.707,30.707,0,0,1,6.334,3.063,14.426,14.426,0,0,1,1.5,1.135,9.332,9.332,0,0,1,1.146,1.173,5.519,5.519,0,0,1,.93,1.6,3.719,3.719,0,0,1,.21,1.636" transform="translate(-8.005 -0.808)" fill="none" stroke="#000" stroke-linecap="round" stroke-linejoin="round" stroke-width="0.75"/>
    <path id="Path_336" data-name="Path 336" d="M179.182,127.174a3.585,3.585,0,0,0-.956-2.608,9.782,9.782,0,0,0-2.168-1.835,20.16,20.16,0,0,0-2.508-1.354c-.431-.2-.868-.385-1.309-.564-.229-.092-.458-.181-.689-.268l-.353-.132-.09-.032-.088-.032a.248.248,0,0,1-.065-.035.05.05,0,0,1-.022-.039" transform="translate(-8.005 -0.817)" fill="none" stroke="#000" stroke-linecap="round" stroke-linejoin="round" stroke-width="0.75"/>
    <path id="Path_337" data-name="Path 337" d="M195.222,133.188c-.178,1.8-1.668,3.2-2.97,4.127a22.219,22.219,0,0,1-4.646,2.4,56.183,56.183,0,0,1-10.107,2.736" transform="translate(-8.534 -1.859)" fill="none" stroke="#000" stroke-linecap="round" stroke-linejoin="round" stroke-width="0.75"/>
    <line id="Line_87" data-name="Line 87" x1="0.445" y2="5.782" transform="translate(170.732 126.357)" fill="none" stroke="#000" stroke-linecap="round" stroke-linejoin="round" stroke-width="0.75"/>
    <path id="Path_338" data-name="Path 338" d="M178.7,127.7a4.8,4.8,0,0,1-1.525,2.874" transform="translate(-8.508 -1.416)" fill="none" stroke="#000" stroke-linecap="round" stroke-linejoin="round" stroke-width="0.75"/>
    <path id="Path_339" data-name="Path 339" d="M199.025,132.321a4.384,4.384,0,0,0-.353-2.187" transform="translate(-10.242 -1.612)" fill="none" stroke="#000" stroke-linecap="round" stroke-linejoin="round" stroke-width="0.75"/>
    <path id="Path_340" data-name="Path 340" d="M152.579,122.049q2.553.55,5.105,1.1c1.448.314,3.654.8,5.094,1.149" transform="translate(-6.524 -0.96)" fill="none" stroke="#000" stroke-linecap="round" stroke-linejoin="round" stroke-width="0.75"/>
    <line id="Line_88" data-name="Line 88" y1="0.928" x2="0.077" transform="translate(176.09 121.145)" fill="none" stroke="#000" stroke-linecap="round" stroke-linejoin="round" stroke-width="0.75"/>
    <path id="Path_341" data-name="Path 341" d="M116.813,138.963a.683.683,0,0,1,.174-.055,1.382,1.382,0,0,1,.246-.026,1.619,1.619,0,0,1,.241.013l.233.03.936.116q.952.113,1.9.211.971.1,1.943.182.987.085,1.976.153,3.846.266,7.7.3,1.939.019,3.877-.019,1.914-.039,3.826-.135,1.958-.1,3.913-.263.952-.08,1.9-.177.931-.1,1.86-.207c2.531-.3,5.107-.7,7.609-1.187q1.977-.383,3.935-.856c1.192-.29,2.375-.607,3.55-.962,1.333-.4,2.648-.849,3.942-1.367a30.018,30.018,0,0,0,3.2-1.487,18.294,18.294,0,0,0,2.092-1.316,11.076,11.076,0,0,0,1.547-1.357,6.163,6.163,0,0,0,.992-1.382,3.707,3.707,0,0,0,.409-1.393" transform="translate(-3.639 -1.422)" fill="none" stroke="#000" stroke-linecap="round" stroke-linejoin="round" stroke-width="0.75"/>
    <path id="Path_342" data-name="Path 342" d="M152.817,116.35c1.86.379,4.861.986,6.719,1.373,1.054.219,2.3.482,3.352.72,1.138.257,2.2.521,3.322.849a34.159,34.159,0,0,1,6.374,2.5,15.524,15.524,0,0,1,1.568.961,9.586,9.586,0,0,1,1.224,1.007,4.992,4.992,0,0,1,1.084,1.492,3.127,3.127,0,0,1,.277,1.533" transform="translate(-6.544 -0.501)" fill="none" stroke="#000" stroke-linecap="round" stroke-linejoin="round" stroke-width="0.75"/>
    <path id="Path_343" data-name="Path 343" d="M163.427,118.14c-2.574-.516-7.35-1.493-9.923-2.015" transform="translate(-6.599 -0.482)" fill="none" stroke="#000" stroke-linecap="round" stroke-linejoin="round" stroke-width="0.75"/>
    <path id="Path_344" data-name="Path 344" d="M192.856,126.713a31.907,31.907,0,0,0-6.618-3.216,63.377,63.377,0,0,0-7.072-2.078" transform="translate(-8.669 -0.909)" fill="none" stroke="#000" stroke-linecap="round" stroke-linejoin="round" stroke-width="0.75"/>
    <path id="Path_345" data-name="Path 345" d="M195.027,127.129a.047.047,0,0,1,0,.083.263.263,0,0,1-.092.04.965.965,0,0,1-.2.028" transform="translate(-9.925 -1.37)" fill="none" stroke="#000" stroke-linecap="round" stroke-linejoin="round" stroke-width="0.75"/>
    <path id="Path_346" data-name="Path 346" d="M185.348,121.93c.794.3,1.586.6,2.369.929.824.342,1.518.656,2.312,1.062a20.222,20.222,0,0,1,4.241,2.789" transform="translate(-9.168 -0.951)" fill="none" stroke="#000" stroke-linecap="round" stroke-linejoin="round" stroke-width="0.75"/>
    <path id="Path_347" data-name="Path 347" d="M126.6,144.188c1.588.193,3.177.372,4.769.529q2,.2,4.006.34,2.211.156,4.423.244,2.2.091,4.394.127a161.592,161.592,0,0,0,17.612-.641c2.92-.273,5.853-.64,8.747-1.122q2.273-.378,4.524-.862c1.373-.3,2.737-.628,4.091-1,1.532-.424,3.064-.906,4.552-1.466a33.52,33.52,0,0,0,3.694-1.629,20.029,20.029,0,0,0,2.43-1.478,11.793,11.793,0,0,0,1.773-1.542,6.886,6.886,0,0,0,1.12-1.578,4.6,4.6,0,0,0,.475-1.593" transform="translate(-4.429 -1.804)" fill="none" stroke="#000" stroke-linecap="round" stroke-linejoin="round" stroke-width="0.75"/>
    <path id="Path_348" data-name="Path 348" d="M199.841,139.636a.09.09,0,0,1,0,.146.4.4,0,0,1-.152.073,1.455,1.455,0,0,1-.333.05,2.538,2.538,0,0,1-.672-.058" transform="translate(-10.243 -2.379)" fill="none" stroke="#000" stroke-linecap="round" stroke-linejoin="round" stroke-width="0.75"/>
    <path id="Path_349" data-name="Path 349" d="M200.06,142.128a1.151,1.151,0,0,1-.451.154,3.115,3.115,0,0,1-.48.037,4.125,4.125,0,0,1-.955-.1" transform="translate(-10.202 -2.58)" fill="none" stroke="#000" stroke-linecap="round" stroke-linejoin="round" stroke-width="0.75"/>
    <path id="Path_350" data-name="Path 350" d="M200.325,140.3a.159.159,0,0,1-.048.093.439.439,0,0,1-.128.085,1.18,1.18,0,0,1-.248.078,2.807,2.807,0,0,1-.518.058,4.22,4.22,0,0,1-1.036-.1" transform="translate(-10.216 -2.433)" fill="none" stroke="#000" stroke-linecap="round" stroke-linejoin="round" stroke-width="0.75"/>
    <line id="Line_89" data-name="Line 89" x1="0.573" y1="0.134" transform="translate(187.557 137.953)" fill="none" stroke="#000" stroke-linecap="round" stroke-linejoin="round" stroke-width="0.75"/>
    <line id="Line_90" data-name="Line 90" x1="0.556" y1="0.131" transform="translate(187.416 139.505)" fill="none" stroke="#000" stroke-linecap="round" stroke-linejoin="round" stroke-width="0.75"/>
    <line id="Line_91" data-name="Line 91" x1="0.725" y1="0.168" transform="translate(187.712 137.3)" fill="none" stroke="#000" stroke-linecap="round" stroke-linejoin="round" stroke-width="0.75"/>
    <line id="Line_92" data-name="Line 92" x2="0.913" y2="0.21" transform="translate(187.884 136.783)" fill="none" stroke="#000" stroke-linecap="round" stroke-linejoin="round" stroke-width="0.75"/>
    <line id="Line_93" data-name="Line 93" x1="0.71" y1="0.168" transform="translate(187.467 139.833)" fill="none" stroke="#000" stroke-linecap="round" stroke-linejoin="round" stroke-width="0.75"/>
    <path id="Path_351" data-name="Path 351" d="M130.886,153.483a1.4,1.4,0,0,0,.564.245,3.438,3.438,0,0,0,.613.082,3.2,3.2,0,0,0,1.222-.155" transform="translate(-4.775 -3.496)" fill="none" stroke="#000" stroke-linecap="round" stroke-linejoin="round" stroke-width="0.75"/>
    <line id="Line_94" data-name="Line 94" y1="1.668" x2="0.024" transform="translate(126.009 148.129)" fill="none" stroke="#000" stroke-linecap="round" stroke-linejoin="round" stroke-width="0.75"/>
    <path id="Path_352" data-name="Path 352" d="M131.493,150.763a.55.55,0,0,1,.154-.085" transform="translate(-4.824 -3.269)" fill="none" stroke="#000" stroke-linecap="round" stroke-linejoin="round" stroke-width="0.75"/>
    <line id="Line_95" data-name="Line 95" y1="0.583" x2="1.485" transform="translate(128.51 149.577)" fill="none" stroke="#000" stroke-linecap="round" stroke-linejoin="round" stroke-width="0.75"/>
    <line id="Line_96" data-name="Line 96" y1="0.609" x2="1.549" transform="translate(128.075 149.944)" fill="none" stroke="#000" stroke-linecap="round" stroke-linejoin="round" stroke-width="0.75"/>
    <path id="Path_353" data-name="Path 353" d="M133.308,151.821a3.343,3.343,0,0,1-1.335.146,3.149,3.149,0,0,1-.665-.117,1.415,1.415,0,0,1-.31-.131.515.515,0,0,1-.151-.128.216.216,0,0,1-.047-.129" transform="translate(-4.768 -3.333)" fill="none" stroke="#000" stroke-linecap="round" stroke-linejoin="round" stroke-width="0.75"/>
    <path id="Path_354" data-name="Path 354" d="M132.941,151.1a2.078,2.078,0,0,1-.872.083,1.673,1.673,0,0,1-.428-.1.462.462,0,0,1-.183-.12.126.126,0,0,1,.029-.192" transform="translate(-4.818 -3.277)" fill="none" stroke="#000" stroke-linecap="round" stroke-linejoin="round" stroke-width="0.75"/>
    <path id="Path_355" data-name="Path 355" d="M182.616,150.822a1.244,1.244,0,0,1-.487.177,3.1,3.1,0,0,1-.521.048,3.978,3.978,0,0,1-1.036-.117" transform="translate(-8.782 -3.281)" fill="none" stroke="#000" stroke-linecap="round" stroke-linejoin="round" stroke-width="0.75"/>
    <path id="Path_356" data-name="Path 356" d="M182.338,148.138a.112.112,0,0,1,.018.166.382.382,0,0,1-.16.1,1.448,1.448,0,0,1-.37.068,2.491,2.491,0,0,1-.747-.065" transform="translate(-8.823 -3.065)" fill="none" stroke="#000" stroke-linecap="round" stroke-linejoin="round" stroke-width="0.75"/>
    <path id="Path_357" data-name="Path 357" d="M182.874,148.859a.187.187,0,0,1-.049.108.451.451,0,0,1-.132.1,1.185,1.185,0,0,1-.269.1,2.9,2.9,0,0,1-.569.076,4.069,4.069,0,0,1-1.14-.114" transform="translate(-8.794 -3.123)" fill="none" stroke="#000" stroke-linecap="round" stroke-linejoin="round" stroke-width="0.75"/>
    <line id="Line_97" data-name="Line 97" x1="0.137" y2="1.64" transform="translate(173.943 145.737)" fill="none" stroke="#000" stroke-linecap="round" stroke-linejoin="round" stroke-width="0.75"/>
    <line id="Line_98" data-name="Line 98" x1="1.536" y1="0.403" transform="translate(170.252 147.246)" fill="none" stroke="#000" stroke-linecap="round" stroke-linejoin="round" stroke-width="0.75"/>
    <line id="Line_99" data-name="Line 99" x1="1.543" y1="0.406" transform="translate(170.497 147.619)" fill="none" stroke="#000" stroke-linecap="round" stroke-linejoin="round" stroke-width="0.75"/>
    <line id="Line_100" data-name="Line 100" x2="1.294" y2="0.331" transform="translate(171.856 144.573)" fill="none" stroke="#000" stroke-linecap="round" stroke-linejoin="round" stroke-width="0.75"/>
    <line id="Line_101" data-name="Line 101" x1="0.044" y2="0.781" transform="translate(156.575 116.826)" fill="none" stroke="#000" stroke-linecap="round" stroke-linejoin="round" stroke-width="0.75"/>
    <line id="Line_102" data-name="Line 102" x2="0.106" y2="6.615" transform="translate(104.653 135.586)" fill="none" stroke="#000" stroke-linecap="round" stroke-linejoin="round" stroke-width="0.75"/>
    <path id="Path_358" data-name="Path 358" d="M102.252,142.282a.845.845,0,0,0-.127-.029.3.3,0,0,0-.064,0c-.021,0-.047.011-.046.038" transform="translate(-2.446 -2.59)" fill="none" stroke="#000" stroke-linecap="round" stroke-linejoin="round" stroke-width="0.75"/>
    <path id="Path_359" data-name="Path 359" d="M102.146,137.646a.761.761,0,0,1-.146-.056c-.038-.021-.1-.061-.1-.114" transform="translate(-2.437 -2.205)" fill="none" stroke="#000" stroke-linecap="round" stroke-linejoin="round" stroke-width="0.75"/>
    <path id="Path_360" data-name="Path 360" d="M180.05,120.263a.676.676,0,0,1,.349.042" transform="translate(-8.74 -0.816)" fill="none" stroke="#000" stroke-linecap="round" stroke-linejoin="round" stroke-width="0.75"/>
    <path id="Path_361" data-name="Path 361" d="M197.725,142.275a.08.08,0,0,1-.052-.033.259.259,0,0,1-.045-.083.824.824,0,0,1-.034-.132c-.01-.059-.017-.119-.022-.178a3.906,3.906,0,0,1,0-.475,7.388,7.388,0,0,1,.109-.944,8.148,8.148,0,0,1,.216-.926,4.618,4.618,0,0,1,.155-.449c.023-.056.048-.111.076-.165a.951.951,0,0,1,.07-.119.291.291,0,0,1,.064-.07.079.079,0,0,1,.055-.02" transform="translate(-10.153 -2.302)" fill="none" stroke="#000" stroke-linecap="round" stroke-linejoin="round" stroke-width="0.75"/>
    <path id="Path_362" data-name="Path 362" d="M198.381,138.68c.037,0,.058.051.068.078a.539.539,0,0,1,.026.106,1.73,1.73,0,0,1,.019.218" transform="translate(-10.219 -2.302)" fill="none" stroke="#000" stroke-linecap="round" stroke-linejoin="round" stroke-width="0.75"/>
    <path id="Path_363" data-name="Path 363" d="M181.181,147.216a.992.992,0,0,1,.5.477" transform="translate(-8.831 -2.99)" fill="none" stroke="#000" stroke-linecap="round" stroke-linejoin="round" stroke-width="0.75"/>
    <path id="Path_364" data-name="Path 364" d="M179.446,150.829a1.077,1.077,0,0,1-.481-.44,1.485,1.485,0,0,1-.192-.627,2.363,2.363,0,0,1,.281-1.276,2.64,2.64,0,0,1,.872-.978,1.787,1.787,0,0,1,.6-.259,1.107,1.107,0,0,1,.65.048" transform="translate(-8.637 -2.991)" fill="none" stroke="#000" stroke-linecap="round" stroke-linejoin="round" stroke-width="0.75"/>
    <path id="Path_365" data-name="Path 365" d="M134.9,152.686a1.725,1.725,0,0,0,.208-1.369,2.068,2.068,0,0,0-.8-1.147,2.1,2.1,0,0,0-1.338-.406,1.721,1.721,0,0,0-1.246.6" transform="translate(-4.842 -3.196)" fill="none" stroke="#000" stroke-linecap="round" stroke-linejoin="round" stroke-width="0.75"/>
    <path id="Path_366" data-name="Path 366" d="M131.807,150.317c-.02.025-.04.05-.059.075" transform="translate(-4.844 -3.24)" fill="none" stroke="#000" stroke-linecap="round" stroke-linejoin="round" stroke-width="0.75"/>
    <path id="Path_367" data-name="Path 367" d="M192.788,133.674a4.8,4.8,0,0,1-.57,1.791,7.622,7.622,0,0,1-1.362,1.77,13.749,13.749,0,0,1-2.169,1.718,24.2,24.2,0,0,1-2.975,1.631,40.778,40.778,0,0,1-4.393,1.724q-1.274.423-2.567.785-.684.192-1.372.37-.712.183-1.428.355c-1.6.382-3.212.712-4.833,1q-2.642.477-5.3.821-.612.08-1.226.154t-1.243.144q-.63.07-1.261.134c-.426.043-.85.085-1.277.124q-1.3.12-2.6.216-1.322.1-2.648.174-1.269.072-2.539.124t-2.569.084q-1.3.033-2.592.045t-2.6,0q-2.583-.014-5.163-.1-1.287-.044-2.572-.108-.641-.032-1.283-.073t-1.275-.089c-.873-.067-1.746-.146-2.618-.232s-1.715-.173-2.571-.266-1.693-.187-2.54-.283-1.677-.194-2.514-.292q-1.294-.153-2.585-.31t-2.565-.313q-2.537-.312-5.075-.631" transform="translate(-3.453 -1.898)" fill="none" stroke="#000" stroke-linecap="round" stroke-linejoin="round" stroke-width="0.75"/>
    <path id="Path_368" data-name="Path 368" d="M192.536,133.641a4.767,4.767,0,0,1-.566,1.782,7.61,7.61,0,0,1-1.356,1.762,13.665,13.665,0,0,1-2.159,1.709,24.108,24.108,0,0,1-2.962,1.624,40.573,40.573,0,0,1-4.371,1.715c-.846.281-1.7.54-2.555.781q-.681.19-1.365.368-.709.185-1.421.353c-1.594.38-3.2.709-4.811,1q-2.63.474-5.278.816-.61.08-1.22.154t-1.238.144c-.418.046-.836.091-1.255.133s-.847.084-1.271.123q-1.292.119-2.585.215-1.317.1-2.636.172-1.263.072-2.527.123t-2.557.083q-1.289.033-2.579.044t-2.593.006q-2.572-.015-5.144-.106-1.281-.044-2.562-.108t-2.539-.162q-1.3-.1-2.6-.23-1.281-.125-2.559-.265t-2.532-.282q-1.254-.143-2.508-.292-1.287-.152-2.572-.307l-2.553-.312q-2.526-.31-5.052-.627" transform="translate(-3.462 -1.895)" fill="none" stroke="#000" stroke-linecap="round" stroke-linejoin="round" stroke-width="0.75"/>
    <path id="Path_369" data-name="Path 369" d="M114.376,145.064a1.818,1.818,0,0,0-1.407.39" transform="translate(-3.329 -2.815)" fill="none" stroke="#000" stroke-linecap="round" stroke-linejoin="round" stroke-width="0.75"/>
    <path id="Path_370" data-name="Path 370" d="M179.98,151.13a1.119,1.119,0,0,1-.67-.073" transform="translate(-8.681 -3.3)" fill="none" stroke="#000" stroke-linecap="round" stroke-linejoin="round" stroke-width="0.75"/>
    <path id="Path_371" data-name="Path 371" d="M133.836,153.71a1.722,1.722,0,0,0,1.231-.767" transform="translate(-5.013 -3.452)" fill="none" stroke="#000" stroke-linecap="round" stroke-linejoin="round" stroke-width="0.75"/>
    <path id="Path_372" data-name="Path 372" d="M133.461,153.615a1.748,1.748,0,0,0,1.635-.773" transform="translate(-4.982 -3.444)" fill="none" stroke="#000" stroke-linecap="round" stroke-linejoin="round" stroke-width="0.75"/>
    <path id="Path_373" data-name="Path 373" d="M179.879,128.128a49.277,49.277,0,0,1,7.593,2.775c2.167,1.034,4.978,2.67,6.426,4.777" transform="translate(-8.726 -1.451)" fill="none" stroke="#000" stroke-linecap="round" stroke-linejoin="round" stroke-width="0.75"/>
    <path id="Path_374" data-name="Path 374" d="M176.149,143.266a111.842,111.842,0,0,1-15.374,1.641" transform="translate(-7.185 -2.672)" fill="none" stroke="#000" stroke-linecap="round" stroke-linejoin="round" stroke-width="0.75"/>
    <path id="Path_375" data-name="Path 375" d="M177.966,121.169c-2.186-.526-4.618-1.039-6.821-1.487q-1.711-.348-3.423-.684t-3.425-.68" transform="translate(-7.47 -0.659)" fill="none" stroke="#000" stroke-linecap="round" stroke-linejoin="round" stroke-width="0.75"/>
    <line id="Line_103" data-name="Line 103" x1="1.632" y2="0.631" transform="translate(128.541 147.856)" fill="none" stroke="#000" stroke-linecap="round" stroke-linejoin="round" stroke-width="0.75"/>
    <line id="Line_104" data-name="Line 104" x1="0.003" y2="0.135" transform="translate(130.317 148.544)" fill="none" stroke="#000" stroke-linecap="round" stroke-linejoin="round" stroke-width="0.75"/>
    <line id="Line_105" data-name="Line 105" x2="0.417" y2="0.096" transform="translate(188.797 136.994)" fill="none" stroke="#000" stroke-linecap="round" stroke-linejoin="round" stroke-width="0.75"/>
    <line id="Line_106" data-name="Line 106" y1="1.122" x2="0.01" transform="translate(122.164 142.383)" fill="none" stroke="#000" stroke-linecap="round" stroke-linejoin="round" stroke-width="0.75"/>
    <path id="Path_376" data-name="Path 376" d="M177.958,136.917a5.083,5.083,0,0,0,1.345-2.849" transform="translate(-8.571 -1.93)" fill="none" stroke="#000" stroke-linecap="round" stroke-linejoin="round" stroke-width="0.75"/>
    <line id="Line_107" data-name="Line 107" y1="0.166" x2="0.014" transform="translate(176.167 120.979)" fill="none" stroke="#000" stroke-linecap="round" stroke-linejoin="round" stroke-width="0.75"/>
    <path id="Path_377" data-name="Path 377" d="M197.676,129.459a8.128,8.128,0,0,0-2.117-2.763,17.986,17.986,0,0,0-2.853-2.033,33.072,33.072,0,0,0-3.123-1.6c-.533-.241-1.073-.465-1.617-.679s-1.093-.419-1.643-.62" transform="translate(-9.246 -0.937)" fill="none" stroke="#000" stroke-linecap="round" stroke-linejoin="round" stroke-width="0.75"/>
    <path id="Path_378" data-name="Path 378" d="M198.7,142.671a2.294,2.294,0,0,1-.305-.05" transform="translate(-10.22 -2.62)" fill="none" stroke="#000" stroke-linecap="round" stroke-linejoin="round" stroke-width="0.75"/>
    <line id="Line_108" data-name="Line 108" x1="1.608" y2="0.618" transform="translate(128.123 147.201)" fill="none" stroke="#000" stroke-linecap="round" stroke-linejoin="round" stroke-width="0.75"/>
    <path id="Path_379" data-name="Path 379" d="M179.655,147.811q.456-.106.909-.217" transform="translate(-8.708 -3.021)" fill="none" stroke="#000" stroke-linecap="round" stroke-linejoin="round" stroke-width="0.75"/>
    <path id="Path_380" data-name="Path 380" d="M112.354,146.429a1.987,1.987,0,0,0-.08.587" transform="translate(-3.273 -2.927)" fill="none" stroke="#000" stroke-linecap="round" stroke-linejoin="round" stroke-width="0.75"/>
    <line id="Line_109" data-name="Line 109" x1="7.279" y2="70.557" transform="translate(181.203 140.051)" fill="none" stroke="#000" stroke-linecap="round" stroke-linejoin="round" stroke-width="0.75"/>
    <path id="Path_381" data-name="Path 381" d="M179.165,121.326a1.864,1.864,0,0,1,.253-.66.848.848,0,0,1,.561-.4" transform="translate(-8.669 -0.816)" fill="none" stroke="#000" stroke-linecap="round" stroke-linejoin="round" stroke-width="0.75"/>
    <path id="Path_382" data-name="Path 382" d="M177.921,137.167q-.211,2.8-.423,5.607" transform="translate(-8.534 -2.18)" fill="none" stroke="#000" stroke-linecap="round" stroke-linejoin="round" stroke-width="0.75"/>
    <path id="Path_383" data-name="Path 383" d="M198.672,130.134a4.929,4.929,0,0,1,.906,3.254" transform="translate(-10.242 -1.612)" fill="none" stroke="#000" stroke-linecap="round" stroke-linejoin="round" stroke-width="0.75"/>
    <path id="Path_384" data-name="Path 384" d="M199.014,131.284a4.467,4.467,0,0,1,.33,2.167" transform="translate(-10.27 -1.705)" fill="none" stroke="#000" stroke-linecap="round" stroke-linejoin="round" stroke-width="0.75"/>
    <path id="Path_385" data-name="Path 385" d="M197.863,142.5c-.024.033-.072.093-.124.085" transform="translate(-10.167 -2.61)" fill="none" stroke="#000" stroke-linecap="round" stroke-linejoin="round" stroke-width="0.75"/>
    <path id="Path_386" data-name="Path 386" d="M180.253,151.2a1.148,1.148,0,0,1-.747-.059" transform="translate(-8.696 -3.307)" fill="none" stroke="#000" stroke-linecap="round" stroke-linejoin="round" stroke-width="0.75"/>
    <path id="Path_387" data-name="Path 387" d="M179.862,128.123l.016,0" transform="translate(-8.725 -1.45)" fill="none" stroke="#000" stroke-linecap="round" stroke-linejoin="round" stroke-width="0.75"/>
    <path id="Path_388" data-name="Path 388" d="M104.219,136.706q-1.02-.429-2.05-.834-1.06-.415-2.134-.792-1.034-.363-2.081-.682c-.756-.23-1.456-.423-2.22-.622-.733-.191-1.468-.374-2.2-.559q-.546-.137-1.091-.278-.53-.138-1.057-.286c-.777-.221-1.514-.462-2.267-.754-.333-.129-.663-.265-.991-.4s-.632-.273-.947-.41c-.755-.327-1.3-.55-2.061-.851-.7-.277-1.407-.547-2.111-.818s-1.425-.55-2.136-.831q-1.023-.4-2.039-.83-.553-.233-1.1-.476c-.352-.156-.7-.315-1.049-.48-.645-.305-1.281-.625-1.9-.976-.408-.231-.807-.473-1.193-.739a8.283,8.283,0,0,1-.958-.758,3.8,3.8,0,0,1-.657-.776,1.731,1.731,0,0,1-.272-.792" transform="translate(0 -1.017)" fill="none" stroke="#000" stroke-linecap="round" stroke-linejoin="round" stroke-width="0.75"/>
    <line id="Line_110" data-name="Line 110" x2="0.144" y2="8.636" transform="translate(104.219 135.688)" fill="none" stroke="#000" stroke-linecap="round" stroke-linejoin="round" stroke-width="0.75"/>
    <path id="Path_389" data-name="Path 389" d="M101.9,137.474a.091.091,0,0,1,0-.022" transform="translate(-2.437 -2.203)" fill="none" stroke="#000" stroke-linecap="round" stroke-linejoin="round" stroke-width="0.75"/>
    <path id="Path_390" data-name="Path 390" d="M96.088,140.448a5.922,5.922,0,0,1-.966-.411,7.25,7.25,0,0,1-.9-.544" transform="translate(-1.817 -2.367)" fill="none" stroke="#000" stroke-linecap="round" stroke-linejoin="round" stroke-width="0.75"/>
    <path id="Path_391" data-name="Path 391" d="M94.2,139.03l6.639,1.918" transform="translate(-1.815 -2.33)" fill="none" stroke="#000" stroke-linecap="round" stroke-linejoin="round" stroke-width="0.75"/>
    <path id="Path_392" data-name="Path 392" d="M95.95,135.957a3.714,3.714,0,0,0-1.843.041" transform="translate(-1.808 -2.074)" fill="none" stroke="#000" stroke-linecap="round" stroke-linejoin="round" stroke-width="0.75"/>
    <line id="Line_111" data-name="Line 111" x2="6.658" y2="1.884" transform="translate(92.307 134.489)" fill="none" stroke="#000" stroke-linecap="round" stroke-linejoin="round" stroke-width="0.75"/>
    <path id="Path_393" data-name="Path 393" d="M107.552,138.2c3.353.946,6.358,1.832,9.727,2.723,3.306.873,6.482,1.624,9.851,2.226q.607.109,1.214.209t1.238.2q1.269.194,2.541.359,2.506.325,5.02.553t5.038.371q2.522.145,5.047.2" transform="translate(-2.892 -2.263)" fill="none" stroke="#000" stroke-linecap="round" stroke-linejoin="round" stroke-width="0.75"/>
    <path id="Path_394" data-name="Path 394" d="M107.661,145.013c1.442.43,2.88.868,4.321,1.3" transform="translate(-2.901 -2.813)" fill="none" stroke="#000" stroke-linecap="round" stroke-linejoin="round" stroke-width="0.75"/>
    <path id="Path_395" data-name="Path 395" d="M163.673,124.5c.563.137,1.123.279,1.681.432s1.113.317,1.665.493c1.092.346,2.2.747,3.261,1.191a24.435,24.435,0,0,1,3.107,1.544,11.11,11.11,0,0,1,2.7,2.16" transform="translate(-7.419 -1.158)" fill="none" stroke="#000" stroke-linecap="round" stroke-linejoin="round" stroke-width="0.75"/>
    <line id="Line_112" data-name="Line 112" x1="0.009" y2="0.153" transform="translate(156.093 123.303)" fill="none" stroke="#000" stroke-linecap="round" stroke-linejoin="round" stroke-width="0.75"/>
    <line id="Line_113" data-name="Line 113" x1="0.001" y2="0.011" transform="translate(156.253 123.34)" fill="none" stroke="#000" stroke-linecap="round" stroke-linejoin="round" stroke-width="0.75"/>
    <path id="Path_396" data-name="Path 396" d="M105.9,137.143q.76.3,1.515.621" transform="translate(-2.759 -2.178)" fill="none" stroke="#000" stroke-linecap="round" stroke-linejoin="round" stroke-width="0.75"/>
    <line id="Line_114" data-name="Line 114" x2="0.032" y2="2.014" transform="translate(104.759 142.201)" fill="none" stroke="#000" stroke-linecap="round" stroke-linejoin="round" stroke-width="0.75"/>
    <path id="Path_397" data-name="Path 397" d="M157.222,144.647q-1.273.054-2.546.083t-2.573.037q-2.562.014-5.123-.063t-5.117-.245q-2.557-.167-5.105-.427c-3.364-.346-6.817-.827-10.139-1.465q-1.291-.248-2.572-.531-1.218-.272-2.425-.58-.65-.166-1.3-.339t-1.274-.343c-.417-.114-.836-.23-1.252-.347l-.618-.174-.3-.087a.347.347,0,0,1-.111-.054.088.088,0,0,1-.041-.066" transform="translate(-3.632 -2.412)" fill="none" stroke="#000" stroke-linecap="round" stroke-linejoin="round" stroke-width="0.75"/>
    <path id="Path_398" data-name="Path 398" d="M178.823,127.833h0" transform="translate(-8.641 -1.427)" fill="none" stroke="#000" stroke-linecap="round" stroke-linejoin="round" stroke-width="0.75"/>
    <path id="Path_399" data-name="Path 399" d="M171.427,130.829a10.945,10.945,0,0,1-1.274,1.095,17.085,17.085,0,0,1-1.635,1.068c-.65.376-1.316.716-2,1.031-.772.359-1.556.682-2.353.983-1.234.466-2.485.872-3.751,1.238-1.436.416-2.884.778-4.342,1.1q-.481.108-.964.21t-.986.2q-1.016.2-2.036.384-1.059.188-2.121.351-.545.086-1.09.163t-1.111.154q-4.187.557-8.4.789-1.038.059-2.079.1t-2.1.063q-2.124.045-4.248.018t-4.25-.121q-2.093-.1-4.181-.259c-2.784-.221-5.611-.542-8.368-.993-2.787-.456-5.514-1.047-8.243-1.775" transform="translate(-2.759 -1.668)" fill="none" stroke="#000" stroke-linecap="round" stroke-linejoin="round" stroke-width="0.75"/>
    <path id="Path_400" data-name="Path 400" d="M160.775,144.415a58.421,58.421,0,0,0,8.408-2.593,29.76,29.76,0,0,0,3.957-1.924,14.069,14.069,0,0,0,3.432-2.73" transform="translate(-7.185 -2.18)" fill="none" stroke="#000" stroke-linecap="round" stroke-linejoin="round" stroke-width="0.75"/>
    <line id="Line_115" data-name="Line 115" y1="0.088" x2="0.009" transform="translate(185.094 125.759)" fill="none" stroke="#000" stroke-linecap="round" stroke-linejoin="round" stroke-width="0.75"/>
    <path id="Path_401" data-name="Path 401" d="M116.723,140.036c0-.044.052-.076.083-.092" transform="translate(-3.632 -2.404)" fill="none" stroke="#000" stroke-linecap="round" stroke-linejoin="round" stroke-width="0.75"/>
    <line id="Line_116" data-name="Line 116" x1="0.106" y2="1.062" transform="translate(186.582 131.329)" fill="none" stroke="#000" stroke-linecap="round" stroke-linejoin="round" stroke-width="0.75"/>
    <line id="Line_117" data-name="Line 117" x1="0.009" y2="0.12" transform="translate(170.184 126.287)" fill="none" stroke="#000" stroke-linecap="round" stroke-linejoin="round" stroke-width="0.75"/>
    <line id="Line_118" data-name="Line 118" x1="0.291" y2="2.847" transform="translate(188.492 130.709)" fill="none" stroke="#000" stroke-linecap="round" stroke-linejoin="round" stroke-width="0.75"/>
    <path id="Path_402" data-name="Path 402" d="M151.289,145.873c0,.047-.057.08-.091.1a.581.581,0,0,1-.133.044,1.344,1.344,0,0,1-.278.029" transform="translate(-6.38 -2.882)" fill="none" stroke="#000" stroke-linecap="round" stroke-linejoin="round" stroke-width="0.75"/>
    <line id="Line_119" data-name="Line 119" y1="5.239" x2="0.218" transform="translate(146.055 115.849)" fill="none" stroke="#000" stroke-linecap="round" stroke-linejoin="round" stroke-width="0.75"/>
    <line id="Line_120" data-name="Line 120" x1="0.631" y2="0.207" transform="translate(146.273 115.642)" fill="none" stroke="#000" stroke-linecap="round" stroke-linejoin="round" stroke-width="0.75"/>
    <path id="Path_403" data-name="Path 403" d="M194.68,127.283a1.763,1.763,0,0,1-.319-.015.838.838,0,0,1-.3-.091" transform="translate(-9.87 -1.374)" fill="none" stroke="#000" stroke-linecap="round" stroke-linejoin="round" stroke-width="0.75"/>
    <line id="Line_121" data-name="Line 121" x1="0.896" y2="0.151" transform="translate(176.181 120.829)" fill="none" stroke="#000" stroke-linecap="round" stroke-linejoin="round" stroke-width="0.75"/>
    <line id="Line_122" data-name="Line 122" x1="0.479" y2="0.434" transform="translate(122.174 141.949)" fill="none" stroke="#000" stroke-linecap="round" stroke-linejoin="round" stroke-width="0.75"/>
    <path id="Path_404" data-name="Path 404" d="M148.878,145.952q-5.455.059-10.9-.236-1.361-.074-2.72-.172t-2.715-.222c-1.81-.168-3.616-.37-5.421-.582" transform="translate(-4.471 -2.79)" fill="none" stroke="#000" stroke-linecap="round" stroke-linejoin="round" stroke-width="0.75"/>
    <path id="Path_405" data-name="Path 405" d="M151.332,145.856a.045.045,0,0,1,0,.016" transform="translate(-6.424 -2.881)" fill="none" stroke="#000" stroke-linecap="round" stroke-linejoin="round" stroke-width="0.75"/>
    <path id="Path_406" data-name="Path 406" d="M150.708,145.648a1.554,1.554,0,0,1,.313.038.769.769,0,0,1,.149.051c.038.017.1.053.112.1" transform="translate(-6.373 -2.864)" fill="none" stroke="#000" stroke-linecap="round" stroke-linejoin="round" stroke-width="0.75"/>
    <line id="Line_123" data-name="Line 123" x1="0.078" y2="1.39" transform="translate(156.421 116.186)" fill="none" stroke="#000" stroke-linecap="round" stroke-linejoin="round" stroke-width="0.75"/>
    <path id="Path_407" data-name="Path 407" d="M164.07,117.412a.827.827,0,0,1,.149.066c.038.022.1.065.1.121" transform="translate(-7.451 -0.586)" fill="none" stroke="#000" stroke-linecap="round" stroke-linejoin="round" stroke-width="0.75"/>
    <path id="Path_408" data-name="Path 408" d="M200.436,140.158a.173.173,0,0,1,.058.135" transform="translate(-10.385 -2.421)" fill="none" stroke="#000" stroke-linecap="round" stroke-linejoin="round" stroke-width="0.75"/>
    <line id="Line_124" data-name="Line 124" x2="0.454" y2="0.48" transform="translate(189.598 137.257)" fill="none" stroke="#000" stroke-linecap="round" stroke-linejoin="round" stroke-width="0.75"/>
    <path id="Path_409" data-name="Path 409" d="M199.562,142.563a.919.919,0,0,1-.407.108,2.348,2.348,0,0,1-.426-.006" transform="translate(-10.247 -2.615)" fill="none" stroke="#000" stroke-linecap="round" stroke-linejoin="round" stroke-width="0.75"/>
    <line id="Line_125" data-name="Line 125" x1="0.544" y2="0.4" transform="translate(189.315 139.548)" fill="none" stroke="#000" stroke-linecap="round" stroke-linejoin="round" stroke-width="0.75"/>
    <path id="Path_410" data-name="Path 410" d="M200.314,141.988a.2.2,0,0,1-.088.129" transform="translate(-10.368 -2.569)" fill="none" stroke="#000" stroke-linecap="round" stroke-linejoin="round" stroke-width="0.75"/>
    <line id="Line_126" data-name="Line 126" x1="0.163" y2="1.547" transform="translate(189.947 137.873)" fill="none" stroke="#000" stroke-linecap="round" stroke-linejoin="round" stroke-width="0.75"/>
    <path id="Path_411" data-name="Path 411" d="M199.525,139.454a.871.871,0,0,1,.384.167" transform="translate(-10.311 -2.364)" fill="none" stroke="#000" stroke-linecap="round" stroke-linejoin="round" stroke-width="0.75"/>
    <path id="Path_412" data-name="Path 412" d="M131.448,153.984a.818.818,0,0,0,.339.148,2.018,2.018,0,0,0,.37.051,1.938,1.938,0,0,0,.737-.094" transform="translate(-4.82 -3.536)" fill="none" stroke="#000" stroke-linecap="round" stroke-linejoin="round" stroke-width="0.75"/>
    <line id="Line_127" data-name="Line 127" x1="0.516" y1="0.461" transform="translate(126.112 149.987)" fill="none" stroke="#000" stroke-linecap="round" stroke-linejoin="round" stroke-width="0.75"/>
    <path id="Path_413" data-name="Path 413" d="M130.8,151.446a.256.256,0,0,1,.1-.182" transform="translate(-4.768 -3.317)" fill="none" stroke="#000" stroke-linecap="round" stroke-linejoin="round" stroke-width="0.75"/>
    <path id="Path_414" data-name="Path 414" d="M130.775,153.276a.263.263,0,0,0,.1.19" transform="translate(-4.766 -3.479)" fill="none" stroke="#000" stroke-linecap="round" stroke-linejoin="round" stroke-width="0.75"/>
    <line id="Line_128" data-name="Line 128" y1="0.453" x2="0.533" transform="translate(126.137 147.493)" fill="none" stroke="#000" stroke-linecap="round" stroke-linejoin="round" stroke-width="0.75"/>
    <line id="Line_129" data-name="Line 129" y1="0.411" x2="1.078" transform="translate(126.823 146.998)" fill="none" stroke="#000" stroke-linecap="round" stroke-linejoin="round" stroke-width="0.75"/>
    <path id="Path_415" data-name="Path 415" d="M132.833,150.231q.891.085,1.784.158" transform="translate(-4.932 -3.233)" fill="none" stroke="#000" stroke-linecap="round" stroke-linejoin="round" stroke-width="0.75"/>
    <line id="Line_130" data-name="Line 130" x1="1.472" y1="0.378" transform="translate(170.785 144.96)" fill="none" stroke="#000" stroke-linecap="round" stroke-linejoin="round" stroke-width="0.75"/>
    <path id="Path_416" data-name="Path 416" d="M182.078,151.277a.749.749,0,0,1-.294.108,1.894,1.894,0,0,1-.314.029,2.391,2.391,0,0,1-.625-.071" transform="translate(-8.804 -3.318)" fill="none" stroke="#000" stroke-linecap="round" stroke-linejoin="round" stroke-width="0.75"/>
    <line id="Line_131" data-name="Line 131" x1="0.56" y2="0.418" transform="translate(173.273 147.541)" fill="none" stroke="#000" stroke-linecap="round" stroke-linejoin="round" stroke-width="0.75"/>
    <path id="Path_417" data-name="Path 417" d="M182.978,148.673a.223.223,0,0,1,.078.171" transform="translate(-8.976 -3.108)" fill="none" stroke="#000" stroke-linecap="round" stroke-linejoin="round" stroke-width="0.75"/>
    <line id="Line_132" data-name="Line 132" x2="0.487" y2="0.492" transform="translate(173.515 145.073)" fill="none" stroke="#000" stroke-linecap="round" stroke-linejoin="round" stroke-width="0.75"/>
    <path id="Path_418" data-name="Path 418" d="M182.905,150.643a.245.245,0,0,1-.11.165" transform="translate(-8.962 -3.267)" fill="none" stroke="#000" stroke-linecap="round" stroke-linejoin="round" stroke-width="0.75"/>
    <path id="Path_419" data-name="Path 419" d="M182.052,147.953a.877.877,0,0,1,.364.17" transform="translate(-8.902 -3.05)" fill="none" stroke="#000" stroke-linecap="round" stroke-linejoin="round" stroke-width="0.75"/>
    <line id="Line_133" data-name="Line 133" x1="1.555" y1="0.402" transform="translate(170.365 145.604)" fill="none" stroke="#000" stroke-linecap="round" stroke-linejoin="round" stroke-width="0.75"/>
    <line id="Line_134" data-name="Line 134" x1="0.036" y2="0.644" transform="translate(156.829 117.013)" fill="none" stroke="#000" stroke-linecap="round" stroke-linejoin="round" stroke-width="0.75"/>
    <path id="Path_420" data-name="Path 420" d="M164.127,117.775c-.026.009-.052.017-.079.024" transform="translate(-7.449 -0.615)" fill="none" stroke="#000" stroke-linecap="round" stroke-linejoin="round" stroke-width="0.75"/>
    <path id="Path_421" data-name="Path 421" d="M164.322,117.616a.137.137,0,0,1-.074.095.571.571,0,0,1-.113.051" transform="translate(-7.456 -0.603)" fill="none" stroke="#000" stroke-linecap="round" stroke-linejoin="round" stroke-width="0.75"/>
    <path id="Path_422" data-name="Path 422" d="M101.72,142.229q-.858-.211-1.709-.444c-.568-.155-1.134-.32-1.7-.489" transform="translate(-2.147 -2.513)" fill="none" stroke="#000" stroke-linecap="round" stroke-linejoin="round" stroke-width="0.75"/>
    <path id="Path_423" data-name="Path 423" d="M98.174,136.321c1.205.324,2.249.636,3.431,1.04" transform="translate(-2.136 -2.111)" fill="none" stroke="#000" stroke-linecap="round" stroke-linejoin="round" stroke-width="0.75"/>
    <path id="Path_424" data-name="Path 424" d="M101.417,141.116a5.922,5.922,0,0,1,.986.417,6.866,6.866,0,0,1,.912.559" transform="translate(-2.398 -2.498)" fill="none" stroke="#000" stroke-linecap="round" stroke-linejoin="round" stroke-width="0.75"/>
    <path id="Path_425" data-name="Path 425" d="M101.358,138.67a3.679,3.679,0,0,0,1.882-.043" transform="translate(-2.393 -2.297)" fill="none" stroke="#000" stroke-linecap="round" stroke-linejoin="round" stroke-width="0.75"/>
    <line id="Line_135" data-name="Line 135" x2="0.001" y2="0.032" transform="translate(99.572 139.684)" fill="none" stroke="#000" stroke-linecap="round" stroke-linejoin="round" stroke-width="0.75"/>
    <path id="Path_426" data-name="Path 426" d="M98.24,141.261a4.155,4.155,0,0,0-.849-.4" transform="translate(-2.073 -2.478)" fill="none" stroke="#000" stroke-linecap="round" stroke-linejoin="round" stroke-width="0.75"/>
    <path id="Path_427" data-name="Path 427" d="M98.1,136.318a2.231,2.231,0,0,1-.844-.032" transform="translate(-2.062 -2.109)" fill="none" stroke="#000" stroke-linecap="round" stroke-linejoin="round" stroke-width="0.75"/>
    <path id="Path_428" data-name="Path 428" d="M72.207,122.728a2.275,2.275,0,0,0,.721,1.347,7.678,7.678,0,0,0,1.206.983,22.085,22.085,0,0,0,2.722,1.518" transform="translate(-0.041 -1.015)" fill="none" stroke="#000" stroke-linecap="round" stroke-linejoin="round" stroke-width="0.75"/>
    <path id="Path_429" data-name="Path 429" d="M77.264,126.913c2.006.967,4.386,1.892,6.46,2.689.576.222,1.152.441,1.727.665.513.2,1.026.4,1.535.61.555.228,1.106.468,1.657.706.519.224,1.04.443,1.568.642.485.182.975.346,1.471.5.622.188,1.25.354,1.88.515,1.13.289,2.264.563,3.391.863q.863.229,1.718.484.822.248,1.634.521c1.106.373,2.2.781,3.282,1.214" transform="translate(-0.449 -1.353)" fill="none" stroke="#000" stroke-linecap="round" stroke-linejoin="round" stroke-width="0.75"/>
    <path id="Path_430" data-name="Path 430" d="M71.7,121.739a1.378,1.378,0,0,1,.216-.815,2.322,2.322,0,0,1,.319-.4,4.346,4.346,0,0,1,.439-.393,11.151,11.151,0,0,1,1.122-.763c.39-.237.873-.514,1.271-.737q1.322-.743,2.681-1.419.706-.35,1.421-.68.739-.341,1.488-.66.567-.241,1.14-.471.589-.234,1.184-.457,1.251-.466,2.52-.871,1.358-.433,2.734-.805,1.451-.4,2.915-.741,1.26-.3,2.528-.565.651-.137,1.3-.266t1.331-.253q.681-.124,1.364-.238.7-.116,1.4-.221.718-.106,1.44-.2.739-.1,1.48-.177.658-.072,1.316-.133t1.344-.111q1.375-.1,2.753-.153,1.4-.054,2.8-.06t2.8.027q1.407.033,2.811.1,1.387.065,2.772.158,1.365.092,2.73.208,1.345.114,2.687.249,2.773.279,5.536.634,1.358.174,2.716.364t2.685.393q1.379.208,2.755.433t2.729.46q1.353.236,2.7.485t2.676.511q1.276.252,2.548.519c.861.179,1.723.359,2.588.521q1.383.261,2.775.471.727.11,1.454.211.743.1,1.488.2" fill="none" stroke="#000" stroke-linecap="round" stroke-linejoin="round" stroke-width="0.75"/>
    <line id="Line_136" data-name="Line 136" x1="0.471" y1="7.669" transform="translate(71.696 121.738)" fill="none" stroke="#000" stroke-linecap="round" stroke-linejoin="round" stroke-width="0.75"/>
    <line id="Line_137" data-name="Line 137" x2="0.001" y2="0.043" transform="translate(99.469 135.25)" fill="none" stroke="#000" stroke-linecap="round" stroke-linejoin="round" stroke-width="0.75"/>
    <path id="Path_431" data-name="Path 431" d="M156.542,124.065c-1.053-.147-2.1-.305-3.151-.481q-1.295-.216-2.582-.478c-.717-.147-1.431-.305-2.145-.466l-1.031-.234q-.531-.119-1.062-.235-2.377-.518-4.764-.984-2.6-.507-5.2-.954a178.307,178.307,0,0,0-20.158-2.4c-1.734-.092-3.468-.145-5.2-.147q-.63,0-1.259.008t-1.241.028q-1.225.039-2.447.118a70.774,70.774,0,0,0-10.04,1.4c-1.618.339-3.284.735-4.882,1.16-.836.223-1.669.458-2.5.709-.812.245-1.618.506-2.42.786a51.617,51.617,0,0,0-9.193,4.268" transform="translate(-0.449 -0.608)" fill="none" stroke="#000" stroke-linecap="round" stroke-linejoin="round" stroke-width="0.75"/>
    <path id="Path_432" data-name="Path 432" d="M156.54,116.195q-1.71-.219-3.413-.484-1.373-.215-2.739-.479c-.768-.148-1.533-.308-2.3-.468s-1.544-.319-2.318-.473q-2.577-.51-5.164-.964-2.8-.492-5.61-.921a178.983,178.983,0,0,0-21.773-2.123c-1.855-.046-3.709-.046-5.564.021q-2.689.1-5.361.384c-1.732.188-3.451.438-5.167.74q-1.372.241-2.736.525-1.442.3-2.878.637c-1.82.431-3.718.935-5.5,1.5q-2.5.792-4.907,1.816a56.542,56.542,0,0,0-5.72,2.836c-.4.227-.852.487-1.244.73a10.063,10.063,0,0,0-1.055.735,4.038,4.038,0,0,0-.4.371,2.146,2.146,0,0,0-.288.376,1.328,1.328,0,0,0-.2.767" transform="translate(-0.041 -0.009)" fill="none" stroke="#000" stroke-linecap="round" stroke-linejoin="round" stroke-width="0.75"/>
    <line id="Line_138" data-name="Line 138" x1="0.16" y2="0.106" transform="translate(156.093 123.351)" fill="none" stroke="#000" stroke-linecap="round" stroke-linejoin="round" stroke-width="0.75"/>
    <line id="Line_139" data-name="Line 139" x1="0.161" y2="0.099" transform="translate(156.498 116.087)" fill="none" stroke="#000" stroke-linecap="round" stroke-linejoin="round" stroke-width="0.75"/>
    <path id="Path_433" data-name="Path 433" d="M104.4,146.014q-1.014-.459-2.036-.894-1.051-.445-2.118-.849-1.03-.389-2.075-.733c-.753-.247-1.451-.454-2.213-.668-.733-.207-1.468-.4-2.2-.6-.7-.188-1.453-.4-2.141-.61a23.465,23.465,0,0,1-2.245-.817c-.651-.276-1.287-.581-1.928-.88-.741-.347-1.3-.59-2.048-.909-.7-.3-1.395-.585-2.093-.875q-.535-.222-1.069-.447t-1.051-.446q-1.015-.434-2.022-.893c-.716-.327-1.426-.667-2.126-1.027q-.491-.252-.974-.521c-.3-.17-.6-.345-.9-.528-.393-.243-.776-.5-1.145-.777a8.026,8.026,0,0,1-.918-.8,3.906,3.906,0,0,1-.63-.815,1.94,1.94,0,0,1-.263-.83" transform="translate(-0.042 -1.69)" fill="none" stroke="#000" stroke-linecap="round" stroke-linejoin="round" stroke-width="0.75"/>
    <line id="Line_140" data-name="Line 140" x1="0.041" y2="0.739" transform="translate(156.618 116.087)" fill="none" stroke="#000" stroke-linecap="round" stroke-linejoin="round" stroke-width="0.75"/>
    <line id="Line_141" data-name="Line 141" x1="0.429" y2="0.11" transform="translate(104.363 144.215)" fill="none" stroke="#000" stroke-linecap="round" stroke-linejoin="round" stroke-width="0.75"/>
    <line id="Line_142" data-name="Line 142" x1="0.435" y2="0.103" transform="translate(104.219 135.586)" fill="none" stroke="#000" stroke-linecap="round" stroke-linejoin="round" stroke-width="0.75"/>
    <path id="Path_434" data-name="Path 434" d="M102.015,142.292a.059.059,0,0,0,0,.017" transform="translate(-2.446 -2.593)" fill="none" stroke="#000" stroke-linecap="round" stroke-linejoin="round" stroke-width="0.75"/>
    <path id="Path_435" data-name="Path 435" d="M103.853,142.613c0,.046-.042.06-.078.064a.41.41,0,0,1-.111,0,1.357,1.357,0,0,1-.218-.049" transform="translate(-2.561 -2.619)" fill="none" stroke="#000" stroke-linecap="round" stroke-linejoin="round" stroke-width="0.75"/>
    <path id="Path_436" data-name="Path 436" d="M103.762,138.283c0-.092-.1-.16-.166-.2a1.182,1.182,0,0,0-.25-.1" transform="translate(-2.553 -2.246)" fill="none" stroke="#000" stroke-linecap="round" stroke-linejoin="round" stroke-width="0.75"/>
    <line id="Line_143" data-name="Line 143" x2="0.083" y2="3.957" transform="translate(101.209 136.037)" fill="none" stroke="#000" stroke-linecap="round" stroke-linejoin="round" stroke-width="0.75"/>
    <path id="Path_437" data-name="Path 437" d="M93.695,136.329c0,.085.095.148.155.182a1.091,1.091,0,0,0,.232.09" transform="translate(-1.775 -2.112)" fill="none" stroke="#000" stroke-linecap="round" stroke-linejoin="round" stroke-width="0.75"/>
    <path id="Path_438" data-name="Path 438" d="M93.787,139.038c0-.042.038-.055.072-.06a.387.387,0,0,1,.1,0,1.355,1.355,0,0,1,.2.045" transform="translate(-1.782 -2.326)" fill="none" stroke="#000" stroke-linecap="round" stroke-linejoin="round" stroke-width="0.75"/>
    <line id="Line_144" data-name="Line 144" x1="0.085" y1="2.495" transform="translate(91.92 134.217)" fill="none" stroke="#000" stroke-linecap="round" stroke-linejoin="round" stroke-width="0.75"/>
    <line id="Line_145" data-name="Line 145" x1="1.047" y1="0.305" transform="translate(94.271 138.081)" fill="none" stroke="#000" stroke-linecap="round" stroke-linejoin="round" stroke-width="0.75"/>
    <line id="Line_146" data-name="Line 146" x1="1.078" y1="0.314" transform="translate(99.807 139.692)" fill="none" stroke="#000" stroke-linecap="round" stroke-linejoin="round" stroke-width="0.75"/>
    <path id="Path_439" data-name="Path 439" d="M103.481,142.178c.07.051.372.279.375.4" transform="translate(-2.564 -2.584)" fill="none" stroke="#000" stroke-linecap="round" stroke-linejoin="round" stroke-width="0.75"/>
    <path id="Path_440" data-name="Path 440" d="M94.189,139.457c-.079-.058-.156-.118-.229-.183-.043-.04-.17-.156-.173-.231" transform="translate(-1.782 -2.331)" fill="none" stroke="#000" stroke-linecap="round" stroke-linejoin="round" stroke-width="0.75"/>
    <line id="Line_147" data-name="Line 147" x1="1.053" y1="0.295" transform="translate(94.142 133.882)" fill="none" stroke="#000" stroke-linecap="round" stroke-linejoin="round" stroke-width="0.75"/>
    <line id="Line_148" data-name="Line 148" x1="1.084" y1="0.304" transform="translate(99.709 135.441)" fill="none" stroke="#000" stroke-linecap="round" stroke-linejoin="round" stroke-width="0.75"/>
    <path id="Path_441" data-name="Path 441" d="M103.4,138.6a1,1,0,0,0,.222-.1c.06-.038.142-.1.14-.189" transform="translate(-2.558 -2.272)" fill="none" stroke="#000" stroke-linecap="round" stroke-linejoin="round" stroke-width="0.75"/>
    <path id="Path_442" data-name="Path 442" d="M94.074,136.01a1.056,1.056,0,0,0-.231.1c-.061.036-.151.1-.148.191" transform="translate(-1.775 -2.086)" fill="none" stroke="#000" stroke-linecap="round" stroke-linejoin="round" stroke-width="0.75"/>
    <path id="Path_443" data-name="Path 443" d="M181.729,147.735a1.356,1.356,0,0,1,.062.141" transform="translate(-8.876 -3.032)" fill="none" stroke="#000" stroke-linecap="round" stroke-linejoin="round" stroke-width="0.75"/>
    <path id="Path_444" data-name="Path 444" d="M131.733,150.4a1.636,1.636,0,0,0-.176.3" transform="translate(-4.829 -3.247)" fill="none" stroke="#000" stroke-linecap="round" stroke-linejoin="round" stroke-width="0.75"/>
    <path id="Path_445" data-name="Path 445" d="M198.2,138.86a1.906,1.906,0,0,1,.017.205" transform="translate(-10.204 -2.316)" fill="none" stroke="#000" stroke-linecap="round" stroke-linejoin="round" stroke-width="0.75"/>
    <path id="Path_446" data-name="Path 446" d="M180.151,120.254a.594.594,0,0,1,.091-.02" transform="translate(-8.748 -0.814)" fill="none" stroke="#000" stroke-linecap="round" stroke-linejoin="round" stroke-width="0.75"/>
    <path id="Path_447" data-name="Path 447" d="M180.25,120.233a.677.677,0,0,1,.349.042" transform="translate(-8.756 -0.813)" fill="none" stroke="#000" stroke-linecap="round" stroke-linejoin="round" stroke-width="0.75"/>
    <line id="Line_149" data-name="Line 149" y1="0.027" x2="0.183" transform="translate(171.31 119.42)" fill="none" stroke="#000" stroke-linecap="round" stroke-linejoin="round" stroke-width="0.75"/>
    <path id="Path_448" data-name="Path 448" d="M113.078,145.394l-.051.044" transform="translate(-3.334 -2.843)" fill="none" stroke="#000" stroke-linecap="round" stroke-linejoin="round" stroke-width="0.75"/>
    <path id="Path_449" data-name="Path 449" d="M112.92,145.489a1.756,1.756,0,0,0-.559.864" transform="translate(-3.28 -2.851)" fill="none" stroke="#000" stroke-linecap="round" stroke-linejoin="round" stroke-width="0.75"/>
    <line id="Line_150" data-name="Line 150" y1="0.088" x2="0.105" transform="translate(109.639 142.551)" fill="none" stroke="#000" stroke-linecap="round" stroke-linejoin="round" stroke-width="0.75"/>
    <path id="Path_450" data-name="Path 450" d="M181.393,147.3a1,1,0,0,1,.5.475" transform="translate(-8.849 -2.997)" fill="none" stroke="#000" stroke-linecap="round" stroke-linejoin="round" stroke-width="0.75"/>
    <path id="Path_451" data-name="Path 451" d="M181.181,147.216l.195.08" transform="translate(-8.831 -2.99)" fill="none" stroke="#000" stroke-linecap="round" stroke-linejoin="round" stroke-width="0.75"/>
    <path id="Path_452" data-name="Path 452" d="M179.49,151.139l-.18-.082" transform="translate(-8.681 -3.3)" fill="none" stroke="#000" stroke-linecap="round" stroke-linejoin="round" stroke-width="0.75"/>
    <path id="Path_453" data-name="Path 453" d="M131.72,150.422c-.019.024-.039.048-.057.073" transform="translate(-4.837 -3.249)" fill="none" stroke="#000" stroke-linecap="round" stroke-linejoin="round" stroke-width="0.75"/>
    <path id="Path_454" data-name="Path 454" d="M135.235,152.842l-.06.093" transform="translate(-5.121 -3.444)" fill="none" stroke="#000" stroke-linecap="round" stroke-linejoin="round" stroke-width="0.75"/>
    <path id="Path_455" data-name="Path 455" d="M131.725,150.414l.08-.1" transform="translate(-4.842 -3.24)" fill="none" stroke="#000" stroke-linecap="round" stroke-linejoin="round" stroke-width="0.75"/>
    <path id="Path_456" data-name="Path 456" d="M184.476,213.587a12.523,12.523,0,0,1-1.062,3.882,16.184,16.184,0,0,1-2.41,3.764,23.184,23.184,0,0,1-3.757,3.51,33.708,33.708,0,0,1-5.046,3.117q-.971.494-1.965.935-.513.229-1.031.444t-1.06.427c-1.488.579-3,1.084-4.527,1.53a68.361,68.361,0,0,1-10.184,2.1q-1.186.156-2.376.275-1.205.12-2.412.205t-2.441.134q-1.23.05-2.461.064t-2.472-.006c-.826-.014-1.648-.064-2.47-.149s-1.638-.2-2.451-.351-1.623-.324-2.424-.532-1.592-.446-2.378-.7-1.553-.535-2.32-.827-1.522-.6-2.274-.92-1.495-.655-2.232-1.006-1.465-.714-2.186-1.1-1.43-.78-2.13-1.2-1.385-.859-2.055-1.325-1.317-.955-1.94-1.483a15.347,15.347,0,0,1-1.925-1.924,7.109,7.109,0,0,1-1.3-2.24,4.118,4.118,0,0,1-.144-.592c-.017-.1-.028-.2-.037-.3s-.011-.194-.012-.291q-.006-.585-.012-1.168-.011-1.175-.023-2.349l-.1-9.576-.2-19.623q-.2-19.625-.393-39.249" transform="translate(-3.273 -2.978)" fill="none" stroke="#000" stroke-linecap="round" stroke-linejoin="round" stroke-width="0.75"/>
    <line id="Line_151" data-name="Line 151" x1="0.538" y2="5.218" transform="translate(188.797 131.776)" fill="none" stroke="#000" stroke-linecap="round" stroke-linejoin="round" stroke-width="0.75"/>
    <path id="Path_457" data-name="Path 457" d="M180.63,120.28l2.162.839q1.081.421,2.161.843" transform="translate(-8.787 -0.818)" fill="none" stroke="#000" stroke-linecap="round" stroke-linejoin="round" stroke-width="0.75"/>
    <path id="Path_458" data-name="Path 458" d="M180.43,120.31l2.251.874,2.25.878" transform="translate(-8.771 -0.82)" fill="none" stroke="#000" stroke-linecap="round" stroke-linejoin="round" stroke-width="0.75"/>
    <path id="Path_459" data-name="Path 459" d="M114.489,144.969a1.817,1.817,0,0,0-1.406.39" transform="translate(-3.339 -2.808)" fill="none" stroke="#000" stroke-linecap="round" stroke-linejoin="round" stroke-width="0.75"/>
    <path id="Path_460" data-name="Path 460" d="M198.5,139.117c0,.031,0,.063,0,.094" transform="translate(-10.229 -2.337)" fill="none" stroke="#000" stroke-linecap="round" stroke-linejoin="round" stroke-width="0.75"/>
    <path id="Path_461" data-name="Path 461" d="M198.219,139.083v.064" transform="translate(-10.206 -2.334)" fill="none" stroke="#000" stroke-linecap="round" stroke-linejoin="round" stroke-width="0.75"/>
    <path id="Path_462" data-name="Path 462" d="M181.941,147.82c.018.036.035.073.05.109" transform="translate(-8.893 -3.039)" fill="none" stroke="#000" stroke-linecap="round" stroke-linejoin="round" stroke-width="0.75"/>
    <path id="Path_463" data-name="Path 463" d="M131.65,150.5a1.606,1.606,0,0,0-.147.241" transform="translate(-4.824 -3.255)" fill="none" stroke="#000" stroke-linecap="round" stroke-linejoin="round" stroke-width="0.75"/>
  </g>
</svg>
