<?xml version="1.0" encoding="UTF-8" standalone="no"?><!DOCTYPE svg PUBLIC "-//W3C//DTD SVG 1.1//EN" "http://www.w3.org/Graphics/SVG/1.1/DTD/svg11.dtd"><svg width="100%" height="100%" viewBox="0 0 478 300" version="1.1" xmlns="http://www.w3.org/2000/svg" xmlns:xlink="http://www.w3.org/1999/xlink" xml:space="preserve" style="fill-rule:evenodd;clip-rule:evenodd;stroke-linecap:round;stroke-linejoin:round;"><g id="Make2D::Visible::Curves"><path d="M337.479,113.65c0.235,-0.677 0.617,-1.293 1.117,-1.805c0.249,-0.258 0.538,-0.475 0.855,-0.642c0.312,-0.179 0.67,-0.259 1.028,-0.229" style="fill:none;stroke:#000;stroke-width:0.67px;"/><path d="M231.81,261.785c1.117,14.268 12.982,28.529 25.462,29.049" style="fill:none;stroke:#000;stroke-width:0.67px;"/><path d="M178.545,99.595l1.503,0.24" style="fill:none;stroke:#000;stroke-width:0.67px;"/><path d="M348.909,84.339l0.212,-5.414" style="fill:none;stroke:#000;stroke-width:0.67px;"/><path d="M323.91,41.509l-0.357,-0.9" style="fill:none;stroke:#000;stroke-width:0.67px;"/><path d="M237.061,130.112c0.265,-0.502 0.695,-0.896 1.218,-1.117c0.518,-0.225 1.085,-0.317 1.648,-0.268c0.562,0.046 1.108,0.216 1.597,0.497c0.495,0.276 0.904,0.681 1.185,1.173" style="fill:none;stroke:#000;stroke-width:0.67px;"/><path d="M370.399,77.953c1.75,-3.344 2.796,-7.011 3.072,-10.775" style="fill:none;stroke:#000;stroke-width:0.67px;"/><path d="M228.536,121.247c9.403,0.738 18.84,0.96 28.267,0.665c9.433,-0.295 18.844,-1.091 28.193,-2.386c9.349,-1.273 18.611,-3.112 27.736,-5.508c9.136,-2.35 18.038,-5.529 26.596,-9.496" style="fill:none;stroke:#000;stroke-width:0.67px;"/><path d="M322.553,42.319c-2.813,-3.673 -6.033,-7.017 -9.597,-9.966c-4.005,-3.313 -8.343,-6.202 -12.944,-8.62c-4.097,-2.155 -8.351,-3.998 -12.725,-5.513c-4.911,-1.695 -9.927,-3.07 -15.016,-4.117c-4.67,-0.983 -9.368,-1.749 -14.105,-2.341c-5.028,-0.631 -10.055,-1.067 -15.083,-1.346c-9.811,-0.534 -19.644,-0.5 -29.451,0.1c-4.927,0.302 -9.839,0.743 -14.736,1.324c-2.441,0.296 -4.877,0.62 -7.313,0.989c-2.435,0.369 -4.826,0.771 -7.228,1.212c-9.665,1.75 -19.194,4.179 -28.518,7.268c-4.937,1.646 -9.785,3.548 -14.524,5.698c-4.225,1.906 -8.304,4.118 -12.206,6.62c-2.472,1.584 -4.813,3.364 -7,5.323c-1.887,1.696 -3.573,3.602 -5.027,5.682c-2.555,3.547 -3.996,7.775 -4.14,12.144" style="fill:none;stroke:#000;stroke-width:0.67px;"/><path d="M111.912,52.905c-0.55,-4.594 0.454,-9.242 2.849,-13.2c1.358,-2.273 3.014,-4.355 4.922,-6.19c2.236,-2.15 4.667,-4.087 7.262,-5.787c1.944,-1.296 3.944,-2.486 5.994,-3.609c2.235,-1.207 4.469,-2.318 6.759,-3.352c5.011,-2.267 10.141,-4.258 15.368,-5.966c9.838,-3.199 19.893,-5.683 30.088,-7.435c2.536,-0.44 5.078,-0.838 7.625,-1.196c2.547,-0.357 5.13,-0.683 7.748,-0.977c5.162,-0.559 10.329,-0.963 15.502,-1.212c10.328,-0.517 20.677,-0.411 30.992,0.318c5.341,0.385 10.659,0.95 15.96,1.748c4.91,0.738 9.854,1.676 14.675,2.877c5.337,1.303 10.567,3.014 15.642,5.117c4.48,1.861 8.792,4.103 12.887,6.704c4.456,2.821 8.565,6.155 12.245,9.932c1.673,1.722 3.235,3.549 4.676,5.469c0.692,0.916 1.352,1.847 1.977,2.793c0.146,0.224 0.771,1.184 0.889,1.425c0.08,0.155 0.149,0.315 0.206,0.48c0.076,0.213 0.142,0.429 0.196,0.648c0.139,0.551 0.242,1.111 0.307,1.676" style="fill:none;stroke:#000;stroke-width:0.67px;"/><path d="M246.775,130.57l-1.91,0.816l-11.2,-0.559l-1.358,-0.966" style="fill:none;stroke:#000;stroke-width:0.67px;"/><path d="M374.17,70.892l0.134,0.799l1.335,-0.681" style="fill:none;stroke:#000;stroke-width:0.67px;"/><path d="M344.63,111.309l-7.737,3.799l-2.28,-0.056" style="fill:none;stroke:#000;stroke-width:0.67px;"/><path d="M178.484,100.002l0.083,0.263l0.179,0.24l0.263,0.218l0.346,0.184l0.414,0.151l0.474,0.106l5.028,0.844l0.296,-0.81" style="fill:none;stroke:#000;stroke-width:0.67px;"/><path d="M233.592,115.661l3.368,-1.425l-3.999,1.089l0.631,0.336l0.564,0.363l0.497,0.396l0.419,0.419l0.335,0.442l0.263,0.458l0.173,0.475l0.09,0.486" style="fill:none;stroke:#000;stroke-width:0.67px;"/><path d="M322.564,41.632l0.073,0.206l0.145,0.19l0.223,0.185l0.296,0.162l1.799,0.866l1.743,0.893l1.687,0.922l1.631,0.95l1.57,0.972l1.508,1.005l1.441,1.023l1.386,1.05l1.313,1.078l1.24,1.095l1.178,1.117l1.101,1.14l1.028,1.162l0.955,1.184l0.877,1.195l0.799,1.218l0.721,1.235l0.636,1.251l0.553,1.263l0.47,1.279l0.391,1.29l0.296,1.302l0.212,1.313l0.123,1.318l0.033,1.329" style="fill:none;stroke:#000;stroke-width:0.67px;"/><path d="M232.268,115.029l-0.151,4.967l0.481,-0.174l-0.33,-4.793l0.693,0.296" style="fill:none;stroke:#000;stroke-width:0.67px;"/><path d="M232.598,119.822l0.458,-0.139l-0.095,-4.358" style="fill:none;stroke:#000;stroke-width:0.67px;"/><path d="M233.056,119.683l0.441,-0.101l0.095,-3.921" style="fill:none;stroke:#000;stroke-width:0.67px;"/><path d="M234.933,119.621l-0.285,-3.201" style="fill:none;stroke:#000;stroke-width:0.67px;"/><path d="M237.223,115.113l2.726,0.212l2.743,0.174l2.759,0.128l2.771,0.095l1.207,-0.816" style="fill:none;stroke:#000;stroke-width:0.67px;"/><path d="M252.982,122.001l-0.296,-6.218l-4.553,6.257" style="fill:none;stroke:#000;stroke-width:0.67px;"/><path d="M252.686,115.783l3.178,-0.016l3.184,-0.067l3.185,-0.123l3.173,-0.173l3.167,-0.224l3.151,-0.274l3.133,-0.324l3.112,-0.374l3.078,-0.424l3.056,-0.475l3.016,-0.52l2.978,-0.57l2.938,-0.608l2.894,-0.66l2.838,-0.703l2.793,-0.749l2.731,-0.788l2.671,-0.826l2.614,-0.866l2.542,-0.905l-0.481,-0.816" style="fill:none;stroke:#000;stroke-width:0.67px;"/><path d="M312.118,106.114l2.48,-0.944l12.424,4.424" style="fill:none;stroke:#000;stroke-width:0.67px;"/><path d="M315.883,104.661l2.078,-0.871l2.028,-0.9l1.966,-0.921l1.905,-0.944l-0.693,-0.771" style="fill:none;stroke:#000;stroke-width:0.67px;"/><path d="M323.86,101.025l1.843,-0.967l8.179,6.877" style="fill:none;stroke:#000;stroke-width:0.67px;"/><path d="M326.787,99.466l1.978,-1.14l1.899,-1.167l1.81,-1.19l1.72,-1.212l1.637,-1.235l1.542,-1.251l1.452,-1.268l1.363,-1.285l1.269,-1.296l1.178,-1.313l1.078,-1.324l0.989,-1.329l0.894,-1.341l0.804,-1.341l0.704,-1.351l0.615,-1.352l0.519,-1.352l0.425,-1.358l0.329,-1.351l0.241,-1.352l0.15,-1.347l21.736,-2.256l0.107,1.363l0.033,1.363" style="fill:none;stroke:#000;stroke-width:0.67px;"/><path d="M348.814,65.787l22.009,2.268l0.207,1.307" style="fill:none;stroke:#000;stroke-width:0.67px;"/><path d="M340.116,111.203l1.123,0.609l3.391,-1.659" style="fill:none;stroke:#000;stroke-width:0.67px;"/><path d="M322.558,42.006l0.006,-0.374l0.011,-0.201" style="fill:none;stroke:#000;stroke-width:0.67px;"/><path d="M322.502,45.693l0.056,-3.687" style="fill:none;stroke:#000;stroke-width:0.67px;"/><path d="M335.423,54.257l-1.318,-0.984l-1.374,-0.955l-1.43,-0.938l-1.481,-0.916l-1.53,-0.889l-1.581,-0.865" style="fill:none;stroke:#000;stroke-width:0.67px;"/><path d="M335.423,54.257l1.257,1" style="fill:none;stroke:#000;stroke-width:0.67px;"/><path d="M324.687,47.676l-1.291,-0.626" style="fill:none;stroke:#000;stroke-width:0.67px;"/><path d="M326.709,48.71l-0.006,0l-1.62,-0.838l-0.396,-0.196" style="fill:none;stroke:#000;stroke-width:0.67px;"/><path d="M345.35,65.58l0.106,0.318" style="fill:none;stroke:#000;stroke-width:0.67px;"/><path d="M345.177,65.161l-0.112,-0.196l-0.681,-1.161l-0.749,-1.146" style="fill:none;stroke:#000;stroke-width:0.67px;"/><path d="M345.244,65.306l0.106,0.274" style="fill:none;stroke:#000;stroke-width:0.67px;"/><path d="M345.177,65.161l0.089,0.196l-0.022,-0.051l-0.078,-0.156" style="fill:none;stroke:#000;stroke-width:0.67px;"/><path d="M346.037,70.781l-0.005,-0.458l-0.017,-0.492l-0.028,-0.497l-0.039,-0.497l-0.045,-0.492l-0.056,-0.475l0.006,0.023l0.05,0.475l0.05,0.48" style="fill:none;stroke:#000;stroke-width:0.67px;"/><path d="M346.037,70.781l0,0.463l-0.016,0.47l0.016,-0.436l0,-0.469l0,-0.028" style="fill:none;stroke:#000;stroke-width:0.67px;"/><path d="M346.238,76.529l-0.044,-0.324l-0.045,-0.335l-0.045,-0.352l-0.033,-0.363l-0.028,-0.369l-0.028,-0.374l-0.017,-0.374l-0.011,-0.375l-0.006,-0.363l0,-0.357l0.006,-0.352" style="fill:none;stroke:#000;stroke-width:0.67px;"/><path d="M346.015,74.406l0.028,0.386l0.033,0.38l0.034,0.368l0.039,0.363l0.045,0.302" style="fill:none;stroke:#000;stroke-width:0.67px;"/><path d="M346.484,77.719l0.056,0.184l0.045,0.168" style="fill:none;stroke:#000;stroke-width:0.67px;"/><path d="M180.07,105.963l-0.324,-0.173l0.09,0.05l0.312,0.168l-0.078,-0.045Z" style="fill:none;stroke:#000;stroke-width:0.67px;"/><path d="M180.897,98.226l0.492,-0.073l0.541,-0.033l0.537,0.011l0.508,0.061l0.469,0.101l0.414,0.145l0.346,0.185l1.776,1.117l1.866,1.089l1.955,1.056l2.039,1.022l2.123,0.995l2.201,0.96l2.279,0.922l2.358,0.883l2.424,0.849l2.503,0.804l2.564,0.766l2.637,0.726l2.692,0.676l2.749,0.637l2.809,0.586l2.855,0.542l2.905,0.497l2.949,0.447l2.989,0.397l3.028,0.346l3.055,0.296l3.09,0.246l3.106,0.195l3.128,0.14l3.145,0.089l3.156,0.04l3.162,-0.012l3.167,-0.067l3.162,-0.117l3.162,-0.173l3.145,-0.218l3.134,-0.274l3.117,-0.324l3.089,-0.374l3.067,-0.425l3.033,-0.469l3,-0.519l2.961,-0.57l2.916,-0.609l2.871,-0.659l2.821,-0.704l2.771,-0.743l2.709,-0.788l2.654,-0.832l2.586,-0.866l2.525,-0.905l2.453,-0.944l2.385,-0.972l2.307,-1.011l2.229,-1.045l2.156,-1.072l2.073,-1.101l1.988,-1.134l1.905,-1.151l1.816,-1.184l1.732,-1.201l1.642,-1.223l1.553,-1.24l1.458,-1.263l1.369,-1.274l1.273,-1.29l1.184,-1.302l1.09,-1.312l0.994,-1.324l0.894,-1.335l0.804,-1.335l0.71,-1.347l0.614,-1.346l0.319,-0.821" style="fill:none;stroke:#000;stroke-width:0.67px;"/><path d="M178.975,104.343l-0.491,-4.341l0.011,-0.268l0.05,-0.139" style="fill:none;stroke:#000;stroke-width:0.67px;"/><path d="M186.098,106.119l-0.531,-4.921l-4.637,-0.782l-0.234,-0.056l-0.207,-0.073l-0.173,-0.089l-0.134,-0.112l-0.089,-0.117l-0.045,-0.134" style="fill:none;stroke:#000;stroke-width:0.67px;"/><path d="M181.78,106.387l1.782,0.302l2.351,0.402l0.028,-0.016l0.028,-0.04l0.028,-0.061l0.151,-0.408l-0.05,-0.447" style="fill:none;stroke:#000;stroke-width:0.67px;"/><path d="M234.625,119.543l-0.34,-0.033l0.642,0.061" style="fill:none;stroke:#000;stroke-width:0.67px;"/><path d="M236.106,121.454l-0.056,-0.336l-0.09,-0.335l-0.134,-0.329l-0.178,-0.296l-0.207,-0.235l-0.24,-0.179l-0.268,-0.123l-0.308,-0.078" style="fill:none;stroke:#000;stroke-width:0.67px;"/><path d="M237.391,129.604l-0.157,0.497l-4.927,-0.24l0.19,2.793l1.352,0.978l11.172,0.553l1.905,-0.816l-0.151,-2.799l-4.938,-0.24" style="fill:none;stroke:#000;stroke-width:0.67px;"/><path d="M235.933,118.7l0.173,2.754l0.022,0.273" style="fill:none;stroke:#000;stroke-width:0.67px;"/><path d="M251.982,120.437l-0.173,0.011l-0.174,0.056l-0.178,0.1l-0.19,0.151l-0.19,0.201l-0.185,0.229l-0.608,0.849" style="fill:none;stroke:#000;stroke-width:0.67px;"/><path d="M344.63,110.192l0,-0.039l0,1.156l-0.101,2.732" style="fill:none;stroke:#000;stroke-width:0.67px;"/><path d="M344.529,114.041l-7.72,3.809l-2.268,-0.055l0.072,-2.743l3.442,-1.682" style="fill:none;stroke:#000;stroke-width:0.67px;"/><path d="M323.117,110.935l-4.274,-1.525l-0.402,-0.129l-0.419,-0.089l-0.407,-0.045l-0.386,-0.006l-0.369,0.04l-0.363,0.083l-0.346,0.123" style="fill:none;stroke:#000;stroke-width:0.67px;"/><path d="M326.614,104.516l0.218,-0.067l0.229,-0.017l0.229,0.023l0.246,0.067l0.251,0.117l0.263,0.156l0.251,0.196l3.368,2.849" style="fill:none;stroke:#000;stroke-width:0.67px;"/><path d="M326.614,104.516l-0.196,0.112l0.202,-0.112" style="fill:none;stroke:#000;stroke-width:0.67px;"/><path d="M323.905,41.609l0.033,0.101l0.078,0.101l0.112,0.089l0.145,0.078l1.788,0.86l1.732,0.883l1.184,0.648" style="fill:none;stroke:#000;stroke-width:0.67px;"/><path d="M315.81,111.594l0.022,-0.402l0.068,-0.408l0.111,-0.374l0.145,-0.336l0.185,-0.307l0.229,-0.285l0.257,-0.251l0.084,-0.056" style="fill:none;stroke:#000;stroke-width:0.67px;"/><path d="M364.801,70.01l6.229,-0.648" style="fill:none;stroke:#000;stroke-width:0.67px;"/><path d="M348.814,65.787l0.262,1.15l0.19,1.157l0.123,1.162l0.045,0.938" style="fill:none;stroke:#000;stroke-width:0.67px;"/><path d="M371.259,72.781l-0.156,2.58l-0.039,1.19" style="fill:none;stroke:#000;stroke-width:0.67px;"/><path d="M370.706,72.652l0.263,-0.028l0.106,1.363l0.028,1.374" style="fill:none;stroke:#000;stroke-width:0.67px;"/><path d="M374.432,66.261l0.43,0.185l0.777,4.564l-0.162,2.575l-1.33,0.682l-0.134,-0.805" style="fill:none;stroke:#000;stroke-width:0.67px;"/><path d="M371.203,64.155l0.246,0.699l0.425,1.452l0.34,1.469l0.654,0" style="fill:none;stroke:#000;stroke-width:0.67px;"/><path d="M369.835,67.284l-0.006,-0.023l-0.464,-1.312l0.146,-2.542l1.43,0.006l0.262,0.742" style="fill:none;stroke:#000;stroke-width:0.67px;"/><path d="M180.903,98.226c0.824,0.687 1.491,1.545 1.955,2.514" style="fill:none;stroke:#000;stroke-width:0.67px;"/><path d="M112.79,56.374c2.111,6.279 6.776,11.759 11.563,15.982c5.056,4.333 10.618,8.039 16.563,11.038c11.569,6.028 24.904,10.408 37.462,13.514" style="fill:none;stroke:#000;stroke-width:0.67px;"/><path d="M323.575,40.671c-0.052,-0.169 -0.114,-0.335 -0.184,-0.497c-0.021,-0.048 -0.045,-0.095 -0.073,-0.14c-0.032,-0.06 -0.067,-0.117 -0.106,-0.173c-0.145,-0.24 -0.296,-0.48 -0.447,-0.721c-0.302,-0.48 -0.614,-0.955 -0.938,-1.424c-0.654,-0.961 -1.336,-1.888 -2.051,-2.793c-1.488,-1.891 -3.094,-3.686 -4.809,-5.374c-3.793,-3.708 -8.007,-6.957 -12.558,-9.681c-4.007,-2.414 -8.208,-4.492 -12.558,-6.212c-1.177,-0.469 -2.365,-0.916 -3.564,-1.341c-1.199,-0.424 -2.445,-0.84 -3.737,-1.246c-1.289,-0.402 -2.592,-0.774 -3.911,-1.117c-1.318,-0.342 -2.666,-0.696 -4.044,-1.061c-1.155,-0.272 -2.313,-0.533 -3.475,-0.782c-1.184,-0.246 -2.374,-0.486 -3.558,-0.704c-1.184,-0.218 -2.425,-0.441 -3.637,-0.643c-1.212,-0.201 -2.463,-0.391 -3.698,-0.558c-2.514,-0.373 -5.035,-0.684 -7.564,-0.933c-2.528,-0.25 -5.109,-0.477 -7.742,-0.682c-2.466,-0.171 -4.933,-0.303 -7.402,-0.396c-2.469,-0.093 -4.964,-0.153 -7.486,-0.179c-5.042,-0.045 -10.083,0.054 -15.121,0.296c-5.039,0.242 -10.048,0.628 -15.027,1.156c-4.961,0.533 -9.897,1.213 -14.81,2.039c-2.528,0.429 -5.048,0.9 -7.558,1.414c-2.51,0.514 -4.977,1.063 -7.402,1.648c-2.42,0.581 -4.826,1.203 -7.217,1.866c-2.391,0.662 -4.72,1.357 -6.988,2.083c-2.54,0.812 -5.063,1.68 -7.57,2.603c-1.217,0.455 -2.43,0.922 -3.636,1.403c-1.179,0.474 -2.358,0.966 -3.525,1.474c-1.168,0.509 -2.274,1.006 -3.402,1.536c-1.129,0.531 -2.184,1.051 -3.268,1.604c-1.084,0.553 -2.084,1.117 -3.112,1.676c-1.028,0.558 -1.977,1.117 -2.949,1.731c-2.626,1.596 -5.119,3.399 -7.458,5.391c-1.039,0.893 -2.028,1.845 -2.961,2.849c-0.855,0.924 -1.65,1.901 -2.379,2.927c-1.315,1.828 -2.347,3.843 -3.062,5.978c-0.641,1.954 -0.961,3.999 -0.949,6.055" style="fill:none;stroke:#000;stroke-width:0.67px;"/><path d="M111.639,49.726c0.311,-0.954 0.684,-1.887 1.117,-2.793c0.456,-0.944 0.969,-1.86 1.536,-2.743c0.598,-0.929 1.247,-1.824 1.944,-2.681c0.742,-0.907 1.528,-1.776 2.358,-2.603c0.877,-0.877 1.798,-1.715 2.748,-2.514c0.95,-0.799 2.045,-1.642 3.106,-2.413c1.061,-0.771 2.235,-1.576 3.43,-2.313c1.195,-0.737 2.452,-1.503 3.704,-2.235c4.088,-2.259 8.309,-4.268 12.641,-6.016c1.14,-0.469 2.281,-0.922 3.425,-1.357c1.143,-0.436 2.316,-0.868 3.519,-1.296c1.19,-0.425 2.391,-0.838 3.592,-1.241c1.201,-0.402 2.447,-0.793 3.676,-1.173c4.562,-1.407 9.17,-2.649 13.826,-3.726c2.387,-0.558 4.778,-1.076 7.172,-1.553c2.395,-0.476 4.832,-0.92 7.313,-1.329c2.379,-0.399 4.763,-0.756 7.15,-1.073c2.387,-0.316 4.795,-0.603 7.223,-0.86c4.842,-0.503 9.694,-0.875 14.558,-1.117c4.864,-0.242 9.748,-0.335 14.653,-0.28c2.42,0.023 4.841,0.079 7.262,0.168c2.42,0.089 4.813,0.216 7.178,0.38c2.499,0.167 4.992,0.378 7.48,0.631c2.447,0.252 4.882,0.559 7.323,0.883c2.442,0.324 4.754,0.704 7.117,1.117c1.155,0.209 2.311,0.43 3.469,0.665c1.159,0.234 2.291,0.478 3.397,0.732c1.303,0.297 2.607,0.612 3.91,0.944c1.304,0.331 2.557,0.679 3.76,1.044c2.394,0.704 4.761,1.492 7.1,2.363c4.279,1.603 8.431,3.528 12.418,5.76c4.478,2.484 8.683,5.431 12.547,8.792c3.462,3.011 6.571,6.405 9.267,10.117" style="fill:none;stroke:#000;stroke-width:0.67px;"/><path d="M322.502,45.693c-0.599,-0.95 -1.229,-1.881 -1.888,-2.793c-0.676,-0.927 -1.374,-1.832 -2.106,-2.715c-0.731,-0.883 -1.525,-1.788 -2.329,-2.642c-0.805,-0.855 -1.676,-1.738 -2.547,-2.57c-0.872,-0.832 -1.827,-1.676 -2.794,-2.486c-0.966,-0.81 -1.988,-1.62 -3.016,-2.391c-1.028,-0.771 -2.151,-1.564 -3.257,-2.301c-1.106,-0.738 -2.318,-1.497 -3.508,-2.201c-4.002,-2.34 -8.187,-4.352 -12.513,-6.017c-4.912,-1.887 -9.952,-3.42 -15.083,-4.586c-1.147,-0.264 -2.298,-0.516 -3.452,-0.754c-1.155,-0.238 -2.33,-0.468 -3.525,-0.687c-2.414,-0.44 -4.834,-0.827 -7.262,-1.162c-1.233,-0.175 -2.471,-0.335 -3.715,-0.481c-1.244,-0.145 -2.497,-0.284 -3.76,-0.419c-2.542,-0.257 -5.089,-0.463 -7.636,-0.636c-2.443,-0.157 -4.883,-0.28 -7.318,-0.369c-2.436,-0.089 -4.903,-0.138 -7.402,-0.145c-4.983,-0.026 -9.96,0.091 -14.932,0.352c-4.972,0.26 -9.921,0.666 -14.848,1.217c-2.454,0.276 -4.905,0.589 -7.352,0.939c-2.446,0.35 -4.867,0.735 -7.262,1.156c-2.499,0.443 -4.985,0.926 -7.457,1.447c-2.473,0.521 -4.907,1.08 -7.302,1.676c-1.201,0.302 -2.391,0.603 -3.586,0.922c-1.195,0.318 -2.357,0.642 -3.53,0.977c-2.313,0.659 -4.611,1.363 -6.894,2.112c-1.247,0.402 -2.495,0.83 -3.743,1.285c-1.229,0.435 -2.458,0.888 -3.675,1.357c-1.218,0.469 -2.397,0.927 -3.581,1.419c-1.184,0.492 -2.324,0.972 -3.469,1.486c-4.324,1.896 -8.506,4.101 -12.513,6.597c-0.665,0.425 -1.324,0.855 -1.978,1.302c-0.654,0.447 -1.257,0.877 -1.871,1.329c-1.173,0.866 -2.307,1.777 -3.397,2.743c-1.01,0.895 -1.972,1.842 -2.882,2.838c-0.833,0.922 -1.609,1.894 -2.324,2.911c-0.658,0.944 -1.25,1.933 -1.771,2.96c-0.49,0.966 -0.906,1.967 -1.246,2.994c-0.321,0.984 -0.566,1.99 -0.731,3.011c-0.162,1.002 -0.246,2.014 -0.252,3.028" style="fill:none;stroke:#000;stroke-width:0.67px;"/><path d="M114.437,64.753c-1.66,-2.435 -2.976,-5.087 -3.91,-7.882" style="fill:none;stroke:#000;stroke-width:0.67px;"/><path d="M181.02,106.734c0.506,0.069 1.022,-0.009 1.486,-0.224" style="fill:none;stroke:#000;stroke-width:0.67px;"/><path d="M181.612,98.902l0.162,-0.006l0.268,0.006l0.251,0.028l0.235,0.05l0.207,0.073l0.173,0.095l1.765,1.111l1.849,1.078l1.933,1.056l2.017,1.023l2.095,0.994l2.178,0.955l2.251,0.927l2.324,0.889l2.397,0.849l2.469,0.81l2.536,0.771l2.598,0.731l2.659,0.693l2.715,0.643l2.77,0.603l2.821,0.559l2.872,0.508l2.91,0.464l2.955,0.419l0.872,0.139l0.838,0.179l0.793,0.223l0.743,0.257" style="fill:none;stroke:#000;stroke-width:0.67px;"/><path d="M323.569,40.665l-0.173,0.062l-0.313,0.151l-0.24,0.167l-0.173,0.19l-0.095,0.196" style="fill:none;stroke:#000;stroke-width:0.67px;"/><path d="M323.307,47l-0.179,-0.1" style="fill:none;stroke:#000;stroke-width:0.67px;"/><path d="M324.687,47.682c-0.271,0.038 -0.547,-0.011 -0.788,-0.14c-0.239,-0.136 -0.442,-0.328 -0.592,-0.559" style="fill:none;stroke:#000;stroke-width:0.67px;"/><path d="M178.545,99.6c-0.244,-0.141 -0.508,-0.246 -0.782,-0.313" style="fill:none;stroke:#000;stroke-width:0.67px;"/><path d="M111.912,52.91c0.203,1.183 0.496,2.348 0.878,3.486" style="fill:none;stroke:#000;stroke-width:0.67px;"/><path d="M373.471,67.178c0.192,-3.712 -0.424,-7.421 -1.804,-10.871" style="fill:none;stroke:#000;stroke-width:0.67px;"/><path d="M373.471,67.172l-0.072,1.128" style="fill:none;stroke:#000;stroke-width:0.67px;"/><path d="M340.485,110.974c0.137,0.015 0.269,0.057 0.391,0.123" style="fill:none;stroke:#000;stroke-width:0.67px;"/><path d="M322.497,45.911l0.005,-0.218" style="fill:none;stroke:#000;stroke-width:0.67px;"/><path d="M179.176,105.181l-0.05,-0.106l-0.084,-0.263l-0.028,-0.112l-0.039,-0.357" style="fill:none;stroke:#000;stroke-width:0.67px;"/><path d="M181.003,106.253l0.777,0.134" style="fill:none;stroke:#000;stroke-width:0.67px;"/><path d="M340.781,111.56c-0.051,-0.203 -0.145,-0.393 -0.274,-0.558" style="fill:none;stroke:#000;stroke-width:0.67px;"/><path d="M374.013,73.462l-0.553,8.949l-0.91,14.714l-0.883,14.34l-0.86,13.966l-0.844,13.619l-0.815,13.279l-0.799,12.949l-0.782,12.636l-0.76,12.334l-0.743,12.038l-0.726,11.759l-0.71,11.486" style="fill:none;stroke:#000;stroke-width:0.67px;"/><path d="M240.189,133.944l-0.279,0" style="fill:none;stroke:#000;stroke-width:0.67px;"/><path d="M372.583,67.775l0.05,-0.268c0.011,-0.045 0.024,-0.09 0.039,-0.134c0.016,-0.044 0.04,-0.106 0.079,-0.106" style="fill:none;stroke:#000;stroke-width:0.67px;"/><path d="M374.438,66.261c0,0.347 0,0.693 -0.045,1.034" style="fill:none;stroke:#000;stroke-width:0.67px;"/><path d="M370.706,72.652l-0.313,5.301" style="fill:none;stroke:#000;stroke-width:0.67px;"/><path d="M339.328,104.51c6.29,-2.927 12.219,-6.573 17.669,-10.865c5.268,-4.24 10.285,-9.535 13.407,-15.692" style="fill:none;stroke:#000;stroke-width:0.67px;"/><path d="M228.536,121.247l-0.117,-0.145l-0.324,-0.347l-0.357,-0.324l-0.386,-0.301l-0.419,-0.28l-0.436,-0.246l-0.458,-0.212l-0.458,-0.173l-0.458,-0.134l-0.447,-0.089l-2.776,-0.481l-2.732,-0.519l-2.687,-0.57l-2.642,-0.603l-2.586,-0.648l-2.531,-0.688l-2.475,-0.731l-2.413,-0.766l-2.346,-0.799l-2.291,-0.837l-2.217,-0.878l-2.151,-0.904l-2.078,-0.939l-2.006,-0.966l-1.927,-1l-1.854,-1.028l-0.866,-0.52" style="fill:none;stroke:#000;stroke-width:0.67px;"/><path d="M251.272,122.023l-0.005,-0.011l-0.067,-0.352l-0.084,-0.301l-0.101,-0.269l-0.016,-0.039" style="fill:none;stroke:#000;stroke-width:0.67px;"/><path d="M373.494,72.574c-0.002,0.026 -0.002,0.052 0,0.078c0.001,0.026 0,0.056 0.05,0.056" style="fill:none;stroke:#000;stroke-width:0.67px;"/><path d="M340.876,111.119c0.255,0.137 0.454,0.361 0.558,0.631" style="fill:none;stroke:#000;stroke-width:0.67px;"/><path d="M373.371,68.719c0,0.157 0,0.308 0,0.459" style="fill:none;stroke:#000;stroke-width:0.67px;"/><path d="M237.078,130.067l0,0.045" style="fill:none;stroke:#000;stroke-width:0.67px;"/><path d="M221.006,121.152l0.291,-0.542" style="fill:none;stroke:#000;stroke-width:0.67px;"/><path d="M372.583,56.268c0.313,0.799 0.559,1.603 0.827,2.424c0.268,0.821 0.441,1.642 0.603,2.486c0.164,0.837 0.284,1.681 0.358,2.531c0.076,0.848 0.108,1.7 0.095,2.552" style="fill:none;stroke:#000;stroke-width:0.67px;"/><path d="M371.667,56.307l0.888,-0.039" style="fill:none;stroke:#000;stroke-width:0.67px;"/><path d="M371.667,56.307l-0.464,7.848" style="fill:none;stroke:#000;stroke-width:0.67px;"/><path d="M221.302,120.616c2.406,0.238 4.817,0.45 7.234,0.636" style="fill:none;stroke:#000;stroke-width:0.67px;"/><path d="M241.837,130.33l0.229,-0.743" style="fill:none;stroke:#000;stroke-width:0.67px;"/><path d="M372.522,69.652l0.402,0" style="fill:none;stroke:#000;stroke-width:0.67px;"/><path d="M338.055,113.37l-0.375,-0.206" style="fill:none;stroke:#000;stroke-width:0.67px;"/><path d="M251.982,120.437l0.167,0.033l0.151,0.09l0.14,0.128l0.134,0.179l0.117,0.235l0.101,0.262l0.078,0.307l0.067,0.33" style="fill:none;stroke:#000;stroke-width:0.67px;"/><path d="M343.635,62.658l-0.815,-1.128l-0.822,-1.034" style="fill:none;stroke:#000;stroke-width:0.67px;"/><path d="M346.484,77.719l-0.022,-0.067" style="fill:none;stroke:#000;stroke-width:0.67px;"/><path d="M349.16,78.529l0.084,-0.419l0.134,-0.408l0.167,-0.385l0.213,-0.375l0.257,-0.374l0.296,-0.352l0.307,-0.313l0.346,-0.296l0.38,-0.279l0.402,-0.24l0.397,-0.201l0.419,-0.168l0.447,-0.145l0.447,-0.101l0.43,-0.067l16.82,-1.754" style="fill:none;stroke:#000;stroke-width:0.67px;"/><path d="M370.695,67.368l-0.324,-1.33l-0.397,-1.318l-0.463,-1.313" style="fill:none;stroke:#000;stroke-width:0.67px;"/><path d="M371.214,74.155l0.81,0" style="fill:none;stroke:#000;stroke-width:0.67px;"/><path d="M340.116,111.203l0.391,-0.207" style="fill:none;stroke:#000;stroke-width:0.67px;"/><path d="M185.913,107.091l-0.028,-0.011l-0.027,-0.028l-0.023,-0.056l-0.022,-0.072l-0.023,-0.095l-0.011,-0.112l-0.508,-4.709" style="fill:none;stroke:#000;stroke-width:0.67px;"/><path d="M233.849,133.626l-0.184,-2.793" style="fill:none;stroke:#000;stroke-width:0.67px;"/><path d="M245.021,134.185l-0.156,-2.799" style="fill:none;stroke:#000;stroke-width:0.67px;"/><path d="M242.161,130.341l-0.039,-0.704" style="fill:none;stroke:#000;stroke-width:0.67px;"/><path d="M336.809,117.85l0.084,-2.742" style="fill:none;stroke:#000;stroke-width:0.67px;"/><path d="M314.598,105.17l-0.067,6.943l0.028,-0.407l0.067,-0.403l0.112,-0.38l0.145,-0.335l0.184,-0.307l0.229,-0.285l0.263,-0.246l0.279,-0.195l0.313,-0.168" style="fill:none;stroke:#000;stroke-width:0.67px;"/><path d="M349.076,66.937l-1.452,-0.072" style="fill:none;stroke:#000;stroke-width:0.67px;"/><path d="M372.522,69.652l0.139,1.492l0.028,0.827" style="fill:none;stroke:#000;stroke-width:0.67px;"/><path d="M346.585,78.071l0.206,-0.525l0.425,-1.347l0.335,-1.351l0.24,-1.341l0.146,-1.341" style="fill:none;stroke:#000;stroke-width:0.67px;"/><path d="M328.977,44.369l0.497,0.268l1.62,0.933l1.57,0.966l1.503,0.989l1.446,1.011l1.386,1.034l1.318,1.061l1.251,1.084l1.185,1.1l1.117,1.129l1.045,1.145l0.972,1.162l0.905,1.184l0.821,1.201l0.748,1.218l0.671,1.229l0.592,1.251l0.201,0.369l0.274,0.363l0.346,0.352l0.413,0.341l0.481,0.324l0.542,0.302l0.592,0.279l0.648,0.251l0.698,0.229l0.732,0.201l0.765,0.168l0.799,0.134l0.81,0.101l14.91,1.536" style="fill:none;stroke:#000;stroke-width:0.67px;"/><path d="M251.004,115.772l-4.575,6.257" style="fill:none;stroke:#000;stroke-width:0.67px;"/><path d="M370.745,69.39l0.078,-1.335" style="fill:none;stroke:#000;stroke-width:0.67px;"/><path d="M323.91,41.621l0,-0.112" style="fill:none;stroke:#000;stroke-width:0.67px;"/><path d="M341.998,60.496l-0.067,-0.078" style="fill:none;stroke:#000;stroke-width:0.67px;"/><path d="M337.809,56.217l-1.162,-0.988" style="fill:none;stroke:#000;stroke-width:0.67px;"/><path d="M345.54,66.206l-0.089,-0.33" style="fill:none;stroke:#000;stroke-width:0.67px;"/><path d="M346.238,76.529l0.006,0.045l0.056,0.307l0.05,0.285" style="fill:none;stroke:#000;stroke-width:0.67px;"/><path d="M347.937,72.166l0.055,-1.341" style="fill:none;stroke:#000;stroke-width:0.67px;"/><path d="M369.835,67.284l0.86,0.089" style="fill:none;stroke:#000;stroke-width:0.67px;"/><path d="M237.223,115.113l0.642,6.692" style="fill:none;stroke:#000;stroke-width:0.67px;"/><path d="M349.428,70.194l0.011,0.229" style="fill:none;stroke:#000;stroke-width:0.67px;"/><path d="M348.886,84.903l-0.056,1.357" style="fill:none;stroke:#000;stroke-width:0.67px;"/><path d="M349.439,70.423l-0.011,1.179" style="fill:none;stroke:#000;stroke-width:0.67px;"/><path d="M364.801,70.01l-11.463,-1.19l-0.435,-0.028l-0.453,0.011l-0.447,0.045l-0.424,0.084l-0.397,0.123l-0.402,0.156l-0.385,0.196l-0.341,0.223l-0.313,0.251l-0.291,0.291l-0.016,0.022" style="fill:none;stroke:#000;stroke-width:0.67px;"/><path d="M328.999,43.369l-1.396,-0.028" style="fill:none;stroke:#000;stroke-width:0.67px;"/><path d="M231.626,120.197l0.491,-0.201" style="fill:none;stroke:#000;stroke-width:0.67px;"/><path d="M234.285,119.51l-0.375,0.016l-0.413,0.056" style="fill:none;stroke:#000;stroke-width:0.67px;"/><path d="M251.004,115.772l-2.782,-0.05" style="fill:none;stroke:#000;stroke-width:0.67px;"/><path d="M325.703,100.058l-0.134,6.894l0.023,-0.397l0.044,-0.391l0.079,-0.358l0.095,-0.307l0.117,-0.274l0.145,-0.245l0.168,-0.201l0.178,-0.151" style="fill:none;stroke:#000;stroke-width:0.67px;"/><path d="M349.121,78.925l0.262,-6.614" style="fill:none;stroke:#000;stroke-width:0.67px;"/><path d="M374.147,74.267l0.157,-2.576" style="fill:none;stroke:#000;stroke-width:0.67px;"/><path d="M370.969,72.624l0.15,-2.569" style="fill:none;stroke:#000;stroke-width:0.67px;"/><path d="M322.854,46.671l-0.061,-0.073l-0.145,-0.19" style="fill:none;stroke:#000;stroke-width:0.67px;"/><path d="M323.128,46.9l-0.067,-0.056l-0.207,-0.173" style="fill:none;stroke:#000;stroke-width:0.67px;"/><path d="M322.497,45.911l0.011,0.106l0.028,0.101l0.067,0.201l0.045,0.089" style="fill:none;stroke:#000;stroke-width:0.67px;"/><path d="M341.993,60.496l-0.95,-1.1l-1.017,-1.078l-1.078,-1.056l-1.139,-1.045" style="fill:none;stroke:#000;stroke-width:0.67px;"/><path d="M323.396,47.05l-0.089,-0.05" style="fill:none;stroke:#000;stroke-width:0.67px;"/><path d="M323.463,47.084" style="fill:none;stroke:#000;stroke-width:0.67px;"/><path d="M345.54,66.206l0.089,0.385l0.084,0.408l0.073,0.441l0.067,0.453" style="fill:none;stroke:#000;stroke-width:0.67px;"/><path d="M346.462,77.652l-0.056,-0.229l-0.056,-0.257" style="fill:none;stroke:#000;stroke-width:0.67px;"/><path d="M345.987,72.591l0.034,-0.877" style="fill:none;stroke:#000;stroke-width:0.67px;"/><path d="M179.411,105.51l0.084,0.073l0.251,0.207" style="fill:none;stroke:#000;stroke-width:0.67px;"/><path d="M179.411,105.51l-0.061,-0.089l-0.174,-0.24" style="fill:none;stroke:#000;stroke-width:0.67px;"/><path d="M180.523,106.142l-0.375,-0.134" style="fill:none;stroke:#000;stroke-width:0.67px;"/><path d="M181.003,106.253l-0.056,-0.011l-0.424,-0.1" style="fill:none;stroke:#000;stroke-width:0.67px;"/><path d="M315.883,104.661l12.502,4.436" style="fill:none;stroke:#000;stroke-width:0.67px;"/><path d="M326.647,106.354l0.023,-0.402l0.044,-0.391l0.079,-0.352l0.095,-0.308l0.123,-0.279l0.111,-0.184" style="fill:none;stroke:#000;stroke-width:0.67px;"/><path d="M326.787,99.466l8.301,6.961" style="fill:none;stroke:#000;stroke-width:0.67px;"/><path d="M348.83,86.26l-0.139,1.363l-0.235,1.369l-0.318,1.369l-0.408,1.374l-0.503,1.368l-0.592,1.375l-0.682,1.363l-0.77,1.363l-0.866,1.357l-0.956,1.346l-1.044,1.341l-1.14,1.324l-1.223,1.318l-0.626,0.615" style="fill:none;stroke:#000;stroke-width:0.67px;"/><path d="M349.428,71.602l15.373,-1.592" style="fill:none;stroke:#000;stroke-width:0.67px;"/><path d="M349.16,78.529l-0.039,0.396" style="fill:none;stroke:#000;stroke-width:0.67px;"/><path d="M178.378,96.908c0.928,0.248 1.79,0.698 2.525,1.318" style="fill:none;stroke:#000;stroke-width:0.67px;"/><path d="M114.437,64.753c2.38,6.028 6.955,11.29 11.698,15.424c2.463,2.13 5.066,4.091 7.793,5.871c1.329,0.871 2.676,1.704 4.044,2.508c1.369,0.805 2.905,1.648 4.385,2.419c11.335,5.921 24.317,10.245 36.618,13.407" style="fill:none;stroke:#000;stroke-width:0.67px;"/><path d="M111.639,49.726c0.007,1.065 0.099,2.128 0.273,3.179" style="fill:none;stroke:#000;stroke-width:0.67px;"/><path d="M178.612,106.767c-13.965,-3.564 -29.048,-8.709 -41.634,-16.077c-6.34,-3.704 -12.558,-8.279 -17.485,-13.826c-1.285,-1.443 -2.477,-2.965 -3.57,-4.558c-1.016,-1.487 -1.92,-3.048 -2.703,-4.67c-1.669,-3.354 -2.584,-7.032 -2.682,-10.776" style="fill:none;stroke:#000;stroke-width:0.67px;"/><path d="M374.393,67.295l-0.38,6.167" style="fill:none;stroke:#000;stroke-width:0.67px;"/><path d="M322.553,42.319c-2.813,-3.673 -6.033,-7.017 -9.597,-9.966c-4.005,-3.313 -8.343,-6.202 -12.944,-8.62c-4.097,-2.155 -8.351,-3.998 -12.725,-5.513c-4.911,-1.695 -9.927,-3.07 -15.016,-4.117c-4.67,-0.983 -9.368,-1.749 -14.105,-2.341c-5.028,-0.631 -10.055,-1.067 -15.083,-1.346c-9.811,-0.534 -19.644,-0.5 -29.451,0.1c-4.927,0.302 -9.839,0.743 -14.736,1.324c-2.441,0.296 -4.877,0.62 -7.313,0.989c-2.435,0.369 -4.826,0.771 -7.228,1.212c-9.665,1.75 -19.194,4.179 -28.518,7.268c-4.937,1.646 -9.785,3.548 -14.524,5.698c-4.225,1.906 -8.304,4.118 -12.206,6.62c-2.472,1.584 -4.813,3.364 -7,5.323c-1.887,1.696 -3.573,3.602 -5.027,5.682c-2.555,3.547 -3.996,7.775 -4.14,12.144" style="fill:none;stroke:#000;stroke-width:0.67px;"/><path d="M111.912,52.905c-0.55,-4.594 0.454,-9.242 2.849,-13.2c1.358,-2.273 3.014,-4.355 4.922,-6.19c2.236,-2.15 4.667,-4.087 7.262,-5.787c1.944,-1.296 3.944,-2.486 5.994,-3.609c2.235,-1.207 4.469,-2.318 6.759,-3.352c5.011,-2.267 10.141,-4.258 15.368,-5.966c9.838,-3.199 19.893,-5.683 30.088,-7.435c2.536,-0.44 5.078,-0.838 7.625,-1.196c2.547,-0.357 5.13,-0.683 7.748,-0.977c5.162,-0.559 10.329,-0.963 15.502,-1.212c10.328,-0.517 20.677,-0.411 30.992,0.318c5.341,0.385 10.659,0.95 15.96,1.748c4.91,0.738 9.854,1.676 14.675,2.877c5.337,1.303 10.567,3.014 15.642,5.117c4.48,1.861 8.792,4.103 12.887,6.704c4.456,2.821 8.565,6.155 12.245,9.932c1.673,1.722 3.235,3.549 4.676,5.469c0.692,0.916 1.352,1.847 1.977,2.793c0.146,0.224 0.771,1.184 0.889,1.425c0.08,0.155 0.149,0.315 0.206,0.48c0.076,0.213 0.142,0.429 0.196,0.648c0.139,0.551 0.242,1.111 0.307,1.676" style="fill:none;stroke:#000;stroke-width:0.67px;"/><path d="M246.775,130.57l-1.91,0.816l-11.2,-0.559l-1.358,-0.966" style="fill:none;stroke:#000;stroke-width:0.67px;"/><path d="M241.837,130.33l0.274,-0.894l3.637,0.118l3.647,0.061l3.659,0.006l0.252,-0.889" style="fill:none;stroke:#000;stroke-width:0.67px;"/><path d="M372.522,69.652l1.441,0.006l0.341,2.033l1.335,-0.681" style="fill:none;stroke:#000;stroke-width:0.67px;"/><path d="M344.63,111.309l-7.737,3.799l-2.28,-0.056" style="fill:none;stroke:#000;stroke-width:0.67px;"/><path d="M338.055,113.37l-1.123,-0.614l-2.603,1.19l-2.682,1.15l-2.754,1.123l-1.123,-0.625" style="fill:none;stroke:#000;stroke-width:0.67px;"/><path d="M178.484,100.002l0.083,0.263l0.179,0.24l0.263,0.218l0.346,0.184l0.414,0.151l0.474,0.106l5.028,0.844l0.296,-0.81" style="fill:none;stroke:#000;stroke-width:0.67px;"/><path d="M233.592,115.661l3.368,-1.425l-3.999,1.089l0.631,0.336l0.564,0.363l0.497,0.396l0.419,0.419l0.335,0.442l0.263,0.458l0.173,0.475l0.09,0.486" style="fill:none;stroke:#000;stroke-width:0.67px;"/><path d="M322.564,41.632l0.073,0.206l0.145,0.19l0.223,0.185l0.296,0.162l1.799,0.866l1.743,0.893l1.687,0.922l1.631,0.95l1.57,0.972l1.508,1.005l1.441,1.023l1.386,1.05l1.313,1.078l1.24,1.095l1.178,1.117l1.101,1.14l1.028,1.162l0.955,1.184l0.877,1.195l0.799,1.218l0.721,1.235l0.636,1.251l0.553,1.263l0.47,1.279l0.391,1.29l0.296,1.302l0.212,1.313l0.123,1.318l0.033,1.329" style="fill:none;stroke:#000;stroke-width:0.67px;"/><path d="M232.268,115.029l-0.151,4.967l0.481,-0.174l-0.33,-4.793l0.693,0.296" style="fill:none;stroke:#000;stroke-width:0.67px;"/><path d="M232.598,119.822l0.458,-0.139l-0.095,-4.358" style="fill:none;stroke:#000;stroke-width:0.67px;"/><path d="M233.056,119.683l0.441,-0.101l0.095,-3.921" style="fill:none;stroke:#000;stroke-width:0.67px;"/><path d="M234.933,119.621l-0.285,-3.201" style="fill:none;stroke:#000;stroke-width:0.67px;"/><path d="M237.223,115.113l2.726,0.212l2.743,0.174l2.759,0.128l2.771,0.095l1.207,-0.816" style="fill:none;stroke:#000;stroke-width:0.67px;"/><path d="M251.982,120.437l0.167,0.033l0.151,0.09l0.14,0.128l0.134,0.179l0.117,0.235l0.101,0.262l0.078,0.307l0.073,0.352l0.044,0.397l0.034,0.408l-0.335,-7.045l-9.318,12.804" style="fill:none;stroke:#000;stroke-width:0.67px;"/><path d="M252.686,115.783l3.178,-0.016l3.184,-0.067l3.185,-0.123l3.173,-0.173l3.167,-0.224l3.151,-0.274l3.133,-0.324l3.112,-0.374l3.078,-0.424l3.056,-0.475l3.016,-0.52l2.978,-0.57l2.938,-0.608l2.894,-0.66l2.838,-0.703l2.793,-0.749l2.731,-0.788l2.671,-0.826l2.614,-0.866l2.542,-0.905l-0.481,-0.816" style="fill:none;stroke:#000;stroke-width:0.67px;"/><path d="M312.118,106.114l2.48,-0.944l20.513,7.301" style="fill:none;stroke:#000;stroke-width:0.67px;"/><path d="M315.883,104.661l2.078,-0.871l2.028,-0.9l1.966,-0.921l1.905,-0.944l-0.693,-0.771" style="fill:none;stroke:#000;stroke-width:0.67px;"/><path d="M323.86,101.025l1.843,-0.967l12.81,10.77" style="fill:none;stroke:#000;stroke-width:0.67px;"/><path d="M326.787,99.466l1.978,-1.14l1.899,-1.167l1.81,-1.19l1.72,-1.212l1.637,-1.235l1.542,-1.251l1.452,-1.268l1.363,-1.285l1.269,-1.296l1.178,-1.313l1.078,-1.324l0.989,-1.329l0.894,-1.341l0.804,-1.341l0.704,-1.351l0.615,-1.352l0.519,-1.352l0.425,-1.358l0.329,-1.351l0.241,-1.352l0.15,-1.347l21.736,-2.256l0.107,1.363l0.033,1.363" style="fill:none;stroke:#000;stroke-width:0.67px;"/><path d="M348.814,65.787l22.009,2.268l0.207,1.307" style="fill:none;stroke:#000;stroke-width:0.67px;"/><path d="M322.558,42.006l0.006,-0.374l0.011,-0.201" style="fill:none;stroke:#000;stroke-width:0.67px;"/><path d="M322.502,45.693l0.056,-3.687" style="fill:none;stroke:#000;stroke-width:0.67px;"/><path d="M335.423,54.257l1.257,1" style="fill:none;stroke:#000;stroke-width:0.67px;"/><path d="M324.687,47.676l-1.291,-0.626" style="fill:none;stroke:#000;stroke-width:0.67px;"/><path d="M345.35,65.58l0.106,0.318" style="fill:none;stroke:#000;stroke-width:0.67px;"/><path d="M345.177,65.161l-0.112,-0.196l-0.681,-1.161l-0.749,-1.146" style="fill:none;stroke:#000;stroke-width:0.67px;"/><path d="M345.244,65.306l0.106,0.274" style="fill:none;stroke:#000;stroke-width:0.67px;"/><path d="M345.177,65.161l0.089,0.196l-0.022,-0.051l-0.078,-0.156" style="fill:none;stroke:#000;stroke-width:0.67px;"/><path d="M346.037,70.781l-0.005,-0.458l-0.017,-0.492l-0.028,-0.497l-0.039,-0.497l-0.045,-0.492l-0.056,-0.475l0.006,0.023l0.05,0.475l0.05,0.48" style="fill:none;stroke:#000;stroke-width:0.67px;"/><path d="M346.037,70.781l0,0.463l-0.016,0.47l0.016,-0.436l0,-0.469l0,-0.028" style="fill:none;stroke:#000;stroke-width:0.67px;"/><path d="M346.238,76.529l-0.044,-0.324l-0.045,-0.335l-0.045,-0.352l-0.033,-0.363l-0.028,-0.369l-0.028,-0.374l-0.017,-0.374l-0.011,-0.375l-0.006,-0.363l0,-0.357l0.006,-0.352" style="fill:none;stroke:#000;stroke-width:0.67px;"/><path d="M180.07,105.963l-0.324,-0.173l0.09,0.05l0.312,0.168l-0.078,-0.045Z" style="fill:none;stroke:#000;stroke-width:0.67px;"/><path d="M180.897,98.226l0.492,-0.073l0.541,-0.033l0.537,0.011l0.508,0.061l0.469,0.101l0.414,0.145l0.346,0.185l1.776,1.117l1.866,1.089l1.955,1.056l2.039,1.022l2.123,0.995l2.201,0.96l2.279,0.922l2.358,0.883l2.424,0.849l2.503,0.804l2.564,0.766l2.637,0.726l2.692,0.676l2.749,0.637l2.809,0.586l2.855,0.542l2.905,0.497l2.949,0.447l2.989,0.397l3.028,0.346l3.055,0.296l3.09,0.246l3.106,0.195l3.128,0.14l3.145,0.089l3.156,0.04l3.162,-0.012l3.167,-0.067l3.162,-0.117l3.162,-0.173l3.145,-0.218l3.134,-0.274l3.117,-0.324l3.089,-0.374l3.067,-0.425l3.033,-0.469l3,-0.519l2.961,-0.57l2.916,-0.609l2.871,-0.659l2.821,-0.704l2.771,-0.743l2.709,-0.788l2.654,-0.832l2.586,-0.866l2.525,-0.905l2.453,-0.944l2.385,-0.972l2.307,-1.011l2.229,-1.045l2.156,-1.072l2.073,-1.101l1.988,-1.134l1.905,-1.151l1.816,-1.184l1.732,-1.201l1.642,-1.223l1.553,-1.24l1.458,-1.263l1.369,-1.274l1.273,-1.29l1.184,-1.302l1.09,-1.312l0.994,-1.324l0.894,-1.335l0.804,-1.335l0.71,-1.347l0.614,-1.346l0.319,-0.821" style="fill:none;stroke:#000;stroke-width:0.67px;"/><path d="M178.975,104.343l-0.491,-4.341l0.011,-0.268l0.05,-0.139" style="fill:none;stroke:#000;stroke-width:0.67px;"/><path d="M186.098,106.119l-0.531,-4.921l-4.637,-0.782l-0.234,-0.056l-0.207,-0.073l-0.173,-0.089l-0.134,-0.112l-0.089,-0.117l-0.045,-0.134" style="fill:none;stroke:#000;stroke-width:0.67px;"/><path d="M181.78,106.387l1.782,0.302l2.351,0.402l0.028,-0.016l0.028,-0.04l0.028,-0.061l0.151,-0.408l-0.05,-0.447" style="fill:none;stroke:#000;stroke-width:0.67px;"/><path d="M234.625,119.543l-0.34,-0.033l0.642,0.061" style="fill:none;stroke:#000;stroke-width:0.67px;"/><path d="M236.106,121.454l-0.056,-0.336l-0.09,-0.335l-0.134,-0.329l-0.178,-0.296l-0.207,-0.235l-0.24,-0.179l-0.268,-0.123l-0.308,-0.078" style="fill:none;stroke:#000;stroke-width:0.67px;"/><path d="M246.87,132.363l-0.095,-1.793l-4.938,-0.24" style="fill:none;stroke:#000;stroke-width:0.67px;"/><path d="M232.424,131.626l0.073,1.028l1.352,0.978l11.172,0.553l1.905,-0.816l-0.056,-1.006" style="fill:none;stroke:#000;stroke-width:0.67px;"/><path d="M237.513,129.213l-0.279,0.888l-4.927,-0.24l0.117,1.765" style="fill:none;stroke:#000;stroke-width:0.67px;"/><path d="M235.933,118.7l0.173,2.754l0.625,6.809" style="fill:none;stroke:#000;stroke-width:0.67px;"/><path d="M231.117,127.833l2.441,0.207l3.257,0.229" style="fill:none;stroke:#000;stroke-width:0.67px;"/><path d="M232.424,131.626l-1.877,-0.156l-3.525,-0.347l-0.201,-2.793l0.302,-0.882l3.207,0.318l0.787,0.067" style="fill:none;stroke:#000;stroke-width:0.67px;"/><path d="M253.401,130.715l-0.095,-1.983l-3.324,-0.005l-3.313,-0.045l-3.301,-0.095" style="fill:none;stroke:#000;stroke-width:0.67px;"/><path d="M246.87,132.363l2.671,0.045l3.647,0.006l0.252,-0.894l-0.039,-0.805" style="fill:none;stroke:#000;stroke-width:0.67px;"/><path d="M251.982,120.437l-0.173,0.011l-0.174,0.056l-0.178,0.1l-0.19,0.151l-0.19,0.201l-0.185,0.229l-5.396,7.464" style="fill:none;stroke:#000;stroke-width:0.67px;"/><path d="M344.63,110.192l0,-0.039l0,1.156l-0.006,0.14" style="fill:none;stroke:#000;stroke-width:0.67px;"/><path d="M334.574,116.538l0.039,-1.486l3.442,-1.682" style="fill:none;stroke:#000;stroke-width:0.67px;"/><path d="M344.529,114.041l-7.72,3.809l-2.268,-0.055l0.033,-1.257" style="fill:none;stroke:#000;stroke-width:0.67px;"/><path d="M328.502,112.867l-9.659,-3.457l-0.402,-0.129l-0.419,-0.089l-0.407,-0.045l-0.386,-0.006l-0.369,0.04l-0.363,0.083l-0.346,0.123" style="fill:none;stroke:#000;stroke-width:0.67px;"/><path d="M334.574,116.538l-0.318,0.145l-2.676,1.156l-2.748,1.129l-1.123,-0.626l0.061,-2.748l2.509,-1.012l1.379,-0.586" style="fill:none;stroke:#000;stroke-width:0.67px;"/><path d="M326.614,104.516l0.218,-0.067l0.229,-0.017l0.229,0.023l0.246,0.067l0.251,0.117l0.263,0.156l0.251,0.196l5.257,4.447" style="fill:none;stroke:#000;stroke-width:0.67px;"/><path d="M326.614,104.516l-0.196,0.112l0.202,-0.112" style="fill:none;stroke:#000;stroke-width:0.67px;"/><path d="M323.905,41.609l0.033,0.101l0.078,0.101l0.112,0.089l0.145,0.078l1.788,0.86l1.732,0.883l1.184,0.648" style="fill:none;stroke:#000;stroke-width:0.67px;"/><path d="M315.81,111.594l0.022,-0.402l0.068,-0.408l0.111,-0.374l0.145,-0.336l0.185,-0.307l0.229,-0.285l0.257,-0.251l0.084,-0.056" style="fill:none;stroke:#000;stroke-width:0.67px;"/><path d="M332.178,110.443l4.122,1.464l0.112,-0.056" style="fill:none;stroke:#000;stroke-width:0.67px;"/><path d="M336.2,107.354l3.458,2.905l2.178,-1.151l2.101,-1.168l2.033,-1.195l1.129,0.598l-0.106,2.715l-2.235,1.318l-0.134,0.073" style="fill:none;stroke:#000;stroke-width:0.67px;"/><path d="M364.801,70.01l6.229,-0.648" style="fill:none;stroke:#000;stroke-width:0.67px;"/><path d="M348.814,65.787l0.262,1.15l0.19,1.157l0.123,1.162l0.045,0.938" style="fill:none;stroke:#000;stroke-width:0.67px;"/><path d="M372.717,72.647l-0.039,1.508l-0.156,2.586" style="fill:none;stroke:#000;stroke-width:0.67px;"/><path d="M349.16,78.529l0.084,-0.419l0.134,-0.408l0.167,-0.385l0.213,-0.375l0.257,-0.374l0.296,-0.352l0.307,-0.313l0.346,-0.296l0.38,-0.279l0.402,-0.24l0.397,-0.201l0.419,-0.168l0.447,-0.145l0.447,-0.101l0.43,-0.067l17.083,-1.782l0.106,1.363l0.028,1.374" style="fill:none;stroke:#000;stroke-width:0.67px;"/><path d="M373.198,67.775l0.117,-1.994l1.547,0.665l0.777,4.564l-0.162,2.575l-1.33,0.682l-0.341,-2.045l-1.106,0" style="fill:none;stroke:#000;stroke-width:0.67px;"/><path d="M369.835,67.284l-0.006,-0.023l-0.464,-1.312l0.146,-2.542l1.43,0.006l0.508,1.441l0.425,1.452l0.34,1.469l0.984,0" style="fill:none;stroke:#000;stroke-width:0.67px;"/><path d="M180.903,98.226c0.824,0.687 1.491,1.545 1.955,2.514" style="fill:none;stroke:#000;stroke-width:0.67px;"/><path d="M112.79,56.374c2.111,6.279 6.776,11.759 11.563,15.982c5.056,4.333 10.618,8.039 16.563,11.038c11.569,6.028 24.904,10.408 37.462,13.514" style="fill:none;stroke:#000;stroke-width:0.67px;"/><path d="M323.575,40.671c-0.052,-0.169 -0.114,-0.335 -0.184,-0.497c-0.021,-0.048 -0.045,-0.095 -0.073,-0.14c-0.032,-0.06 -0.067,-0.117 -0.106,-0.173c-0.145,-0.24 -0.296,-0.48 -0.447,-0.721c-0.302,-0.48 -0.614,-0.955 -0.938,-1.424c-0.654,-0.961 -1.336,-1.888 -2.051,-2.793c-1.488,-1.891 -3.094,-3.686 -4.809,-5.374c-3.793,-3.708 -8.007,-6.957 -12.558,-9.681c-4.007,-2.414 -8.208,-4.492 -12.558,-6.212c-1.177,-0.469 -2.365,-0.916 -3.564,-1.341c-1.199,-0.424 -2.445,-0.84 -3.737,-1.246c-1.289,-0.402 -2.592,-0.774 -3.911,-1.117c-1.318,-0.342 -2.666,-0.696 -4.044,-1.061c-1.155,-0.272 -2.313,-0.533 -3.475,-0.782c-1.184,-0.246 -2.374,-0.486 -3.558,-0.704c-1.184,-0.218 -2.425,-0.441 -3.637,-0.643c-1.212,-0.201 -2.463,-0.391 -3.698,-0.558c-2.514,-0.373 -5.035,-0.684 -7.564,-0.933c-2.528,-0.25 -5.109,-0.477 -7.742,-0.682c-2.466,-0.171 -4.933,-0.303 -7.402,-0.396c-2.469,-0.093 -4.964,-0.153 -7.486,-0.179c-5.042,-0.045 -10.083,0.054 -15.121,0.296c-5.039,0.242 -10.048,0.628 -15.027,1.156c-4.961,0.533 -9.897,1.213 -14.81,2.039c-2.528,0.429 -5.048,0.9 -7.558,1.414c-2.51,0.514 -4.977,1.063 -7.402,1.648c-2.42,0.581 -4.826,1.203 -7.217,1.866c-2.391,0.662 -4.72,1.357 -6.988,2.083c-2.54,0.812 -5.063,1.68 -7.57,2.603c-1.217,0.455 -2.43,0.922 -3.636,1.403c-1.179,0.474 -2.358,0.966 -3.525,1.474c-1.168,0.509 -2.274,1.006 -3.402,1.536c-1.129,0.531 -2.184,1.051 -3.268,1.604c-1.084,0.553 -2.084,1.117 -3.112,1.676c-1.028,0.558 -1.977,1.117 -2.949,1.731c-2.626,1.596 -5.119,3.399 -7.458,5.391c-1.039,0.893 -2.028,1.845 -2.961,2.849c-0.855,0.924 -1.65,1.901 -2.379,2.927c-1.315,1.828 -2.347,3.843 -3.062,5.978c-0.641,1.954 -0.961,3.999 -0.949,6.055" style="fill:none;stroke:#000;stroke-width:0.67px;"/><path d="M111.639,49.726c0.311,-0.954 0.684,-1.887 1.117,-2.793c0.456,-0.944 0.969,-1.86 1.536,-2.743c0.598,-0.929 1.247,-1.824 1.944,-2.681c0.742,-0.907 1.528,-1.776 2.358,-2.603c0.877,-0.877 1.798,-1.715 2.748,-2.514c0.95,-0.799 2.045,-1.642 3.106,-2.413c1.061,-0.771 2.235,-1.576 3.43,-2.313c1.195,-0.737 2.452,-1.503 3.704,-2.235c4.088,-2.259 8.309,-4.268 12.641,-6.016c1.14,-0.469 2.281,-0.922 3.425,-1.357c1.143,-0.436 2.316,-0.868 3.519,-1.296c1.19,-0.425 2.391,-0.838 3.592,-1.241c1.201,-0.402 2.447,-0.793 3.676,-1.173c4.562,-1.407 9.17,-2.649 13.826,-3.726c2.387,-0.558 4.778,-1.076 7.172,-1.553c2.395,-0.476 4.832,-0.92 7.313,-1.329c2.379,-0.399 4.763,-0.756 7.15,-1.073c2.387,-0.316 4.795,-0.603 7.223,-0.86c4.842,-0.503 9.694,-0.875 14.558,-1.117c4.864,-0.242 9.748,-0.335 14.653,-0.28c2.42,0.023 4.841,0.079 7.262,0.168c2.42,0.089 4.813,0.216 7.178,0.38c2.499,0.167 4.992,0.378 7.48,0.631c2.447,0.252 4.882,0.559 7.323,0.883c2.442,0.324 4.754,0.704 7.117,1.117c1.155,0.209 2.311,0.43 3.469,0.665c1.159,0.234 2.291,0.478 3.397,0.732c1.303,0.297 2.607,0.612 3.91,0.944c1.304,0.331 2.557,0.679 3.76,1.044c2.394,0.704 4.761,1.492 7.1,2.363c4.279,1.603 8.431,3.528 12.418,5.76c4.478,2.484 8.683,5.431 12.547,8.792c3.462,3.011 6.571,6.405 9.267,10.117" style="fill:none;stroke:#000;stroke-width:0.67px;"/><path d="M322.502,45.693c-0.599,-0.95 -1.229,-1.881 -1.888,-2.793c-0.676,-0.927 -1.374,-1.832 -2.106,-2.715c-0.731,-0.883 -1.525,-1.788 -2.329,-2.642c-0.805,-0.855 -1.676,-1.738 -2.547,-2.57c-0.872,-0.832 -1.827,-1.676 -2.794,-2.486c-0.966,-0.81 -1.988,-1.62 -3.016,-2.391c-1.028,-0.771 -2.151,-1.564 -3.257,-2.301c-1.106,-0.738 -2.318,-1.497 -3.508,-2.201c-4.002,-2.34 -8.187,-4.352 -12.513,-6.017c-4.912,-1.887 -9.952,-3.42 -15.083,-4.586c-1.147,-0.264 -2.298,-0.516 -3.452,-0.754c-1.155,-0.238 -2.33,-0.468 -3.525,-0.687c-2.414,-0.44 -4.834,-0.827 -7.262,-1.162c-1.233,-0.175 -2.471,-0.335 -3.715,-0.481c-1.244,-0.145 -2.497,-0.284 -3.76,-0.419c-2.542,-0.257 -5.089,-0.463 -7.636,-0.636c-2.443,-0.157 -4.883,-0.28 -7.318,-0.369c-2.436,-0.089 -4.903,-0.138 -7.402,-0.145c-4.983,-0.026 -9.96,0.091 -14.932,0.352c-4.972,0.26 -9.921,0.666 -14.848,1.217c-2.454,0.276 -4.905,0.589 -7.352,0.939c-2.446,0.35 -4.867,0.735 -7.262,1.156c-2.499,0.443 -4.985,0.926 -7.457,1.447c-2.473,0.521 -4.907,1.08 -7.302,1.676c-1.201,0.302 -2.391,0.603 -3.586,0.922c-1.195,0.318 -2.357,0.642 -3.53,0.977c-2.313,0.659 -4.611,1.363 -6.894,2.112c-1.247,0.402 -2.495,0.83 -3.743,1.285c-1.229,0.435 -2.458,0.888 -3.675,1.357c-1.218,0.469 -2.397,0.927 -3.581,1.419c-1.184,0.492 -2.324,0.972 -3.469,1.486c-4.324,1.896 -8.506,4.101 -12.513,6.597c-0.665,0.425 -1.324,0.855 -1.978,1.302c-0.654,0.447 -1.257,0.877 -1.871,1.329c-1.173,0.866 -2.307,1.777 -3.397,2.743c-1.01,0.895 -1.972,1.842 -2.882,2.838c-0.833,0.922 -1.609,1.894 -2.324,2.911c-0.658,0.944 -1.25,1.933 -1.771,2.96c-0.49,0.966 -0.906,1.967 -1.246,2.994c-0.321,0.984 -0.566,1.99 -0.731,3.011c-0.162,1.002 -0.246,2.014 -0.252,3.028" style="fill:none;stroke:#000;stroke-width:0.67px;"/><path d="M114.437,64.753c-1.66,-2.435 -2.976,-5.087 -3.91,-7.882" style="fill:none;stroke:#000;stroke-width:0.67px;"/><path d="M181.02,106.734c0.506,0.069 1.022,-0.009 1.486,-0.224" style="fill:none;stroke:#000;stroke-width:0.67px;"/><path d="M181.612,98.902l0.162,-0.006l0.268,0.006l0.251,0.028l0.235,0.05l0.207,0.073l0.173,0.095l1.765,1.111l1.849,1.078l1.933,1.056l2.017,1.023l2.095,0.994l2.178,0.955l2.251,0.927l2.324,0.889l2.397,0.849l2.469,0.81l2.536,0.771l2.598,0.731l2.659,0.693l2.715,0.643l2.77,0.603l2.821,0.559l2.872,0.508l2.91,0.464l2.955,0.419l0.872,0.139l0.838,0.179l0.793,0.223l0.743,0.257" style="fill:none;stroke:#000;stroke-width:0.67px;"/><path d="M323.569,40.665l-0.173,0.062l-0.313,0.151l-0.24,0.167l-0.173,0.19l-0.095,0.196" style="fill:none;stroke:#000;stroke-width:0.67px;"/><path d="M323.307,47l-0.179,-0.1" style="fill:none;stroke:#000;stroke-width:0.67px;"/><path d="M324.687,47.682c-0.271,0.038 -0.547,-0.011 -0.788,-0.14c-0.239,-0.136 -0.442,-0.328 -0.592,-0.559" style="fill:none;stroke:#000;stroke-width:0.67px;"/><path d="M178.545,99.6c-0.244,-0.141 -0.508,-0.246 -0.782,-0.313" style="fill:none;stroke:#000;stroke-width:0.67px;"/><path d="M111.912,52.91c0.203,1.183 0.496,2.348 0.878,3.486" style="fill:none;stroke:#000;stroke-width:0.67px;"/><path d="M322.497,45.911l0.005,-0.218" style="fill:none;stroke:#000;stroke-width:0.67px;"/><path d="M326.709,48.71l-0.006,0l-1.62,-0.838l-0.396,-0.196" style="fill:none;stroke:#000;stroke-width:0.67px;"/><path d="M346.484,77.719l-0.022,-0.067" style="fill:none;stroke:#000;stroke-width:0.67px;"/><path d="M179.176,105.181l-0.05,-0.106l-0.084,-0.263l-0.028,-0.112l-0.039,-0.357" style="fill:none;stroke:#000;stroke-width:0.67px;"/><path d="M181.003,106.253l0.777,0.134" style="fill:none;stroke:#000;stroke-width:0.67px;"/><path d="M346.484,77.719l0.056,0.184l0.045,0.168" style="fill:none;stroke:#000;stroke-width:0.67px;"/><path d="M237.513,129.213l-3.592,-0.24l-3.564,-0.291l-3.536,-0.352" style="fill:none;stroke:#000;stroke-width:0.67px;"/><path d="M370.695,67.368l-0.324,-1.33l-0.397,-1.318l-0.463,-1.313" style="fill:none;stroke:#000;stroke-width:0.67px;"/><path d="M371.214,74.155l1.464,0" style="fill:none;stroke:#000;stroke-width:0.67px;"/><path d="M340.116,111.203l2.413,-1.257l2.33,-1.291l2.24,-1.312" style="fill:none;stroke:#000;stroke-width:0.67px;"/><path d="M185.913,107.091l-0.028,-0.011l-0.027,-0.028l-0.023,-0.056l-0.022,-0.072l-0.023,-0.095l-0.011,-0.112l-0.508,-4.709" style="fill:none;stroke:#000;stroke-width:0.67px;"/><path d="M233.849,133.626l-0.184,-2.793" style="fill:none;stroke:#000;stroke-width:0.67px;"/><path d="M245.021,134.185l-0.156,-2.799" style="fill:none;stroke:#000;stroke-width:0.67px;"/><path d="M253.188,132.419l-0.134,-2.798" style="fill:none;stroke:#000;stroke-width:0.67px;"/><path d="M242.161,130.341l-0.05,-0.905" style="fill:none;stroke:#000;stroke-width:0.67px;"/><path d="M328.832,118.968l0.061,-2.749" style="fill:none;stroke:#000;stroke-width:0.67px;"/><path d="M336.809,117.85l0.084,-2.742" style="fill:none;stroke:#000;stroke-width:0.67px;"/><path d="M314.598,105.17l-0.067,6.943l0.028,-0.407l0.067,-0.403l0.112,-0.38l0.145,-0.335l0.184,-0.307l0.229,-0.285l0.263,-0.246l0.279,-0.195l0.313,-0.168" style="fill:none;stroke:#000;stroke-width:0.67px;"/><path d="M349.076,66.937l-1.452,-0.072" style="fill:none;stroke:#000;stroke-width:0.67px;"/><path d="M372.522,69.652l0.139,1.492l0.039,1.078" style="fill:none;stroke:#000;stroke-width:0.67px;"/><path d="M340.116,111.203l1.123,0.609l3.391,-1.659" style="fill:none;stroke:#000;stroke-width:0.67px;"/><path d="M343.635,62.658l-0.815,-1.128l-0.822,-1.034" style="fill:none;stroke:#000;stroke-width:0.67px;"/><path d="M346.585,78.071l0.206,-0.525l0.425,-1.347l0.335,-1.351l0.24,-1.341l0.146,-1.341" style="fill:none;stroke:#000;stroke-width:0.67px;"/><path d="M331.658,113.996l1.073,-0.458l2.38,-1.067" style="fill:none;stroke:#000;stroke-width:0.67px;"/><path d="M328.977,44.369l0.497,0.268l1.62,0.933l1.57,0.966l1.503,0.989l1.446,1.011l1.386,1.034l1.318,1.061l1.251,1.084l1.185,1.1l1.117,1.129l1.045,1.145l0.972,1.162l0.905,1.184l0.821,1.201l0.748,1.218l0.671,1.229l0.592,1.251l0.201,0.369l0.274,0.363l0.346,0.352l0.413,0.341l0.481,0.324l0.542,0.302l0.592,0.279l0.648,0.251l0.698,0.229l0.732,0.201l0.765,0.168l0.799,0.134l0.81,0.101l14.91,1.536" style="fill:none;stroke:#000;stroke-width:0.67px;"/><path d="M251.004,115.772l-9.323,12.748l-3.19,-0.156" style="fill:none;stroke:#000;stroke-width:0.67px;"/><path d="M336.412,111.851l2.101,-1.023" style="fill:none;stroke:#000;stroke-width:0.67px;"/><path d="M336.893,113.934l0.039,-1.178" style="fill:none;stroke:#000;stroke-width:0.67px;"/><path d="M370.745,69.39l0.078,-1.335" style="fill:none;stroke:#000;stroke-width:0.67px;"/><path d="M372.7,72.222l0.017,0.425" style="fill:none;stroke:#000;stroke-width:0.67px;"/><path d="M323.91,41.621l0,-0.112" style="fill:none;stroke:#000;stroke-width:0.67px;"/><path d="M341.998,60.496l-0.067,-0.078" style="fill:none;stroke:#000;stroke-width:0.67px;"/><path d="M337.809,56.217l-1.162,-0.988" style="fill:none;stroke:#000;stroke-width:0.67px;"/><path d="M345.54,66.206l-0.089,-0.33" style="fill:none;stroke:#000;stroke-width:0.67px;"/><path d="M346.015,74.406l0.028,0.386l0.033,0.38l0.034,0.368l0.039,0.33" style="fill:none;stroke:#000;stroke-width:0.67px;"/><path d="M346.238,76.529l0.006,0.045l0.056,0.307l0.05,0.285" style="fill:none;stroke:#000;stroke-width:0.67px;"/><path d="M347.937,72.166l0.055,-1.341" style="fill:none;stroke:#000;stroke-width:0.67px;"/><path d="M344.624,111.449l-0.095,2.592" style="fill:none;stroke:#000;stroke-width:0.67px;"/><path d="M331.658,113.996l-3.156,-1.129" style="fill:none;stroke:#000;stroke-width:0.67px;"/><path d="M333.558,109.438l2.854,2.413" style="fill:none;stroke:#000;stroke-width:0.67px;"/><path d="M369.835,67.284l0.86,0.089" style="fill:none;stroke:#000;stroke-width:0.67px;"/><path d="M237.223,115.113l1.268,13.251" style="fill:none;stroke:#000;stroke-width:0.67px;"/><path d="M333.558,109.438l-1.067,0.793l-0.313,0.212" style="fill:none;stroke:#000;stroke-width:0.67px;"/><path d="M328.502,112.867l-1.519,0.917l-1.995,1.134l-2.078,1.106l-2.156,1.078l-2.229,1.044l-2.301,1.012l-2.369,0.977l-2.441,0.944l-2.503,0.905l-2.564,0.866l-2.631,0.832l-2.681,0.788l-2.738,0.743l-2.787,0.704l-2.832,0.654l-2.877,0.614l-2.922,0.564l-2.955,0.52l-2.989,0.469l-3.016,0.425l-3.039,0.368l-3.067,0.324l-3.078,0.274l-3.095,0.218l-3.106,0.167l-3.111,0.118l-3.112,0.067l-2.91,0.016" style="fill:none;stroke:#000;stroke-width:0.67px;"/><path d="M231.117,127.833l-0.084,-0.089l-0.301,-0.369l-0.268,-0.391l-0.229,-0.408l-0.19,-0.419l-0.14,-0.424l-0.095,-0.419l-0.05,-0.408l-0.067,-0.944l-0.051,-0.408l-0.095,-0.425l-0.139,-0.424l-0.19,-0.425l-0.229,-0.413l-0.268,-0.391l-0.302,-0.374l-0.324,-0.347l-0.357,-0.324l-0.386,-0.301l-0.419,-0.28l-0.436,-0.246l-0.458,-0.212l-0.458,-0.173l-0.458,-0.134l-0.447,-0.089l-2.776,-0.481l-2.732,-0.519l-2.687,-0.57l-2.642,-0.603l-2.586,-0.648l-2.531,-0.688l-2.475,-0.731l-2.413,-0.766l-2.346,-0.799l-2.291,-0.837l-2.217,-0.878l-2.151,-0.904l-2.078,-0.939l-2.006,-0.966l-1.927,-1l-1.854,-1.028l-0.866,-0.52" style="fill:none;stroke:#000;stroke-width:0.67px;"/><path d="M349.428,70.194l0.011,0.229" style="fill:none;stroke:#000;stroke-width:0.67px;"/><path d="M348.886,84.903l-0.056,1.357" style="fill:none;stroke:#000;stroke-width:0.67px;"/><path d="M348.886,84.903l0.023,-0.564" style="fill:none;stroke:#000;stroke-width:0.67px;"/><path d="M349.439,70.423l-0.011,1.179" style="fill:none;stroke:#000;stroke-width:0.67px;"/><path d="M371.259,72.781l-0.156,2.58" style="fill:none;stroke:#000;stroke-width:0.67px;"/><path d="M373.198,67.775l0.452,0" style="fill:none;stroke:#000;stroke-width:0.67px;"/><path d="M364.801,70.01l-11.463,-1.19l-0.435,-0.028l-0.453,0.011l-0.447,0.045l-0.424,0.084l-0.397,0.123l-0.402,0.156l-0.385,0.196l-0.341,0.223l-0.313,0.251l-0.291,0.291l-0.016,0.022" style="fill:none;stroke:#000;stroke-width:0.67px;"/><path d="M373.65,67.775l-0.33,-1.994" style="fill:none;stroke:#000;stroke-width:0.67px;"/><path d="M328.999,43.369l-1.396,-0.028" style="fill:none;stroke:#000;stroke-width:0.67px;"/><path d="M231.626,120.197l0.491,-0.201" style="fill:none;stroke:#000;stroke-width:0.67px;"/><path d="M234.285,119.51l-0.375,0.016l-0.413,0.056" style="fill:none;stroke:#000;stroke-width:0.67px;"/><path d="M251.004,115.772l-2.782,-0.05" style="fill:none;stroke:#000;stroke-width:0.67px;"/><path d="M325.703,100.058l-0.134,6.894l0.023,-0.397l0.044,-0.391l0.079,-0.358l0.095,-0.307l0.117,-0.274l0.145,-0.245l0.168,-0.201l0.178,-0.151" style="fill:none;stroke:#000;stroke-width:0.67px;"/><path d="M349.121,78.925l0.262,-6.614" style="fill:none;stroke:#000;stroke-width:0.67px;"/><path d="M374.147,74.267l0.157,-2.576" style="fill:none;stroke:#000;stroke-width:0.67px;"/><path d="M370.969,72.624l0.15,-2.569" style="fill:none;stroke:#000;stroke-width:0.67px;"/><path d="M373.806,72.222l0.157,-2.564" style="fill:none;stroke:#000;stroke-width:0.67px;"/><path d="M322.854,46.671l-0.061,-0.073l-0.145,-0.19" style="fill:none;stroke:#000;stroke-width:0.67px;"/><path d="M323.128,46.9l-0.067,-0.056l-0.207,-0.173" style="fill:none;stroke:#000;stroke-width:0.67px;"/><path d="M322.497,45.911l0.011,0.106l0.028,0.101l0.067,0.201l0.045,0.089" style="fill:none;stroke:#000;stroke-width:0.67px;"/><path d="M341.993,60.496l-0.95,-1.1l-1.017,-1.078l-1.078,-1.056l-1.139,-1.045" style="fill:none;stroke:#000;stroke-width:0.67px;"/><path d="M335.423,54.257l-1.318,-0.984l-1.374,-0.955l-1.43,-0.938l-1.481,-0.916l-1.53,-0.889l-1.581,-0.865" style="fill:none;stroke:#000;stroke-width:0.67px;"/><path d="M323.396,47.05l-0.089,-0.05" style="fill:none;stroke:#000;stroke-width:0.67px;"/><path d="M323.463,47.084" style="fill:none;stroke:#000;stroke-width:0.67px;"/><path d="M345.54,66.206l0.089,0.385l0.084,0.408l0.073,0.441l0.067,0.453" style="fill:none;stroke:#000;stroke-width:0.67px;"/><path d="M346.462,77.652l-0.056,-0.229l-0.056,-0.257" style="fill:none;stroke:#000;stroke-width:0.67px;"/><path d="M345.987,72.591l0.034,-0.877" style="fill:none;stroke:#000;stroke-width:0.67px;"/><path d="M179.411,105.51l0.084,0.073l0.251,0.207" style="fill:none;stroke:#000;stroke-width:0.67px;"/><path d="M179.411,105.51l-0.061,-0.089l-0.174,-0.24" style="fill:none;stroke:#000;stroke-width:0.67px;"/><path d="M180.523,106.142l-0.375,-0.134" style="fill:none;stroke:#000;stroke-width:0.67px;"/><path d="M181.003,106.253l-0.056,-0.011l-0.424,-0.1" style="fill:none;stroke:#000;stroke-width:0.67px;"/><path d="M251.351,122.811l-0.034,-0.402l-0.05,-0.397l-0.067,-0.352l-0.084,-0.301l-0.101,-0.269l-0.016,-0.039" style="fill:none;stroke:#000;stroke-width:0.67px;"/><path d="M315.883,104.661l16.295,5.782" style="fill:none;stroke:#000;stroke-width:0.67px;"/><path d="M326.647,106.354l0.023,-0.402l0.044,-0.391l0.079,-0.352l0.095,-0.308l0.123,-0.279l0.111,-0.184" style="fill:none;stroke:#000;stroke-width:0.67px;"/><path d="M326.787,99.466l9.413,7.888" style="fill:none;stroke:#000;stroke-width:0.67px;"/><path d="M348.83,86.26l-0.139,1.363l-0.235,1.369l-0.318,1.369l-0.408,1.374l-0.503,1.368l-0.592,1.375l-0.682,1.363l-0.77,1.363l-0.866,1.357l-0.956,1.346l-1.044,1.341l-1.14,1.324l-1.223,1.318l-1.318,1.302l-1.408,1.285l-1.028,0.877" style="fill:none;stroke:#000;stroke-width:0.67px;"/><path d="M349.428,71.602l15.373,-1.592" style="fill:none;stroke:#000;stroke-width:0.67px;"/><path d="M349.16,78.529l-0.039,0.396" style="fill:none;stroke:#000;stroke-width:0.67px;"/><path d="M372.522,76.741l-1.464,-0.005" style="fill:none;stroke:#000;stroke-width:0.67px;"/><path d="M371.103,75.361l-0.045,1.375" style="fill:none;stroke:#000;stroke-width:0.67px;"/><path d="M178.378,96.908c0.928,0.248 1.79,0.698 2.525,1.318" style="fill:none;stroke:#000;stroke-width:0.67px;"/><path d="M114.437,64.753c2.38,6.028 6.955,11.29 11.698,15.424c2.463,2.13 5.066,4.091 7.793,5.871c1.329,0.871 2.676,1.704 4.044,2.508c1.369,0.805 2.905,1.648 4.385,2.419c11.335,5.921 24.317,10.245 36.618,13.407" style="fill:none;stroke:#000;stroke-width:0.67px;"/><path d="M111.639,49.726c0.007,1.065 0.099,2.128 0.273,3.179" style="fill:none;stroke:#000;stroke-width:0.67px;"/><path d="M178.612,106.767c-13.965,-3.564 -29.048,-8.709 -41.634,-16.077c-6.34,-3.704 -12.558,-8.279 -17.485,-13.826c-1.285,-1.443 -2.477,-2.965 -3.57,-4.558c-1.016,-1.487 -1.92,-3.048 -2.703,-4.67c-1.669,-3.354 -2.584,-7.032 -2.682,-10.776" style="fill:none;stroke:#000;stroke-width:0.67px;"/><path d="M177.763,99.287c-11.658,-2.927 -23.808,-6.86 -34.685,-12.116c-2.759,-1.335 -5.463,-2.765 -8.106,-4.324c-1.357,-0.799 -2.686,-1.631 -3.999,-2.497c-1.313,-0.866 -2.469,-1.676 -3.67,-2.575c-4.821,-3.592 -9.497,-7.977 -12.849,-13.033" style="fill:none;stroke:#000;stroke-width:0.67px;"/><path d="M374.393,67.295c-0.101,1.642 -0.367,3.271 -0.793,4.86c-0.218,0.827 -0.469,1.637 -0.76,2.441c-0.29,0.805 -0.637,1.643 -1.005,2.447c-1.679,3.523 -3.85,6.79 -6.447,9.703c-2.239,2.556 -4.691,4.916 -7.329,7.056c-3.024,2.435 -6.218,4.651 -9.558,6.631c-3,1.782 -6.078,3.39 -9.234,4.865c-1.687,0.786 -3.393,1.531 -5.117,2.235c-0.883,0.368 -1.777,0.726 -2.67,1.072c-0.894,0.347 -1.827,0.704 -2.749,1.045c-0.81,0.296 -1.625,0.592 -2.447,0.877c-0.821,0.285 -1.676,0.558 -2.502,0.849c-1.706,0.562 -3.421,1.1 -5.145,1.614c-1.725,0.514 -3.508,1.008 -5.352,1.481c-1.828,0.488 -3.659,0.949 -5.491,1.385c-1.732,0.41 -3.467,0.799 -5.206,1.168c-1.771,0.379 -3.542,0.731 -5.324,1.067c-1.782,0.335 -3.609,0.659 -5.419,0.96c-1.81,0.302 -3.67,0.587 -5.508,0.85c-3.582,0.513 -7.171,0.953 -10.765,1.318c-3.593,0.365 -7.245,0.659 -10.954,0.883c-3.635,0.223 -7.273,0.37 -10.916,0.441c-3.642,0.071 -7.279,0.071 -10.91,0c-3.664,-0.086 -7.327,-0.248 -10.988,-0.486c-1.81,-0.117 -3.614,-0.252 -5.424,-0.402c-1.81,-0.151 -3.581,-0.313 -5.374,-0.492" style="fill:none;stroke:#000;stroke-width:0.67px;"/><path d="M372.728,67.267c0.09,0 0.134,0.425 0.14,0.469c0,0.168 0,0.335 0.039,0.503c0,0.335 0,0.67 0,1.011c0,0.67 0,1.341 -0.061,2.011" style="fill:none;stroke:#000;stroke-width:0.67px;"/><path d="M177.763,99.287c-11.658,-2.927 -23.808,-6.86 -34.685,-12.116c-2.759,-1.335 -5.463,-2.765 -8.106,-4.324c-1.357,-0.799 -2.686,-1.631 -3.999,-2.497c-1.313,-0.866 -2.469,-1.676 -3.67,-2.575c-4.821,-3.592 -9.497,-7.977 -12.849,-13.033" style="fill:none;stroke:#000;stroke-width:0.67px;"/><path d="M327.597,43.626l0.006,-0.285l-1.051,-1.877l-0.078,-0.1l-0.111,-0.09l-0.062,-0.033" style="fill:none;stroke:#000;stroke-width:0.67px;"/><path d="M327.597,43.626l0.006,-0.285l-1.051,-1.877l-0.078,-0.1l-0.111,-0.09l-0.062,-0.033" style="fill:none;stroke:#000;stroke-width:0.67px;"/><path d="M328.977,44.369l0.022,-1l-1.145,-2.028l-0.151,-0.195l-0.229,-0.179l-0.29,-0.162l-0.352,-0.14l-0.402,-0.106l-0.403,-0.072" style="fill:none;stroke:#000;stroke-width:0.67px;"/><path d="M110.538,56.86c-0.38,-1.166 -0.671,-2.36 -0.871,-3.57c-0.199,-1.187 -0.299,-2.388 -0.302,-3.592c0,-1.2 0.101,-2.397 0.302,-3.58c0.209,-1.209 0.521,-2.398 0.933,-3.553c0.428,-1.205 0.955,-2.373 1.575,-3.492c0.66,-1.187 1.407,-2.325 2.235,-3.402c1.879,-2.395 4.042,-4.554 6.44,-6.429c0.911,-0.727 1.838,-1.419 2.794,-2.09c0.955,-0.67 2.005,-1.363 3.033,-2.011c1.028,-0.648 2.156,-1.307 3.257,-1.927c1.1,-0.62 2.29,-1.257 3.458,-1.849c4.991,-2.513 10.135,-4.71 15.401,-6.581c1.184,-0.424 2.38,-0.838 3.575,-1.24c1.195,-0.402 2.436,-0.804 3.659,-1.184c1.223,-0.38 2.48,-0.76 3.726,-1.117c1.246,-0.358 2.525,-0.721 3.793,-1.062c1.268,-0.34 2.57,-0.676 3.855,-1c1.284,-0.324 2.603,-0.637 3.91,-0.938c1.307,-0.302 2.637,-0.592 3.961,-0.872c1.324,-0.279 2.664,-0.558 3.999,-0.81c2.559,-0.491 5.125,-0.942 7.698,-1.351c2.574,-0.41 5.18,-0.783 7.821,-1.118c2.625,-0.327 5.257,-0.616 7.893,-0.866c2.637,-0.249 5.27,-0.458 7.899,-0.625c2.648,-0.168 5.3,-0.296 7.955,-0.386c2.655,-0.089 5.301,-0.139 7.938,-0.151c5.236,-0.022 10.465,0.114 15.686,0.408c2.723,0.153 5.437,0.354 8.145,0.604c2.707,0.249 5.365,0.545 7.971,0.888c1.3,0.175 2.604,0.361 3.911,0.558c1.307,0.198 2.586,0.406 3.838,0.626c1.257,0.218 2.508,0.453 3.765,0.704c1.257,0.251 2.458,0.503 3.681,0.776c1.425,0.319 2.843,0.665 4.262,1.028c0.693,0.179 1.386,0.369 2.078,0.559c0.693,0.19 1.358,0.385 2.034,0.559c1.326,0.372 2.642,0.789 3.949,1.251c1.307,0.462 2.564,0.916 3.771,1.363c1.207,0.462 2.404,0.95 3.592,1.463c1.188,0.514 2.339,1.04 3.452,1.576c1.091,0.525 2.171,1.072 3.24,1.642c1.034,0.559 2.056,1.117 3.067,1.721c1.259,0.745 2.493,1.521 3.704,2.329c1.162,0.782 2.279,1.62 3.396,2.441c1.117,0.822 2.134,1.676 3.168,2.553c1.033,0.877 1.972,1.738 2.921,2.648c0.95,0.911 1.81,1.805 2.67,2.749c0.861,0.944 1.648,1.86 2.43,2.837c0.783,0.978 1.492,1.922 2.19,2.922c0.339,0.492 0.674,0.989 1.006,1.492l0.48,0.754l0.235,0.385c0.106,0.179 0.198,0.365 0.274,0.559" style="fill:none;stroke:#000;stroke-width:0.67px;"/><path d="M328.977,44.369l0.022,-1l-1.145,-2.028l-0.151,-0.195l-0.229,-0.179l-0.29,-0.162l-0.352,-0.14l-0.402,-0.106l-0.403,-0.072" style="fill:none;stroke:#000;stroke-width:0.67px;"/><path d="M110.538,56.86c-0.38,-1.166 -0.671,-2.36 -0.871,-3.57c-0.199,-1.187 -0.299,-2.388 -0.302,-3.592c0,-1.2 0.101,-2.397 0.302,-3.58c0.209,-1.209 0.521,-2.398 0.933,-3.553c0.428,-1.205 0.955,-2.373 1.575,-3.492c0.66,-1.187 1.407,-2.325 2.235,-3.402c1.879,-2.395 4.042,-4.554 6.44,-6.429c0.911,-0.727 1.838,-1.419 2.794,-2.09c0.955,-0.67 2.005,-1.363 3.033,-2.011c1.028,-0.648 2.156,-1.307 3.257,-1.927c1.1,-0.62 2.29,-1.257 3.458,-1.849c4.991,-2.513 10.135,-4.71 15.401,-6.581c1.184,-0.424 2.38,-0.838 3.575,-1.24c1.195,-0.402 2.436,-0.804 3.659,-1.184c1.223,-0.38 2.48,-0.76 3.726,-1.117c1.246,-0.358 2.525,-0.721 3.793,-1.062c1.268,-0.34 2.57,-0.676 3.855,-1c1.284,-0.324 2.603,-0.637 3.91,-0.938c1.307,-0.302 2.637,-0.592 3.961,-0.872c1.324,-0.279 2.664,-0.558 3.999,-0.81c2.559,-0.491 5.125,-0.942 7.698,-1.351c2.574,-0.41 5.18,-0.783 7.821,-1.118c2.625,-0.327 5.257,-0.616 7.893,-0.866c2.637,-0.249 5.27,-0.458 7.899,-0.625c2.648,-0.168 5.3,-0.296 7.955,-0.386c2.655,-0.089 5.301,-0.139 7.938,-0.151c5.236,-0.022 10.465,0.114 15.686,0.408c2.723,0.153 5.437,0.354 8.145,0.604c2.707,0.249 5.365,0.545 7.971,0.888c1.3,0.175 2.604,0.361 3.911,0.558c1.307,0.198 2.586,0.406 3.838,0.626c1.257,0.218 2.508,0.453 3.765,0.704c1.257,0.251 2.458,0.503 3.681,0.776c1.425,0.319 2.843,0.665 4.262,1.028c0.693,0.179 1.386,0.369 2.078,0.559c0.693,0.19 1.358,0.385 2.034,0.559c1.326,0.372 2.642,0.789 3.949,1.251c1.307,0.462 2.564,0.916 3.771,1.363c1.207,0.462 2.404,0.95 3.592,1.463c1.188,0.514 2.339,1.04 3.452,1.576c1.091,0.525 2.171,1.072 3.24,1.642c1.034,0.559 2.056,1.117 3.067,1.721c1.259,0.745 2.493,1.521 3.704,2.329c1.162,0.782 2.279,1.62 3.396,2.441c1.117,0.822 2.134,1.676 3.168,2.553c1.033,0.877 1.972,1.738 2.921,2.648c0.95,0.911 1.81,1.805 2.67,2.749c0.861,0.944 1.648,1.86 2.43,2.837c0.783,0.978 1.492,1.922 2.19,2.922c0.339,0.492 0.674,0.989 1.006,1.492l0.48,0.754l0.235,0.385c0.106,0.179 0.198,0.365 0.274,0.559" style="fill:none;stroke:#000;stroke-width:0.67px;"/><path d="M181.78,106.387" style="fill:none;stroke:#000;stroke-width:0.67px;"/><path d="M181.02,106.734c-0.783,0.24 -1.618,0.251 -2.408,0.033" style="fill:none;stroke:#000;stroke-width:0.67px;"/><path d="M181.02,106.734c-0.783,0.24 -1.618,0.251 -2.408,0.033" style="fill:none;stroke:#000;stroke-width:0.67px;"/><path d="M373.466,67.775c-0.049,0.313 -0.08,0.628 -0.095,0.944" style="fill:none;stroke:#000;stroke-width:0.67px;"/><path d="M364.634,225.531c-0.402,5.707 -1.874,11.288 -4.341,16.451c-0.558,1.235 -1.195,2.441 -1.86,3.631c-0.665,1.19 -1.413,2.413 -2.178,3.587c-0.397,0.597 -0.799,1.189 -1.213,1.776c-0.413,0.587 -0.854,1.179 -1.296,1.76c-0.441,0.581 -0.905,1.167 -1.368,1.743c-0.464,0.575 -0.961,1.156 -1.458,1.72c-7.575,8.687 -17.077,15.234 -27.311,20.222c-1.252,0.611 -2.514,1.199 -3.788,1.766c-1.29,0.558 -2.598,1.117 -3.91,1.675c-2.685,1.084 -5.404,2.079 -8.156,2.983c-1.335,0.442 -2.67,0.866 -4.017,1.269c-1.346,0.402 -2.726,0.793 -4.1,1.162c-1.374,0.368 -2.793,0.72 -4.167,1.055c-1.375,0.335 -2.793,0.654 -4.235,0.95c-1.441,0.296 -2.793,0.559 -4.161,0.821c-1.369,0.263 -2.794,0.497 -4.207,0.715c-2.834,0.447 -5.676,0.819 -8.524,1.117c-2.849,0.298 -5.691,0.522 -8.525,0.671c-2.849,0.149 -5.7,0.225 -8.553,0.229" style="fill:none;stroke:#000;stroke-width:0.67px;"/><path d="M221.006,121.152l10.793,140.633" style="fill:none;stroke:#000;stroke-width:0.67px;"/></g></svg>